<svg width="320" height="287" viewBox="0 0 320 287" fill="none" xmlns="http://www.w3.org/2000/svg">
<path d="M186.399 50.5948C192.397 50.5948 197.259 44.5994 197.259 37.2038C197.259 29.8081 192.397 23.8127 186.399 23.8127C180.402 23.8127 175.54 29.8081 175.54 37.2038C175.54 44.5994 180.402 50.5948 186.399 50.5948Z" fill="#F2F2F2"/>
<path d="M270.638 249.333C286.779 234.172 294.488 208.697 289.662 184.394C289.542 183.791 289.415 183.188 289.282 182.587C286.082 168.162 278.166 154.451 266.629 149.842C256.941 145.972 246.367 148.948 236.261 147.409C216.421 144.388 201.04 124.593 190.218 103.867C179.395 83.1415 171.078 59.9422 156.697 42.8198C132.992 14.5964 94.3245 8.51993 64.9343 26.8912C35.5443 45.2626 16.8231 86.0209 17.6215 126.642C18.4199 167.262 37.9753 206.099 66.3747 226.704C76.8074 234.273 88.8739 239.636 100.882 237.759C111.302 236.131 120.77 229.227 131.14 227.177C147.446 223.955 163.647 233.046 177.749 243.639C191.852 254.233 205.474 266.789 221.5 271.701C237.061 276.469 256.339 262.763 270.638 249.333Z" fill="#F2F2F2"/>
<path d="M247.447 27.7442C247.093 27.4533 246.735 27.1775 246.382 26.8966C236.153 18.83 225.191 12.2768 213.719 7.37238L211.06 52.6197H194.198V0.767328C193.136 0.496506 192.067 0.240731 190.997 0V52.6197H170.959C159.928 52.6197 149.348 47.2159 141.548 37.597C133.748 27.9782 129.366 14.9322 129.366 1.32909V1.32905C128.292 1.61491 127.226 1.92084 126.161 2.24683V52.6197H109.84L107.306 9.47376C95.5179 15.0488 84.3265 22.3803 73.9812 31.305C73.8023 31.4555 73.6233 31.611 73.4484 31.7614C72.5496 32.5388 71.663 33.3312 70.7805 34.1336V206.753H118.881L118.031 192.233L113.354 112.517H207.542L202.865 192.233L202.015 206.753H249.582V29.4895C248.875 28.8977 248.163 28.316 247.447 27.7442ZM126.161 99.3516H112.581L110.072 56.5717H126.161V99.3516ZM190.997 99.3516H168.189V98.504C168.189 98.0965 168.124 97.6931 167.998 97.3167C167.871 96.9403 167.686 96.5984 167.452 96.3106C167.218 96.0227 166.94 95.7945 166.635 95.639C166.33 95.4836 166.002 95.4039 165.672 95.4046H155.756C155.426 95.4044 155.099 95.4845 154.794 95.6402C154.489 95.7959 154.212 96.0242 153.979 96.312C153.746 96.5999 153.56 96.9416 153.434 97.3177C153.308 97.6938 153.243 98.0969 153.243 98.504V99.3516H129.366V56.5717H190.997V99.3516ZM194.198 99.3516V56.5717H210.828L208.318 99.3516H194.198Z" fill="#3F3D56"/>
<path d="M-6.10352e-05 217.806C3.53305 222.969 7.35451 227.82 11.4364 232.325L308.564 232.827C312.645 228.322 316.467 223.47 320 218.308L-6.10352e-05 217.806Z" fill="#3F3D56"/>
<path d="M201.492 171.316V214.298C201.492 214.846 201.669 215.371 201.983 215.758C202.297 216.146 202.723 216.363 203.167 216.364H254.82C255.264 216.363 255.69 216.146 256.004 215.758C256.318 215.371 256.494 214.846 256.495 214.298V171.316C256.494 170.768 256.317 170.244 256.003 169.857C255.689 169.47 255.263 169.253 254.82 169.252H203.167C202.723 169.253 202.297 169.47 201.983 169.857C201.669 170.244 201.493 170.768 201.492 171.316V171.316Z" fill="#3F3D56"/>
<path d="M202.703 171.85V213.768C202.704 214.061 202.798 214.341 202.966 214.548C203.134 214.755 203.361 214.871 203.599 214.872H254.39C254.627 214.871 254.854 214.755 255.022 214.548C255.19 214.341 255.284 214.061 255.285 213.768V171.85C255.285 171.557 255.191 171.276 255.023 171.069C254.855 170.862 254.627 170.745 254.39 170.744H203.599C203.361 170.745 203.133 170.862 202.965 171.069C202.798 171.276 202.703 171.557 202.703 171.85V171.85Z" fill="#F6CB40"/>
<path d="M200.411 222.681C200.506 222.827 200.626 222.945 200.763 223.026C200.9 223.107 201.05 223.148 201.202 223.147H256.51C256.661 223.147 256.81 223.105 256.947 223.025C257.083 222.944 257.204 222.828 257.299 222.683C257.394 222.538 257.462 222.369 257.498 222.187C257.533 222.006 257.536 221.817 257.504 221.635L256.646 216.606C256.61 216.401 256.534 216.21 256.423 216.051C256.312 215.891 256.171 215.769 256.012 215.694C255.897 215.638 255.775 215.61 255.651 215.61H202.057C201.933 215.61 201.811 215.638 201.696 215.694C201.537 215.769 201.396 215.891 201.285 216.051C201.174 216.21 201.098 216.401 201.062 216.606L200.203 221.635C200.173 221.817 200.176 222.006 200.212 222.187C200.248 222.368 200.316 222.536 200.411 222.681V222.681Z" fill="#2F2E41"/>
<path d="M253.753 217.776H255.06C255.169 217.776 255.258 217.667 255.258 217.531V216.761C255.258 216.625 255.169 216.516 255.06 216.516H253.753C253.644 216.516 253.555 216.625 253.555 216.761V217.531C253.555 217.667 253.644 217.776 253.753 217.776Z" fill="#3F3D56"/>
<path d="M250.346 217.776H251.653C251.762 217.776 251.851 217.667 251.851 217.531V216.761C251.851 216.625 251.762 216.516 251.653 216.516H250.346C250.237 216.516 250.148 216.625 250.148 216.761V217.531C250.148 217.667 250.237 217.776 250.346 217.776Z" fill="#3F3D56"/>
<path d="M246.94 217.776H248.246C248.356 217.776 248.444 217.667 248.444 217.531V216.761C248.444 216.625 248.356 216.516 248.246 216.516H246.94C246.83 216.516 246.741 216.625 246.741 216.761V217.531C246.741 217.667 246.83 217.776 246.94 217.776Z" fill="#3F3D56"/>
<path d="M243.533 217.776H244.839C244.949 217.776 245.038 217.667 245.038 217.531V216.761C245.038 216.625 244.949 216.516 244.839 216.516H243.533C243.423 216.516 243.334 216.625 243.334 216.761V217.531C243.334 217.667 243.423 217.776 243.533 217.776Z" fill="#3F3D56"/>
<path d="M240.126 217.776H241.432C241.542 217.776 241.631 217.667 241.631 217.531V216.761C241.631 216.625 241.542 216.516 241.432 216.516H240.126C240.016 216.516 239.927 216.625 239.927 216.761V217.531C239.927 217.667 240.016 217.776 240.126 217.776Z" fill="#3F3D56"/>
<path d="M236.719 217.776H238.025C238.135 217.776 238.224 217.667 238.224 217.531V216.761C238.224 216.625 238.135 216.516 238.025 216.516H236.719C236.609 216.516 236.52 216.625 236.52 216.761V217.531C236.52 217.667 236.609 217.776 236.719 217.776Z" fill="#3F3D56"/>
<path d="M233.312 217.776H234.618C234.728 217.776 234.817 217.667 234.817 217.531V216.761C234.817 216.625 234.728 216.516 234.618 216.516H233.312C233.202 216.516 233.113 216.625 233.113 216.761V217.531C233.113 217.667 233.202 217.776 233.312 217.776Z" fill="#3F3D56"/>
<path d="M229.905 217.776H231.211C231.321 217.776 231.41 217.667 231.41 217.531V216.761C231.41 216.625 231.321 216.516 231.211 216.516H229.905C229.795 216.516 229.706 216.625 229.706 216.761V217.531C229.706 217.667 229.795 217.776 229.905 217.776Z" fill="#3F3D56"/>
<path d="M226.498 217.776H227.804C227.914 217.776 228.003 217.667 228.003 217.531V216.761C228.003 216.625 227.914 216.516 227.804 216.516H226.498C226.388 216.516 226.299 216.625 226.299 216.761V217.531C226.299 217.667 226.388 217.776 226.498 217.776Z" fill="#3F3D56"/>
<path d="M223.091 217.776H224.397C224.507 217.776 224.596 217.667 224.596 217.531V216.761C224.596 216.625 224.507 216.516 224.397 216.516H223.091C222.981 216.516 222.893 216.625 222.893 216.761V217.531C222.893 217.667 222.981 217.776 223.091 217.776Z" fill="#3F3D56"/>
<path d="M219.684 217.776H220.99C221.1 217.776 221.189 217.667 221.189 217.531V216.761C221.189 216.625 221.1 216.516 220.99 216.516H219.684C219.574 216.516 219.486 216.625 219.486 216.761V217.531C219.486 217.667 219.574 217.776 219.684 217.776Z" fill="#3F3D56"/>
<path d="M216.277 217.776H217.584C217.693 217.776 217.782 217.667 217.782 217.531V216.761C217.782 216.625 217.693 216.516 217.584 216.516H216.277C216.168 216.516 216.079 216.625 216.079 216.761V217.531C216.079 217.667 216.168 217.776 216.277 217.776Z" fill="#3F3D56"/>
<path d="M212.87 217.776H214.177C214.286 217.776 214.375 217.667 214.375 217.531V216.761C214.375 216.625 214.286 216.516 214.177 216.516H212.87C212.761 216.516 212.672 216.625 212.672 216.761V217.531C212.672 217.667 212.761 217.776 212.87 217.776Z" fill="#3F3D56"/>
<path d="M209.463 217.776H210.77C210.879 217.776 210.968 217.667 210.968 217.531V216.761C210.968 216.625 210.879 216.516 210.77 216.516H209.463C209.354 216.516 209.265 216.625 209.265 216.761V217.531C209.265 217.667 209.354 217.776 209.463 217.776Z" fill="#3F3D56"/>
<path d="M206.057 217.776H207.363C207.473 217.776 207.561 217.667 207.561 217.531V216.761C207.561 216.625 207.473 216.516 207.363 216.516H206.057C205.947 216.516 205.858 216.625 205.858 216.761V217.531C205.858 217.667 205.947 217.776 206.057 217.776Z" fill="#3F3D56"/>
<path d="M202.65 217.776H203.956C204.066 217.776 204.154 217.667 204.154 217.531V216.761C204.154 216.625 204.066 216.516 203.956 216.516H202.65C202.54 216.516 202.451 216.625 202.451 216.761V217.531C202.451 217.667 202.54 217.776 202.65 217.776Z" fill="#3F3D56"/>
<path d="M253.794 219.877H255.1C255.21 219.877 255.299 219.767 255.299 219.632V218.861C255.299 218.726 255.21 218.616 255.1 218.616H253.794C253.684 218.616 253.595 218.726 253.595 218.861V219.632C253.595 219.767 253.684 219.877 253.794 219.877Z" fill="#3F3D56"/>
<path d="M250.387 219.877H251.693C251.803 219.877 251.892 219.767 251.892 219.632V218.861C251.892 218.726 251.803 218.616 251.693 218.616H250.387C250.277 218.616 250.188 218.726 250.188 218.861V219.632C250.188 219.767 250.277 219.877 250.387 219.877Z" fill="#3F3D56"/>
<path d="M246.98 219.877H248.286C248.396 219.877 248.485 219.767 248.485 219.632V218.861C248.485 218.726 248.396 218.616 248.286 218.616H246.98C246.87 218.616 246.781 218.726 246.781 218.861V219.632C246.781 219.767 246.87 219.877 246.98 219.877Z" fill="#3F3D56"/>
<path d="M243.573 219.877H244.879C244.989 219.877 245.078 219.767 245.078 219.632V218.861C245.078 218.726 244.989 218.616 244.879 218.616H243.573C243.463 218.616 243.374 218.726 243.374 218.861V219.632C243.374 219.767 243.463 219.877 243.573 219.877Z" fill="#3F3D56"/>
<path d="M240.166 219.877H241.472C241.582 219.877 241.671 219.767 241.671 219.632V218.861C241.671 218.726 241.582 218.616 241.472 218.616H240.166C240.056 218.616 239.967 218.726 239.967 218.861V219.632C239.967 219.767 240.056 219.877 240.166 219.877Z" fill="#3F3D56"/>
<path d="M236.759 219.877H238.065C238.175 219.877 238.264 219.767 238.264 219.632V218.861C238.264 218.726 238.175 218.616 238.065 218.616H236.759C236.649 218.616 236.56 218.726 236.56 218.861V219.632C236.56 219.767 236.649 219.877 236.759 219.877Z" fill="#3F3D56"/>
<path d="M233.352 219.877H234.659C234.768 219.877 234.857 219.767 234.857 219.632V218.861C234.857 218.726 234.768 218.616 234.659 218.616H233.352C233.242 218.616 233.154 218.726 233.154 218.861V219.632C233.154 219.767 233.242 219.877 233.352 219.877Z" fill="#3F3D56"/>
<path d="M229.945 219.877H231.251C231.361 219.877 231.45 219.767 231.45 219.632V218.861C231.45 218.726 231.361 218.616 231.251 218.616H229.945C229.835 218.616 229.747 218.726 229.747 218.861V219.632C229.747 219.767 229.835 219.877 229.945 219.877Z" fill="#3F3D56"/>
<path d="M226.538 219.877H227.845C227.954 219.877 228.043 219.767 228.043 219.632V218.861C228.043 218.726 227.954 218.616 227.845 218.616H226.538C226.429 218.616 226.34 218.726 226.34 218.861V219.632C226.34 219.767 226.429 219.877 226.538 219.877Z" fill="#3F3D56"/>
<path d="M223.131 219.877H224.438C224.547 219.877 224.636 219.767 224.636 219.632V218.861C224.636 218.726 224.547 218.616 224.438 218.616H223.131C223.022 218.616 222.933 218.726 222.933 218.861V219.632C222.933 219.767 223.022 219.877 223.131 219.877Z" fill="#3F3D56"/>
<path d="M219.724 219.877H221.031C221.14 219.877 221.229 219.767 221.229 219.632V218.861C221.229 218.726 221.14 218.616 221.031 218.616H219.724C219.615 218.616 219.526 218.726 219.526 218.861V219.632C219.526 219.767 219.615 219.877 219.724 219.877Z" fill="#3F3D56"/>
<path d="M216.318 219.877H217.624C217.734 219.877 217.822 219.767 217.822 219.632V218.861C217.822 218.726 217.734 218.616 217.624 218.616H216.318C216.208 218.616 216.119 218.726 216.119 218.861V219.632C216.119 219.767 216.208 219.877 216.318 219.877Z" fill="#3F3D56"/>
<path d="M212.911 219.877H214.217C214.327 219.877 214.416 219.767 214.416 219.632V218.861C214.416 218.726 214.327 218.616 214.217 218.616H212.911C212.801 218.616 212.712 218.726 212.712 218.861V219.632C212.712 219.767 212.801 219.877 212.911 219.877Z" fill="#3F3D56"/>
<path d="M209.504 219.877H210.81C210.92 219.877 211.009 219.767 211.009 219.632V218.861C211.009 218.726 210.92 218.616 210.81 218.616H209.504C209.394 218.616 209.305 218.726 209.305 218.861V219.632C209.305 219.767 209.394 219.877 209.504 219.877Z" fill="#3F3D56"/>
<path d="M206.097 219.877H207.403C207.513 219.877 207.602 219.767 207.602 219.632V218.861C207.602 218.726 207.513 218.616 207.403 218.616H206.097C205.987 218.616 205.898 218.726 205.898 218.861V219.632C205.898 219.767 205.987 219.877 206.097 219.877Z" fill="#3F3D56"/>
<path d="M202.69 219.877H203.996C204.106 219.877 204.195 219.767 204.195 219.632V218.861C204.195 218.726 204.106 218.616 203.996 218.616H202.69C202.58 218.616 202.491 218.726 202.491 218.861V219.632C202.491 219.767 202.58 219.877 202.69 219.877Z" fill="#3F3D56"/>
<path d="M225.516 222.397H238.747C238.856 222.397 238.945 222.288 238.945 222.153V221.382C238.945 221.247 238.856 221.137 238.747 221.137H225.516C225.407 221.137 225.318 221.247 225.318 221.382V222.153C225.318 222.288 225.407 222.397 225.516 222.397Z" fill="#3F3D56"/>
<path d="M211.499 179.915H210.342C209.992 179.915 209.707 180.265 209.707 180.697C209.707 181.13 209.992 181.48 210.342 181.48H211.499C211.849 181.48 212.134 181.13 212.134 180.697C212.134 180.265 211.849 179.915 211.499 179.915Z" fill="white"/>
<path d="M224.726 179.915H223.569C223.219 179.915 222.934 180.265 222.934 180.697C222.934 181.13 223.219 181.48 223.569 181.48H224.726C225.077 181.48 225.361 181.13 225.361 180.697C225.361 180.265 225.077 179.915 224.726 179.915Z" fill="white"/>
<path d="M228.474 179.915H227.317C226.966 179.915 226.682 180.265 226.682 180.697C226.682 181.13 226.966 181.48 227.317 181.48H228.474C228.824 181.48 229.108 181.13 229.108 180.697C229.108 180.265 228.824 179.915 228.474 179.915Z" fill="white"/>
<path d="M221.128 179.784H213.94C213.589 179.784 213.305 180.135 213.305 180.567C213.305 180.999 213.589 181.35 213.94 181.35H221.128C221.479 181.35 221.763 180.999 221.763 180.567C221.763 180.135 221.479 179.784 221.128 179.784Z" fill="white"/>
<path d="M238.764 179.784H231.576C231.226 179.784 230.941 180.135 230.941 180.567C230.941 180.999 231.226 181.35 231.576 181.35H238.764C239.115 181.35 239.399 180.999 239.399 180.567C239.399 180.135 239.115 179.784 238.764 179.784Z" fill="white"/>
<path d="M215.026 183.449H213.87C213.519 183.449 213.235 183.799 213.235 184.232C213.235 184.664 213.519 185.014 213.87 185.014H215.026C215.377 185.014 215.661 184.664 215.661 184.232C215.661 183.799 215.377 183.449 215.026 183.449Z" fill="white"/>
<path d="M228.253 183.449H227.097C226.746 183.449 226.462 183.799 226.462 184.232C226.462 184.664 226.746 185.014 227.097 185.014H228.253C228.604 185.014 228.888 184.664 228.888 184.232C228.888 183.799 228.604 183.449 228.253 183.449Z" fill="white"/>
<path d="M232.001 183.449H230.844C230.494 183.449 230.209 183.799 230.209 184.232C230.209 184.664 230.494 185.014 230.844 185.014H232.001C232.351 185.014 232.636 184.664 232.636 184.232C232.636 183.799 232.351 183.449 232.001 183.449Z" fill="white"/>
<path d="M224.655 183.318H217.467C217.117 183.318 216.832 183.669 216.832 184.101C216.832 184.533 217.117 184.884 217.467 184.884H224.655C225.006 184.884 225.29 184.533 225.29 184.101C225.29 183.669 225.006 183.318 224.655 183.318Z" fill="white"/>
<path d="M242.291 183.318H235.103C234.753 183.318 234.469 183.669 234.469 184.101C234.469 184.533 234.753 184.884 235.103 184.884H242.291C242.642 184.884 242.926 184.533 242.926 184.101C242.926 183.669 242.642 183.318 242.291 183.318Z" fill="white"/>
<path d="M218.553 186.983H217.397C217.046 186.983 216.762 187.333 216.762 187.766C216.762 188.198 217.046 188.548 217.397 188.548H218.553C218.904 188.548 219.188 188.198 219.188 187.766C219.188 187.333 218.904 186.983 218.553 186.983Z" fill="white"/>
<path d="M231.78 186.983H230.624C230.273 186.983 229.989 187.333 229.989 187.766C229.989 188.198 230.273 188.548 230.624 188.548H231.78C232.131 188.548 232.415 188.198 232.415 187.766C232.415 187.333 232.131 186.983 231.78 186.983Z" fill="white"/>
<path d="M235.528 186.983H234.372C234.021 186.983 233.737 187.333 233.737 187.766C233.737 188.198 234.021 188.548 234.372 188.548H235.528C235.879 188.548 236.163 188.198 236.163 187.766C236.163 187.333 235.879 186.983 235.528 186.983Z" fill="white"/>
<path d="M228.183 186.852H220.995C220.644 186.852 220.36 187.203 220.36 187.635C220.36 188.067 220.644 188.418 220.995 188.418H228.183C228.533 188.418 228.817 188.067 228.817 187.635C228.817 187.203 228.533 186.852 228.183 186.852Z" fill="white"/>
<path d="M245.819 186.852H238.631C238.28 186.852 237.996 187.203 237.996 187.635C237.996 188.067 238.28 188.418 238.631 188.418H245.819C246.169 188.418 246.454 188.067 246.454 187.635C246.454 187.203 246.169 186.852 245.819 186.852Z" fill="white"/>
<path d="M222.081 190.517H220.924C220.573 190.517 220.289 190.867 220.289 191.3C220.289 191.732 220.573 192.083 220.924 192.083H222.081C222.431 192.083 222.715 191.732 222.715 191.3C222.715 190.867 222.431 190.517 222.081 190.517Z" fill="white"/>
<path d="M235.308 190.517H234.151C233.8 190.517 233.516 190.867 233.516 191.3C233.516 191.732 233.8 192.083 234.151 192.083H235.308C235.658 192.083 235.942 191.732 235.942 191.3C235.942 190.867 235.658 190.517 235.308 190.517Z" fill="white"/>
<path d="M239.055 190.517H237.899C237.548 190.517 237.264 190.867 237.264 191.3C237.264 191.732 237.548 192.083 237.899 192.083H239.055C239.406 192.083 239.69 191.732 239.69 191.3C239.69 190.867 239.406 190.517 239.055 190.517Z" fill="white"/>
<path d="M231.71 190.386H224.522C224.171 190.386 223.887 190.737 223.887 191.169C223.887 191.602 224.171 191.952 224.522 191.952H231.71C232.06 191.952 232.345 191.602 232.345 191.169C232.345 190.737 232.06 190.386 231.71 190.386Z" fill="white"/>
<path d="M224.726 204.57H223.569C223.219 204.57 222.934 204.92 222.934 205.353C222.934 205.785 223.219 206.136 223.569 206.136H224.726C225.077 206.136 225.361 205.785 225.361 205.353C225.361 204.92 225.077 204.57 224.726 204.57Z" fill="white"/>
<path d="M228.474 204.57H227.317C226.966 204.57 226.682 204.92 226.682 205.353C226.682 205.785 226.966 206.136 227.317 206.136H228.474C228.824 206.136 229.108 205.785 229.108 205.353C229.108 204.92 228.824 204.57 228.474 204.57Z" fill="white"/>
<path d="M238.764 204.7H231.576C231.226 204.7 230.941 205.051 230.941 205.483C230.941 205.916 231.226 206.266 231.576 206.266H238.764C239.115 206.266 239.399 205.916 239.399 205.483C239.399 205.051 239.115 204.7 238.764 204.7Z" fill="white"/>
<path d="M211.499 204.57H210.342C209.992 204.57 209.707 204.92 209.707 205.353C209.707 205.785 209.992 206.136 210.342 206.136H211.499C211.849 206.136 212.134 205.785 212.134 205.353C212.134 204.92 211.849 204.57 211.499 204.57Z" fill="white"/>
<path d="M221.128 204.7H213.94C213.589 204.7 213.305 205.051 213.305 205.483C213.305 205.916 213.589 206.266 213.94 206.266H221.128C221.479 206.266 221.763 205.916 221.763 205.483C221.763 205.051 221.479 204.7 221.128 204.7Z" fill="white"/>
<path d="M215.026 201.036H213.87C213.519 201.036 213.235 201.386 213.235 201.819C213.235 202.251 213.519 202.601 213.87 202.601H215.026C215.377 202.601 215.661 202.251 215.661 201.819C215.661 201.386 215.377 201.036 215.026 201.036Z" fill="white"/>
<path d="M228.253 201.036H227.097C226.746 201.036 226.462 201.386 226.462 201.819C226.462 202.251 226.746 202.601 227.097 202.601H228.253C228.604 202.601 228.888 202.251 228.888 201.819C228.888 201.386 228.604 201.036 228.253 201.036Z" fill="white"/>
<path d="M232.001 201.036H230.844C230.494 201.036 230.209 201.386 230.209 201.819C230.209 202.251 230.494 202.601 230.844 202.601H232.001C232.351 202.601 232.636 202.251 232.636 201.819C232.636 201.386 232.351 201.036 232.001 201.036Z" fill="white"/>
<path d="M224.655 201.166H217.467C217.117 201.166 216.832 201.517 216.832 201.949C216.832 202.381 217.117 202.732 217.467 202.732H224.655C225.006 202.732 225.29 202.381 225.29 201.949C225.29 201.517 225.006 201.166 224.655 201.166Z" fill="white"/>
<path d="M218.553 197.502H217.397C217.046 197.502 216.762 197.852 216.762 198.285C216.762 198.717 217.046 199.067 217.397 199.067H218.553C218.904 199.067 219.188 198.717 219.188 198.285C219.188 197.852 218.904 197.502 218.553 197.502Z" fill="white"/>
<path d="M231.78 197.502H230.624C230.273 197.502 229.989 197.852 229.989 198.285C229.989 198.717 230.273 199.067 230.624 199.067H231.78C232.131 199.067 232.415 198.717 232.415 198.285C232.415 197.852 232.131 197.502 231.78 197.502Z" fill="white"/>
<path d="M235.528 197.502H234.372C234.021 197.502 233.737 197.852 233.737 198.285C233.737 198.717 234.021 199.067 234.372 199.067H235.528C235.879 199.067 236.163 198.717 236.163 198.285C236.163 197.852 235.879 197.502 235.528 197.502Z" fill="white"/>
<path d="M228.183 197.632H220.995C220.644 197.632 220.36 197.983 220.36 198.415C220.36 198.847 220.644 199.198 220.995 199.198H228.183C228.533 199.198 228.817 198.847 228.817 198.415C228.817 197.983 228.533 197.632 228.183 197.632Z" fill="white"/>
<path d="M222.081 193.968H220.924C220.573 193.968 220.289 194.318 220.289 194.75C220.289 195.183 220.573 195.533 220.924 195.533H222.081C222.431 195.533 222.715 195.183 222.715 194.75C222.715 194.318 222.431 193.968 222.081 193.968Z" fill="white"/>
<path d="M235.308 193.968H234.151C233.8 193.968 233.516 194.318 233.516 194.75C233.516 195.183 233.8 195.533 234.151 195.533H235.308C235.658 195.533 235.942 195.183 235.942 194.75C235.942 194.318 235.658 193.968 235.308 193.968Z" fill="white"/>
<path d="M239.055 193.968H237.899C237.548 193.968 237.264 194.318 237.264 194.75C237.264 195.183 237.548 195.533 237.899 195.533H239.055C239.406 195.533 239.69 195.183 239.69 194.75C239.69 194.318 239.406 193.968 239.055 193.968Z" fill="white"/>
<path d="M231.71 194.098H224.522C224.171 194.098 223.887 194.449 223.887 194.881C223.887 195.313 224.171 195.664 224.522 195.664H231.71C232.06 195.664 232.345 195.313 232.345 194.881C232.345 194.449 232.06 194.098 231.71 194.098Z" fill="white"/>
<path d="M205.35 245.987L199.921 235.404L216.962 218.652L223.996 209.043C224.91 207.794 226.074 206.863 227.371 206.343C228.668 205.823 230.053 205.731 231.387 206.078C232.722 206.425 233.959 207.197 234.976 208.318C235.993 209.439 236.753 210.87 237.181 212.467C237.815 214.833 237.678 217.411 236.801 219.656C235.923 221.901 234.372 223.637 232.475 224.499L221.352 229.552L205.35 245.987Z" fill="#FFB6B6"/>
<path d="M77.9604 169.254V220.69H107.182V169.254C107.182 168.884 107.087 168.524 106.909 168.226C106.731 167.928 106.48 167.708 106.194 167.599C106.058 167.544 105.917 167.517 105.775 167.519H79.3716C79.1865 167.518 79.0032 167.563 78.8321 167.65C78.6609 167.737 78.5054 167.865 78.3743 168.026C78.2433 168.187 78.1392 168.378 78.0682 168.589C77.9972 168.8 77.9605 169.026 77.9604 169.254V169.254ZM89.3642 186.928C89.3719 185.914 89.7039 184.944 90.288 184.231C90.8722 183.517 91.6613 183.117 92.4836 183.117C93.306 183.117 94.095 183.517 94.6792 184.231C95.2634 184.944 95.5954 185.914 95.603 186.928V192.896C95.5988 193.913 95.2683 194.886 94.6838 195.603C94.0992 196.32 93.3082 196.723 92.4836 196.723C91.6591 196.723 90.868 196.32 90.2835 195.603C89.699 194.886 89.3685 193.913 89.3642 192.896V186.928Z" fill="#2F2E41"/>
<path d="M77.8709 219.045V224.005C77.8716 224.262 77.9544 224.509 78.1013 224.691C78.2483 224.873 78.4475 224.976 78.6559 224.978H106.486C106.695 224.977 106.895 224.874 107.042 224.692C107.189 224.509 107.271 224.263 107.271 224.005V219.045H77.8709Z" fill="#3F3D56"/>
<path d="M31.991 91.7589V185.674C31.9918 186.871 32.3777 188.018 33.064 188.865C33.7502 189.711 34.6808 190.187 35.6513 190.188H148.511C149.481 190.187 150.412 189.711 151.098 188.865C151.784 188.018 152.17 186.871 152.171 185.674V91.7589C152.169 90.5632 151.782 89.4172 151.096 88.5722C150.41 87.7271 149.48 87.2518 148.511 87.2502H35.6513C34.6817 87.2518 33.752 87.7271 33.0659 88.5722C32.3799 89.4173 31.9934 90.5632 31.991 91.7589Z" fill="#3F3D56"/>
<path d="M34.6387 92.9275V184.515C34.6396 185.155 34.8459 185.768 35.2126 186.22C35.5793 186.672 36.0764 186.927 36.5949 186.928H147.571C148.09 186.927 148.587 186.672 148.954 186.22C149.32 185.768 149.527 185.155 149.527 184.515V92.9275C149.527 92.2872 149.321 91.6732 148.955 91.22C148.588 90.7668 148.09 90.5115 147.571 90.5101H36.5949C36.0757 90.5115 35.5782 90.7668 35.2115 91.22C34.8447 91.6732 34.6387 92.2872 34.6387 92.9275Z" fill="white"/>
<path d="M55.2339 224.642C55.3469 224.817 55.4905 224.958 55.6539 225.054C55.8173 225.151 55.9963 225.2 56.1775 225.199H122.201C122.382 225.199 122.56 225.149 122.723 225.053C122.886 224.957 123.03 224.817 123.143 224.645C123.257 224.472 123.338 224.27 123.381 224.053C123.423 223.837 123.426 223.611 123.389 223.393L122.364 217.39C122.321 217.145 122.23 216.918 122.098 216.728C121.966 216.537 121.797 216.391 121.607 216.302C121.47 216.235 121.324 216.201 121.176 216.202H57.1983C57.0508 216.201 56.9045 216.235 56.7672 216.302C56.5775 216.391 56.4089 216.537 56.2768 216.728C56.1447 216.918 56.0532 217.145 56.0107 217.39L54.9859 223.393C54.9494 223.611 54.9527 223.836 54.9956 224.052C55.0386 224.268 55.12 224.47 55.2339 224.642Z" fill="#2F2E41"/>
<path d="M143.97 103.127H40.1296C40.0217 103.124 39.919 103.069 39.8435 102.974C39.768 102.879 39.7257 102.751 39.7257 102.618C39.7257 102.484 39.768 102.357 39.8435 102.261C39.919 102.166 40.0217 102.111 40.1296 102.108H143.97C144.078 102.111 144.18 102.166 144.256 102.261C144.331 102.357 144.374 102.484 144.374 102.618C144.374 102.751 144.331 102.879 144.256 102.974C144.18 103.069 144.078 103.124 143.97 103.127V103.127Z" fill="#3F3D56"/>
<path d="M47.1981 99.5084C48.5347 99.5084 49.6182 98.1425 49.6182 96.4576C49.6182 94.7727 48.5347 93.4069 47.1981 93.4069C45.8616 93.4069 44.7781 94.7727 44.7781 96.4576C44.7781 98.1425 45.8616 99.5084 47.1981 99.5084Z" fill="#3F3D56"/>
<path d="M55.5583 99.5084C56.8948 99.5084 57.9783 98.1425 57.9783 96.4576C57.9783 94.7727 56.8948 93.4069 55.5583 93.4069C54.2217 93.4069 53.1382 94.7727 53.1382 96.4576C53.1382 98.1425 54.2217 99.5084 55.5583 99.5084Z" fill="#3F3D56"/>
<path d="M63.9184 99.5084C65.255 99.5084 66.3385 98.1425 66.3385 96.4576C66.3385 94.7727 65.255 93.4069 63.9184 93.4069C62.5819 93.4069 61.4984 94.7727 61.4984 96.4576C61.4984 98.1425 62.5819 99.5084 63.9184 99.5084Z" fill="#3F3D56"/>
<path d="M138.936 94.1613H132.998C132.88 94.1646 132.769 94.2245 132.687 94.3281C132.605 94.4316 132.559 94.5706 132.559 94.7154C132.559 94.8602 132.605 94.9993 132.687 95.1028C132.769 95.2064 132.88 95.2662 132.998 95.2696H138.936C139.054 95.2676 139.166 95.2083 139.249 95.1046C139.332 95.0009 139.379 94.8611 139.379 94.7154C139.379 94.5698 139.332 94.43 139.249 94.3263C139.166 94.2226 139.054 94.1633 138.936 94.1613Z" fill="#3F3D56"/>
<path d="M138.936 96.2426H132.998C132.88 96.2458 132.768 96.3056 132.686 96.4091C132.604 96.5127 132.558 96.6518 132.558 96.7967C132.558 96.9416 132.604 97.0808 132.686 97.1843C132.768 97.2879 132.88 97.3477 132.998 97.3509H138.936C139.054 97.3492 139.167 97.29 139.25 97.1863C139.333 97.0825 139.38 96.9426 139.38 96.7967C139.38 96.6509 139.333 96.5109 139.25 96.4072C139.167 96.3035 139.054 96.2443 138.936 96.2426V96.2426Z" fill="#3F3D56"/>
<path d="M138.936 98.3239H132.998C132.88 98.3272 132.769 98.3871 132.687 98.4907C132.605 98.5942 132.559 98.7333 132.559 98.878C132.559 99.0228 132.605 99.1619 132.687 99.2654C132.769 99.369 132.88 99.4288 132.998 99.4322H138.936C139.054 99.4302 139.166 99.3709 139.249 99.2672C139.332 99.1635 139.379 99.0237 139.379 98.878C139.379 98.7324 139.332 98.5926 139.249 98.4889C139.166 98.3852 139.054 98.3259 138.936 98.3239V98.3239Z" fill="#3F3D56"/>
<path d="M282.086 221.222C282.265 221.865 282.605 222.422 283.057 222.812C283.508 223.203 284.049 223.406 284.6 223.394L295.375 223.052C295.93 223.039 296.467 222.804 296.906 222.383C297.344 221.962 297.66 221.378 297.807 220.717L299.332 200.612C299.873 200.914 300.461 201.063 301.055 201.049C301.571 201.033 302.079 200.892 302.551 200.633C303.023 200.375 303.448 200.005 303.804 199.544C304.159 199.083 304.438 198.54 304.623 197.946C304.809 197.352 304.898 196.719 304.885 196.083C304.872 195.447 304.757 194.82 304.548 194.239C304.339 193.657 304.038 193.132 303.664 192.694C303.29 192.255 302.85 191.912 302.369 191.683C301.887 191.455 301.374 191.345 300.858 191.361C300.621 191.36 300.384 191.39 300.152 191.452C299.899 191.115 299.593 190.847 299.251 190.665C298.91 190.484 298.541 190.392 298.17 190.397L281.596 190.925C281.459 190.931 281.322 190.952 281.188 190.987C280.824 191.071 280.479 191.249 280.177 191.511C279.874 191.773 279.62 192.111 279.432 192.504C279.244 192.897 279.127 193.334 279.088 193.788C279.049 194.241 279.089 194.699 279.206 195.132L282.086 221.222ZM299.644 199.247L300.729 194.456C300.853 193.903 300.855 193.319 300.737 192.764C300.79 192.763 300.837 192.733 300.889 192.733C301.633 192.714 302.353 193.059 302.89 193.693C303.428 194.328 303.74 195.199 303.757 196.116C303.774 197.034 303.496 197.922 302.983 198.587C302.47 199.251 301.765 199.638 301.021 199.662C300.54 199.681 300.064 199.537 299.644 199.247Z" fill="#2F2E41"/>
<path d="M281.188 190.987C281.541 193.477 285.51 195.227 290.284 194.923C294.673 194.673 298.262 192.773 298.92 190.52C298.676 190.431 298.423 190.39 298.17 190.397L281.596 190.925C281.459 190.931 281.322 190.952 281.188 190.987V190.987Z" fill="#3F3D56"/>
<path d="M291.159 210.174C291.18 210.168 291.201 210.156 291.22 210.141L293.56 208.253C293.588 208.23 293.611 208.199 293.627 208.162C293.643 208.126 293.652 208.085 293.652 208.043C293.652 208.001 293.644 207.96 293.627 207.924C293.611 207.887 293.588 207.856 293.56 207.833L291.128 205.869C291.106 205.851 291.081 205.838 291.054 205.832C291.028 205.826 291.001 205.826 290.975 205.832C290.949 205.839 290.924 205.852 290.902 205.871C290.879 205.889 290.86 205.913 290.846 205.94C290.831 205.968 290.821 205.999 290.816 206.031C290.811 206.064 290.811 206.097 290.817 206.129C290.822 206.162 290.833 206.192 290.848 206.22C290.863 206.247 290.883 206.27 290.905 206.288L293.077 208.043L290.997 209.722C290.957 209.754 290.927 209.803 290.914 209.86C290.9 209.917 290.903 209.978 290.922 210.032C290.942 210.087 290.976 210.131 291.019 210.157C291.063 210.183 291.112 210.189 291.159 210.174H291.159Z" fill="#F6CB40"/>
<path d="M287.463 210.385C287.502 210.372 287.538 210.346 287.565 210.309C287.592 210.271 287.609 210.225 287.615 210.176C287.62 210.126 287.613 210.076 287.596 210.031C287.578 209.986 287.549 209.949 287.514 209.924L285.358 208.399L287.442 206.49C287.464 206.47 287.482 206.446 287.495 206.417C287.509 206.389 287.518 206.358 287.522 206.325C287.526 206.293 287.524 206.259 287.518 206.228C287.511 206.196 287.5 206.166 287.484 206.139C287.468 206.113 287.448 206.091 287.425 206.074C287.402 206.057 287.377 206.046 287.351 206.041C287.324 206.036 287.297 206.038 287.271 206.046C287.245 206.054 287.221 206.068 287.2 206.088L284.866 208.225C284.839 208.25 284.817 208.283 284.803 208.321C284.788 208.358 284.782 208.4 284.784 208.441C284.786 208.483 284.796 208.523 284.814 208.559C284.832 208.594 284.857 208.623 284.886 208.644L287.312 210.359C287.358 210.391 287.412 210.401 287.463 210.385V210.385Z" fill="#F6CB40"/>
<path d="M290.926 211.83C290.946 211.823 290.964 211.814 290.982 211.801C291.004 211.783 291.024 211.761 291.04 211.734C291.056 211.708 291.067 211.678 291.074 211.646C291.08 211.614 291.081 211.58 291.077 211.548C291.073 211.515 291.064 211.484 291.05 211.456L287.733 204.731C287.705 204.675 287.66 204.634 287.607 204.618C287.555 204.603 287.499 204.613 287.453 204.648C287.407 204.683 287.374 204.738 287.362 204.803C287.349 204.867 287.357 204.936 287.385 204.992L290.702 211.717C290.725 211.763 290.759 211.798 290.799 211.819C290.839 211.839 290.884 211.843 290.926 211.83Z" fill="#F6CB40"/>
<path d="M104.457 130.811H86.4843C85.7511 130.811 85.1568 131.544 85.1568 132.448V134.613C85.1568 135.517 85.7511 136.25 86.4843 136.25H104.457C105.19 136.25 105.784 135.517 105.784 134.613V132.448C105.784 131.544 105.19 130.811 104.457 130.811Z" fill="#F6CB40"/>
<path d="M114.933 141.689H76.0083C75.2751 141.689 74.6808 142.422 74.6808 143.326V145.492C74.6808 146.396 75.2751 147.129 76.0083 147.129H114.933C115.666 147.129 116.26 146.396 116.26 145.492V143.326C116.26 142.422 115.666 141.689 114.933 141.689Z" fill="#E6E6E6"/>
<path d="M114.933 152.568H76.0083C75.2751 152.568 74.6808 153.301 74.6808 154.205V156.37C74.6808 157.274 75.2751 158.007 76.0083 158.007H114.933C115.666 158.007 116.26 157.274 116.26 156.37V154.205C116.26 153.301 115.666 152.568 114.933 152.568Z" fill="#E6E6E6"/>
<path d="M118.232 188.997L118.321 189.34L118.325 189.351L120.979 199.3L124.032 210.766L129.775 232.312L129.831 235.659V235.67L130.258 262.594L129.075 266.244L130.406 272.229C130.406 272.229 129.794 263.183 126.509 268.377C124.649 271.33 122.473 274.35 120.687 277.182C123.289 278.481 125.934 279.656 128.62 280.707C129.2 280.936 129.785 281.153 130.369 281.37C130.495 281.416 130.62 281.462 130.745 281.508C139.65 284.755 148.855 286.58 158.137 286.937C158.619 286.954 159.093 286.966 159.552 286.977C159.714 286.983 159.872 286.989 160.03 286.989C160.549 286.994 161.064 287 161.584 287C162.632 287 163.676 286.981 164.716 286.943C172.408 286.675 180.055 285.4 187.528 283.138C187.477 279.334 187.338 274.888 187.138 270.14C187.045 267.811 184.962 265.288 184.837 262.851C184.749 261.02 186.619 259.298 186.521 257.439C185.89 245.99 185.102 250.385 184.517 242.278C184.457 241.483 184.401 240.722 184.35 239.995C183.974 234.789 183.714 231.534 183.714 231.534L186.21 212.133L190.131 181.673L189.829 181.061L189.491 180.855L168.812 168.234L167.69 164.687C167.362 163.665 166.795 162.787 166.06 162.167C165.325 161.546 164.456 161.21 163.565 161.203L149.943 161.134C149.236 161.13 148.539 161.334 147.909 161.729C147.279 162.124 146.734 162.699 146.32 163.406L142.632 169.705L118.232 188.997Z" fill="#3F3D56"/>
<path d="M132.916 227.517L129.831 235.659L127.725 241.22L124.101 264.614L122.287 266.988L120.733 258.583L104.466 263.037C103.932 259.381 104.323 263.16 103.994 259.15C104.087 259.035 104.184 258.921 104.281 258.807C104.541 258.509 104.759 258.229 104.755 257.96C104.569 244.126 105.126 220.583 109.775 206.32C110.503 203.992 111.463 201.783 112.632 199.747C112.725 199.592 112.813 199.438 112.902 199.283C115.045 195.582 116.4 191.937 118.321 189.346V189.34C118.332 189.328 118.343 189.315 118.353 189.3C118.36 189.295 118.366 189.29 118.372 189.283L131.566 180.655L132.132 200.267L132.536 214.364L132.916 227.517Z" fill="#3F3D56"/>
<path d="M180.494 229.83L184.348 239.998L185.693 243.539L189.316 266.931L191.124 269.3L192.682 260.897L193.414 260.711L206.614 257.34L210.462 272.409C211.329 270.627 211.671 268.531 211.429 266.474C211.188 264.417 210.377 262.527 209.136 261.122C208.873 260.829 208.654 260.543 208.66 260.273C208.879 244.002 208.072 214.292 200.783 202.063C198.469 198.183 197.08 194.318 195.059 191.617C195.053 191.61 195.053 191.602 195.046 191.602L190.129 181.673L189.829 181.063L189.491 180.855L180.494 229.83Z" fill="#3F3D56"/>
<path d="M157.148 156.354C167.156 156.354 175.269 146.349 175.269 134.007C175.269 121.665 167.156 111.66 157.148 111.66C147.139 111.66 139.026 121.665 139.026 134.007C139.026 146.349 147.139 156.354 157.148 156.354Z" fill="#FFB6B6"/>
<path d="M181.641 118.398C181.501 118.213 181.332 118.064 181.144 117.962C180.956 117.859 180.753 117.805 180.547 117.801L180.82 116.868C180.909 116.574 180.933 116.257 180.889 115.948C180.846 115.638 180.737 115.349 180.573 115.109C180.409 114.87 180.196 114.688 179.957 114.583C179.717 114.477 179.459 114.453 179.209 114.511L178.217 114.747L178.311 113.929C178.346 113.625 178.317 113.314 178.226 113.028C178.135 112.741 177.985 112.489 177.791 112.295C177.597 112.102 177.366 111.975 177.119 111.925C176.873 111.876 176.621 111.906 176.387 112.013C176.174 112.117 175.945 112.16 175.717 112.14C175.489 112.12 175.268 112.037 175.069 111.898C174.87 111.763 174.696 111.576 174.561 111.35C174.427 111.124 174.333 110.864 174.288 110.589L173.943 108.533L173.906 108.422C172.222 104.962 168.985 102.444 165.024 101.521C161.498 100.694 157.882 101.115 154.397 101.511C153.014 101.672 151.452 101.852 150.151 102.835C149.044 103.678 148.109 105.363 148.3 107.063C144.864 105.764 141.179 108.357 139.353 111.627C137.189 115.519 136.835 120.394 136.778 124.205C136.624 133.223 138.133 140.6 141.252 146.137C141.48 146.538 141.537 147.376 141.988 147.657L141.895 147.471C142.399 147.782 142.911 148.283 142.72 148.82C142.171 150.365 145.819 153.78 148.39 154.909C153.079 156.97 159.314 156.794 163.698 156.052L163.852 154.773C165.434 154.507 166.549 154.001 166.862 153.208C167.415 152.627 167.887 152.105 168.298 151.624L168.302 151.619C168.31 151.609 168.326 151.593 168.334 151.583C170.315 149.241 170.774 147.907 170.982 145.876C171.181 143.885 170.827 141.864 170.465 140.043C178.087 141.498 167.464 130.033 174.565 127.816C174.646 127.785 174.729 127.76 174.813 127.741C175.02 127.681 175.228 127.621 175.427 127.551C176.388 127.229 177.307 126.745 178.16 126.111C180.145 124.622 180.8 122.646 181.824 120.419C181.972 120.102 182.034 119.735 182.001 119.371C181.969 119.008 181.842 118.667 181.641 118.398Z" fill="#2F2E41"/>
<path d="M221.242 231.421C221.238 232.298 221.23 233.527 221.197 235.047C221.193 235.257 221.189 235.473 221.185 235.694C221.132 238.487 221.079 240.829 220.994 243.432C220.99 243.613 220.986 243.788 220.977 243.969C220.864 247.6 220.685 251.828 220.376 258.523C219.802 270.891 218.802 260.223 217.797 264.561C217.748 264.777 217.695 265.033 217.647 265.334C217.494 266.425 217.238 267.491 216.882 268.508C216.349 268.9 215.8 269.276 215.259 269.652C213.718 270.71 212.152 271.728 210.574 272.696C209.687 273.238 208.797 273.769 207.902 274.281C207.76 274.361 207.621 274.441 207.483 274.517C202.901 277.13 198.179 279.352 193.35 281.167C192.407 281.518 191.467 281.859 190.516 282.175C189.523 282.516 188.531 282.837 187.526 283.138C180.053 285.4 172.406 286.676 164.715 286.944C163.678 286.984 162.632 286.999 161.583 286.999C161.062 286.999 160.55 286.994 160.029 286.989C159.871 286.989 159.712 286.984 159.554 286.979C159.094 286.964 158.618 286.954 158.138 286.939C148.857 286.582 139.651 284.757 130.747 281.508L130.369 281.372C129.783 281.152 129.202 280.936 128.62 280.705C125.936 279.657 123.291 278.484 120.685 277.185C118.696 276.197 116.731 275.137 114.788 274.005C114.77 273.999 114.754 273.989 114.739 273.975C114.333 273.744 113.922 273.503 113.515 273.258C113.462 273.223 113.405 273.188 113.348 273.152C111.831 272.24 110.331 271.283 108.846 270.284C107.598 266.748 105.841 266.071 104.751 262.961C104.433 262.038 104.204 261.072 104.067 260.083C104.067 260.073 104.063 260.063 104.063 260.048C104.177 261.913 103.579 256.738 104.059 260.028C104.055 259.967 104.051 259.902 104.047 259.827C104.035 259.646 104.019 259.426 103.994 259.15C102.599 242.354 102.689 223.146 102.083 207.318C102.042 206.295 102 205.315 101.957 204.379C101.944 204.068 101.928 203.762 101.912 203.461C101.94 203.371 101.973 203.275 102.01 203.185C102.017 203.159 102.027 203.134 102.038 203.11C102.05 203.079 102.064 203.049 102.079 203.02C102.087 203.005 102.099 202.984 102.107 202.969C102.113 202.952 102.12 202.935 102.127 202.919C102.164 202.849 102.205 202.774 102.249 202.704C102.27 202.674 102.286 202.648 102.306 202.623C102.32 202.598 102.337 202.574 102.355 202.553C102.368 202.529 102.383 202.507 102.4 202.488C102.416 202.468 102.432 202.443 102.453 202.418C102.462 202.402 102.473 202.388 102.485 202.378C102.518 202.332 102.553 202.29 102.591 202.252C102.736 202.088 102.891 201.937 103.055 201.801C103.112 201.756 103.173 201.711 103.23 201.66C103.639 201.358 104.071 201.103 104.519 200.898C104.673 200.828 104.828 200.763 104.995 200.693C105.056 200.672 105.113 200.647 105.174 200.622C105.263 200.587 105.353 200.552 105.446 200.527C105.91 200.357 106.41 200.211 106.951 200.076C107.016 200.061 107.085 200.046 107.154 200.025C107.252 200 107.354 199.98 107.455 199.96C107.594 199.93 107.736 199.9 107.878 199.87C109.086 199.634 110.457 199.459 111.97 199.343C112.112 199.333 112.254 199.323 112.397 199.313C112.563 199.303 112.73 199.293 112.901 199.283C113.043 199.273 113.19 199.268 113.336 199.263C113.478 199.253 113.625 199.248 113.775 199.243C114.186 199.228 114.609 199.213 115.04 199.203C116.268 199.173 117.562 199.183 118.92 199.218C119.551 199.238 120.193 199.258 120.852 199.293C120.897 199.293 120.937 199.298 120.978 199.298C121.551 199.323 122.129 199.353 122.723 199.394C123.138 199.419 123.557 199.444 123.975 199.474C124.37 199.504 124.768 199.534 125.171 199.569C125.484 199.589 125.797 199.619 126.115 199.644C126.383 199.669 126.651 199.694 126.92 199.715L127.286 199.745C127.485 199.765 127.685 199.78 127.888 199.805C128.335 199.85 128.783 199.895 129.238 199.94C129.69 199.99 130.149 200.041 130.609 200.091C131.068 200.141 131.532 200.196 131.996 200.251C132.044 200.256 132.089 200.261 132.134 200.266C132.557 200.321 132.98 200.372 133.407 200.427C133.504 200.437 133.606 200.447 133.704 200.462C134.111 200.512 134.526 200.571 134.937 200.625C135.063 200.642 135.188 200.658 135.315 200.675C135.637 200.718 135.954 200.756 136.278 200.803C136.705 200.863 137.14 200.918 137.563 200.988C137.893 201.034 138.222 201.079 138.551 201.129C139.068 201.204 139.593 201.284 140.117 201.37C140.317 201.4 140.516 201.43 140.715 201.465C142.212 201.696 143.725 201.951 145.262 202.217C147.592 202.623 149.959 203.065 152.343 203.541C154.73 204.018 157.131 204.521 159.545 205.051C160.155 205.186 160.765 205.322 161.38 205.462C161.656 205.527 161.933 205.592 162.209 205.658C162.681 205.763 163.153 205.873 163.625 205.984C164.096 206.094 164.568 206.204 165.04 206.32C165.601 206.455 166.166 206.59 166.728 206.726C170.425 207.629 174.101 208.591 177.688 209.6C178.278 209.765 178.868 209.936 179.453 210.101C180.625 210.437 181.785 210.778 182.935 211.124C183.252 211.214 183.565 211.31 183.878 211.405C184.659 211.646 185.44 211.886 186.209 212.132L186.343 212.177C186.908 212.348 187.461 212.523 188.014 212.704C189.32 213.125 190.604 213.552 191.866 213.983C192.704 214.269 193.532 214.558 194.351 214.85C195.575 215.287 196.775 215.728 197.942 216.174C198.231 216.285 198.519 216.395 198.804 216.5C199.658 216.826 200.5 217.157 201.318 217.488C201.968 217.749 202.603 218.015 203.229 218.281C203.855 218.547 204.469 218.812 205.071 219.078C205.458 219.249 205.84 219.429 206.222 219.6C206.771 219.851 207.312 220.101 207.841 220.352C208.004 220.427 208.162 220.508 208.321 220.583C208.423 220.638 208.52 220.683 208.618 220.733C208.809 220.829 209.004 220.919 209.191 221.014C209.382 221.104 209.57 221.2 209.757 221.3C209.94 221.39 210.127 221.486 210.306 221.581C210.489 221.671 210.668 221.766 210.847 221.867C210.997 221.942 211.143 222.022 211.286 222.102C211.575 222.258 211.863 222.413 212.144 222.574C212.282 222.654 212.42 222.729 212.559 222.81L212.876 222.99C212.921 223.02 212.965 223.045 213.01 223.07C213.112 223.131 213.218 223.196 213.319 223.256C213.555 223.391 213.787 223.537 214.015 223.672C214.32 223.863 214.617 224.053 214.901 224.239C215.19 224.43 215.471 224.62 215.739 224.806C215.784 224.836 215.825 224.866 215.869 224.896C215.93 224.936 215.991 224.981 216.052 225.021C216.26 225.167 216.459 225.317 216.658 225.463C217.049 225.759 217.419 226.049 217.765 226.34C217.842 226.406 217.915 226.471 217.992 226.531C218.248 226.757 218.493 226.977 218.72 227.203C218.72 227.208 218.72 227.208 218.724 227.208C218.802 227.278 218.875 227.353 218.948 227.424C219.009 227.494 219.074 227.554 219.135 227.624C219.347 227.85 219.542 228.065 219.721 228.286C219.781 228.354 219.838 228.426 219.892 228.502C219.915 228.526 219.937 228.553 219.957 228.582C220.038 228.682 220.111 228.783 220.18 228.883C220.191 228.897 220.201 228.912 220.209 228.928C220.306 229.069 220.396 229.209 220.481 229.349C220.522 229.42 220.567 229.49 220.603 229.56C220.652 229.645 220.701 229.736 220.742 229.821C220.778 229.891 220.811 229.966 220.843 230.037C220.93 230.217 221.003 230.407 221.063 230.603C221.109 230.736 221.145 230.874 221.173 231.014C221.203 231.148 221.227 231.284 221.242 231.421V231.421Z" fill="#2F2E41"/>
<path opacity="0.2" d="M221.242 231.421C221.238 232.298 221.23 233.527 221.197 235.047C221.193 235.257 221.185 235.473 221.181 235.694C221.14 237.825 221.079 240.458 220.994 243.432C220.99 243.613 220.986 243.788 220.978 243.969C220.864 247.6 220.685 251.828 220.376 258.523C219.802 270.891 218.802 260.223 217.797 264.561C215.007 262.445 211.949 260.228 208.679 257.951C208.089 257.54 207.494 257.127 206.893 256.713C200.354 252.214 193.049 247.5 185.424 242.83C185.123 242.645 184.818 242.459 184.517 242.279C167.049 231.631 147.983 221.275 132.536 214.364C129.555 213.03 126.708 211.826 124.032 210.768C118.395 208.546 113.523 206.992 109.773 206.32C105.869 205.617 103.173 205.868 102.083 207.318C102.042 206.295 102 205.315 101.957 204.379C101.94 204.068 101.924 203.762 101.908 203.461C101.933 203.378 101.966 203.3 101.997 203.22C102.002 203.209 102.005 203.197 102.01 203.185C102.017 203.159 102.027 203.134 102.038 203.11C102.05 203.079 102.064 203.049 102.079 203.02C102.092 202.984 102.108 202.95 102.127 202.919C102.164 202.849 102.205 202.774 102.249 202.704C102.282 202.651 102.318 202.601 102.355 202.553C102.368 202.529 102.383 202.507 102.4 202.488C102.416 202.468 102.433 202.443 102.453 202.418C102.462 202.402 102.473 202.388 102.485 202.378C102.518 202.332 102.553 202.29 102.591 202.252C102.736 202.088 102.891 201.937 103.055 201.801C103.112 201.756 103.173 201.711 103.23 201.66C103.64 201.358 104.071 201.103 104.519 200.898C104.673 200.828 104.828 200.763 104.995 200.693C105.056 200.672 105.113 200.647 105.174 200.622C105.263 200.587 105.353 200.552 105.446 200.527C105.91 200.357 106.41 200.211 106.951 200.076C107.114 200.036 107.284 199.995 107.455 199.96C107.594 199.93 107.736 199.9 107.878 199.87C109.086 199.634 110.457 199.459 111.97 199.343C112.112 199.333 112.254 199.323 112.397 199.313C112.563 199.303 112.73 199.293 112.901 199.283C113.043 199.273 113.19 199.268 113.336 199.263C113.478 199.253 113.625 199.248 113.775 199.243C114.186 199.228 114.609 199.213 115.04 199.203C116.268 199.178 117.562 199.188 118.92 199.223C119.551 199.238 120.193 199.263 120.852 199.298C120.893 199.298 120.937 199.303 120.978 199.303C121.551 199.323 122.133 199.358 122.723 199.394C123.138 199.419 123.557 199.444 123.975 199.474C124.37 199.504 124.768 199.534 125.171 199.569C125.484 199.589 125.797 199.619 126.115 199.644C126.383 199.669 126.651 199.694 126.92 199.715C127.241 199.745 127.563 199.775 127.888 199.805C128.335 199.85 128.783 199.895 129.238 199.94C129.69 199.99 130.149 200.041 130.609 200.091C131.068 200.141 131.532 200.196 131.996 200.251C132.044 200.256 132.089 200.261 132.134 200.266C132.557 200.321 132.98 200.372 133.407 200.427C135.774 200.723 138.21 201.069 140.715 201.465C142.212 201.701 143.727 201.953 145.262 202.222C147.592 202.628 149.96 203.07 152.343 203.541C154.73 204.018 157.131 204.521 159.545 205.051C160.155 205.186 160.766 205.322 161.38 205.462C162.128 205.633 162.876 205.806 163.625 205.984C164.096 206.094 164.568 206.204 165.04 206.32C165.601 206.455 166.167 206.59 166.728 206.726C170.425 207.629 174.101 208.592 177.688 209.6C178.278 209.765 178.868 209.936 179.453 210.101C180.625 210.437 181.785 210.778 182.935 211.124C183.252 211.219 183.565 211.315 183.878 211.41C184.663 211.651 185.44 211.892 186.209 212.132V212.137C186.253 212.147 186.298 212.162 186.343 212.177C186.904 212.353 187.461 212.528 188.014 212.709C189.32 213.13 190.604 213.555 191.866 213.983C192.704 214.274 193.533 214.56 194.351 214.851C195.575 215.292 196.775 215.733 197.942 216.175C198.231 216.285 198.52 216.395 198.804 216.501C199.658 216.832 200.496 217.161 201.318 217.489C201.968 217.749 202.603 218.015 203.229 218.281C203.855 218.547 204.47 218.813 205.071 219.078C205.462 219.249 205.844 219.424 206.222 219.595C206.776 219.846 207.312 220.096 207.841 220.352C208.004 220.427 208.162 220.508 208.321 220.583C208.618 220.723 208.907 220.869 209.191 221.014C209.382 221.104 209.57 221.2 209.757 221.3C209.94 221.39 210.127 221.486 210.306 221.581C210.489 221.671 210.668 221.767 210.847 221.867C210.997 221.942 211.144 222.022 211.286 222.103C211.575 222.258 211.863 222.413 212.144 222.574C212.282 222.654 212.421 222.729 212.559 222.81L212.876 222.99C212.921 223.02 212.966 223.045 213.01 223.07C213.356 223.271 213.689 223.472 214.015 223.672C214.32 223.863 214.617 224.053 214.901 224.239C215.239 224.46 215.56 224.675 215.869 224.896C215.93 224.936 215.991 224.981 216.052 225.021C216.26 225.167 216.459 225.317 216.658 225.463C217.049 225.759 217.419 226.049 217.765 226.34C218.106 226.631 218.423 226.917 218.72 227.203C218.72 227.208 218.72 227.208 218.724 227.208C218.867 227.348 219.005 227.489 219.135 227.624C219.347 227.85 219.542 228.066 219.721 228.286C219.781 228.354 219.838 228.426 219.892 228.502C219.915 228.526 219.937 228.553 219.957 228.582C220.042 228.698 220.128 228.813 220.209 228.928C220.306 229.069 220.396 229.209 220.481 229.349C220.522 229.42 220.567 229.49 220.603 229.56C220.652 229.645 220.701 229.736 220.742 229.821C220.778 229.891 220.811 229.966 220.843 230.037C220.93 230.217 221.003 230.407 221.063 230.603C221.107 230.737 221.144 230.874 221.173 231.015C221.204 231.148 221.227 231.284 221.242 231.421V231.421Z" fill="black"/>
</svg>
