<svg width="287" height="286" viewBox="0 0 287 286" fill="none" xmlns="http://www.w3.org/2000/svg">
<g clip-path="url(#clip0_29_123)">
<path d="M287 143C287.05 176.756 275.068 209.432 253.191 235.203C252.396 236.143 251.587 237.068 250.763 237.989C241.063 248.859 229.764 258.201 217.251 265.693C214.381 267.41 211.448 269.028 208.452 270.547C208.149 270.701 207.842 270.854 207.539 271.002C207.176 271.185 206.809 271.364 206.441 271.542C198.861 275.239 190.964 278.256 182.846 280.557C182.002 280.795 181.156 281.026 180.308 281.25C169.629 284.066 158.659 285.641 147.616 285.946C147.04 285.96 146.474 285.97 145.928 285.98C145.734 285.985 145.546 285.99 145.357 285.99C144.736 285.995 144.121 286 143.5 286C131.863 286.009 120.268 284.608 108.971 281.829C107.838 281.552 106.711 281.26 105.589 280.953C99.6781 279.345 93.878 277.356 88.2252 275C85.2459 273.763 82.3196 272.429 79.4463 270.997C78.7959 270.671 78.1454 270.344 77.5049 270.008C77.2318 269.874 76.9636 269.731 76.6955 269.592C61.3814 261.537 47.6481 250.8 36.153 237.895C35.3586 237.009 34.579 236.108 33.8094 235.203C21.144 220.238 11.6964 202.842 6.05183 184.092C0.407244 165.341 -1.31419 145.635 0.994166 126.194C3.30252 106.754 9.5915 87.9925 19.4716 71.0724C29.3517 54.1522 42.6125 39.4336 58.4328 27.8281C59.2471 27.2294 60.0664 26.6356 60.8956 26.0567C61.0595 25.9429 61.2233 25.8291 61.3872 25.7153C75.9573 15.5449 92.3108 8.18546 109.601 4.01785C110.584 3.77539 111.567 3.54778 112.561 3.33501C131.289 -0.747317 150.644 -1.08537 169.504 2.34044C170.492 2.52352 171.48 2.71155 172.463 2.91442C189.599 6.41694 205.942 13.0304 220.677 22.4248C221.005 22.6326 221.333 22.8404 221.66 23.0581C222.321 23.4837 222.981 23.9191 223.632 24.3595C243.151 37.4364 259.141 55.0989 270.192 75.7891C281.243 96.4793 287.016 119.562 287 143Z" fill="#F2F2F2"/>
<path d="M107.253 216.979L61.3872 221.036L60.8956 221.081V26.0567C61.0595 25.9429 61.2233 25.8291 61.3872 25.7153C70.946 19.0525 81.2861 13.5789 92.1776 9.41626L94.5213 41.6284L94.7348 44.5774L97.0536 76.5223L97.7687 86.3493L107.168 215.841L107.253 216.979Z" fill="#CCCCCC"/>
<path d="M220.677 22.4248C221.005 22.6326 221.333 22.8404 221.66 23.0581V221.081L220.677 220.992L175.308 216.979L175.393 215.841L184.792 86.3492L185.507 76.5223L187.826 44.5774L188.04 41.6283L190.498 7.84766C201.097 11.5089 211.227 16.4017 220.677 22.4248Z" fill="#CCCCCC"/>
<path d="M220.677 22.4248V223.783C220.677 227.647 218.006 230.789 214.719 230.789H67.3457C64.6246 230.789 62.3157 228.632 61.6156 225.688C61.4628 225.064 61.3861 224.424 61.3872 223.783V25.7153C61.2233 25.8291 61.0595 25.9429 60.8956 26.0567C60.0664 26.6356 59.2471 27.2294 58.4328 27.8281V223.783C58.3888 226.718 59.4888 229.556 61.5014 231.7C62.5568 232.801 63.8916 233.598 65.3645 234.005C66.0102 234.18 66.6765 234.269 67.3457 234.268H214.719C215.389 234.268 216.057 234.18 216.705 234.005C220.667 232.942 223.632 228.765 223.632 223.783V24.3595C222.981 23.9191 222.321 23.4837 221.66 23.0582C221.333 22.8404 221.005 22.6326 220.677 22.4248Z" fill="#CCCCCC"/>
<path d="M222.156 41.6304H59.9101V44.5789H222.156V41.6304Z" fill="#CCCCCC"/>
<path d="M109.601 4.01779C110.584 3.77534 111.568 3.54773 112.561 3.33496V83.4001H109.601V4.01779Z" fill="#CCCCCC"/>
<path d="M169.504 2.34045C170.492 2.52353 171.48 2.71156 172.463 2.91444V83.4002H169.504V2.34045Z" fill="#CCCCCC"/>
<path d="M240.648 215.841H46.347C42.8151 215.841 39.4278 217.239 36.9304 219.728C34.4329 222.217 33.0298 225.592 33.0298 229.112C33.0298 232.631 34.4329 236.007 36.9304 238.496C39.4278 240.984 42.8151 242.383 46.347 242.383H240.648C242.539 242.383 244.409 241.981 246.132 241.204C247.855 240.426 249.391 239.291 250.638 237.875C251.203 237.234 251.705 236.542 252.138 235.807C252.473 235.243 252.764 234.654 253.007 234.045C253.818 232.032 254.121 229.851 253.89 227.694C253.658 225.536 252.899 223.469 251.679 221.672C250.46 219.875 248.816 218.404 246.893 217.387C244.969 216.37 242.825 215.84 240.648 215.841Z" fill="#CCCCCC"/>
<path d="M222.156 76.5217H60.8964V86.3503H222.156V76.5217Z" fill="#CCCCCC"/>
<path d="M140.047 73.5732H143.005C143.718 73.5732 144.423 73.7131 145.081 73.9847C145.74 74.2564 146.338 74.6546 146.841 75.1565C147.345 75.6585 147.745 76.2544 148.017 76.9103C148.29 77.5661 148.43 78.2691 148.43 78.979H134.622C134.622 77.5453 135.193 76.1703 136.211 75.1565C137.228 74.1428 138.608 73.5732 140.047 73.5732H140.047Z" fill="#CCCCCC"/>
<path d="M253.191 235.203C248.877 240.296 244.211 245.083 239.228 249.528H47.7721C42.7886 245.083 38.123 240.296 33.8094 235.203H253.191Z" fill="#3F3D56"/>
<path d="M159.528 185.588H127.293C127.119 185.586 126.946 185.613 126.782 185.667C126.432 185.775 126.126 185.992 125.908 186.286C125.691 186.58 125.574 186.935 125.575 187.3V238.048H161.251V187.3C161.251 187.075 161.206 186.852 161.12 186.644C161.033 186.436 160.906 186.247 160.746 186.088C160.586 185.929 160.396 185.803 160.187 185.718C159.978 185.632 159.754 185.588 159.528 185.588ZM147.328 210.626C147.33 211.449 147.057 212.249 146.554 212.902C146.073 213.535 145.406 214.002 144.645 214.237C143.884 214.473 143.068 214.464 142.312 214.213C141.557 213.961 140.899 213.48 140.432 212.836C139.966 212.193 139.714 211.42 139.711 210.626V204.737C139.721 203.737 140.126 202.781 140.839 202.076C141.553 201.372 142.516 200.977 143.52 200.977C144.524 200.977 145.487 201.372 146.2 202.076C146.914 202.781 147.319 203.737 147.328 204.737V210.626Z" fill="#2F2E41"/>
<path d="M125.466 236.425V241.319C125.466 241.572 125.566 241.816 125.746 241.996C125.926 242.176 126.169 242.277 126.424 242.279H160.402C160.657 242.277 160.9 242.175 161.079 241.995C161.259 241.815 161.36 241.572 161.361 241.319V236.425H125.466Z" fill="#3F3D56"/>
<path d="M212.906 106.394H75.1166C73.9327 106.395 72.7976 106.864 71.96 107.698C71.1224 108.532 70.6505 109.663 70.6477 110.842V203.5C70.6486 204.681 71.1198 205.813 71.9576 206.648C72.7955 207.483 73.9316 207.953 75.1166 207.954H212.906C214.091 207.953 215.227 207.483 216.065 206.648C216.903 205.813 217.374 204.681 217.375 203.5V110.842C217.372 109.663 216.901 108.532 216.063 107.698C215.225 106.864 214.09 106.395 212.906 106.394Z" fill="#3F3D56"/>
<path d="M211.754 109.61H76.2635C75.6297 109.612 75.0222 109.863 74.5745 110.311C74.1267 110.758 73.8752 111.364 73.8752 111.995V202.357C73.8763 202.988 74.1282 203.593 74.5759 204.039C75.0236 204.485 75.6304 204.736 76.2635 204.737H211.754C212.387 204.736 212.994 204.485 213.442 204.039C213.89 203.593 214.142 202.988 214.143 202.357V111.995C214.143 111.364 213.891 110.758 213.443 110.311C212.996 109.863 212.388 109.612 211.754 109.61Z" fill="#24A640"/>
<path d="M186.818 242.199L185.567 236.277C185.515 236.035 185.403 235.81 185.242 235.623C185.081 235.435 184.875 235.291 184.643 235.203C184.476 235.137 184.297 235.104 184.117 235.104H106.006C105.826 235.104 105.648 235.137 105.48 235.203C105.248 235.291 105.043 235.435 104.881 235.623C104.72 235.81 104.608 236.035 104.556 236.277L103.305 242.199C103.26 242.414 103.263 242.637 103.315 242.85C103.367 243.064 103.466 243.263 103.605 243.434C103.744 243.604 103.919 243.742 104.118 243.837C104.317 243.931 104.535 243.98 104.755 243.981H185.363C185.584 243.982 185.803 243.933 186.003 243.838C186.202 243.743 186.377 243.604 186.515 243.432C186.654 243.261 186.754 243.063 186.806 242.85C186.859 242.636 186.863 242.414 186.818 242.199Z" fill="#2F2E41"/>
<path d="M108.819 236.171H106.821C106.687 236.171 106.579 236.279 106.579 236.412V237.413C106.579 237.547 106.687 237.655 106.821 237.655H108.819C108.953 237.655 109.061 237.547 109.061 237.413V236.412C109.061 236.279 108.953 236.171 108.819 236.171Z" fill="#3F3D56"/>
<path d="M113.784 236.171H111.787C111.653 236.171 111.544 236.279 111.544 236.412V237.413C111.544 237.547 111.653 237.655 111.787 237.655H113.784C113.918 237.655 114.027 237.547 114.027 237.413V236.412C114.027 236.279 113.918 236.171 113.784 236.171Z" fill="#3F3D56"/>
<path d="M118.75 236.171H116.752C116.618 236.171 116.51 236.279 116.51 236.412V237.413C116.51 237.547 116.618 237.655 116.752 237.655H118.75C118.884 237.655 118.992 237.547 118.992 237.413V236.412C118.992 236.279 118.884 236.171 118.75 236.171Z" fill="#3F3D56"/>
<path d="M123.715 236.171H121.717C121.584 236.171 121.475 236.279 121.475 236.412V237.413C121.475 237.547 121.584 237.655 121.717 237.655H123.715C123.849 237.655 123.958 237.547 123.958 237.413V236.412C123.958 236.279 123.849 236.171 123.715 236.171Z" fill="#3F3D56"/>
<path d="M128.681 236.171H126.683C126.549 236.171 126.44 236.279 126.44 236.412V237.413C126.44 237.547 126.549 237.655 126.683 237.655H128.681C128.815 237.655 128.923 237.547 128.923 237.413V236.412C128.923 236.279 128.815 236.171 128.681 236.171Z" fill="#3F3D56"/>
<path d="M133.646 236.171H131.648C131.514 236.171 131.406 236.279 131.406 236.412V237.413C131.406 237.547 131.514 237.655 131.648 237.655H133.646C133.78 237.655 133.888 237.547 133.888 237.413V236.412C133.888 236.279 133.78 236.171 133.646 236.171Z" fill="#3F3D56"/>
<path d="M138.612 236.171H136.614C136.48 236.171 136.371 236.279 136.371 236.412V237.413C136.371 237.547 136.48 237.655 136.614 237.655H138.612C138.745 237.655 138.854 237.547 138.854 237.413V236.412C138.854 236.279 138.745 236.171 138.612 236.171Z" fill="#3F3D56"/>
<path d="M143.577 236.171H141.579C141.445 236.171 141.337 236.279 141.337 236.412V237.413C141.337 237.547 141.445 237.655 141.579 237.655H143.577C143.711 237.655 143.819 237.547 143.819 237.413V236.412C143.819 236.279 143.711 236.171 143.577 236.171Z" fill="#3F3D56"/>
<path d="M148.542 236.171H146.544C146.411 236.171 146.302 236.279 146.302 236.412V237.413C146.302 237.547 146.411 237.655 146.544 237.655H148.542C148.676 237.655 148.785 237.547 148.785 237.413V236.412C148.785 236.279 148.676 236.171 148.542 236.171Z" fill="#3F3D56"/>
<path d="M153.508 236.171H151.51C151.376 236.171 151.267 236.279 151.267 236.412V237.413C151.267 237.547 151.376 237.655 151.51 237.655H153.508C153.642 237.655 153.75 237.547 153.75 237.413V236.412C153.75 236.279 153.642 236.171 153.508 236.171Z" fill="#3F3D56"/>
<path d="M158.473 236.171H156.475C156.341 236.171 156.233 236.279 156.233 236.412V237.413C156.233 237.547 156.341 237.655 156.475 237.655H158.473C158.607 237.655 158.715 237.547 158.715 237.413V236.412C158.715 236.279 158.607 236.171 158.473 236.171Z" fill="#3F3D56"/>
<path d="M163.438 236.171H161.441C161.307 236.171 161.198 236.279 161.198 236.412V237.413C161.198 237.547 161.307 237.655 161.441 237.655H163.438C163.572 237.655 163.681 237.547 163.681 237.413V236.412C163.681 236.279 163.572 236.171 163.438 236.171Z" fill="#3F3D56"/>
<path d="M168.404 236.171H166.406C166.272 236.171 166.164 236.279 166.164 236.412V237.413C166.164 237.547 166.272 237.655 166.406 237.655H168.404C168.538 237.655 168.646 237.547 168.646 237.413V236.412C168.646 236.279 168.538 236.171 168.404 236.171Z" fill="#3F3D56"/>
<path d="M173.369 236.171H171.371C171.237 236.171 171.129 236.279 171.129 236.412V237.413C171.129 237.547 171.237 237.655 171.371 237.655H173.369C173.503 237.655 173.612 237.547 173.612 237.413V236.412C173.612 236.279 173.503 236.171 173.369 236.171Z" fill="#3F3D56"/>
<path d="M178.335 236.171H176.337C176.203 236.171 176.094 236.279 176.094 236.412V237.413C176.094 237.547 176.203 237.655 176.337 237.655H178.335C178.469 237.655 178.577 237.547 178.577 237.413V236.412C178.577 236.279 178.469 236.171 178.335 236.171Z" fill="#3F3D56"/>
<path d="M183.3 236.171H181.302C181.168 236.171 181.06 236.279 181.06 236.412V237.413C181.06 237.547 181.168 237.655 181.302 237.655H183.3C183.434 237.655 183.542 237.547 183.542 237.413V236.412C183.542 236.279 183.434 236.171 183.3 236.171Z" fill="#3F3D56"/>
<path d="M108.76 238.645H106.763C106.629 238.645 106.52 238.753 106.52 238.886V239.888C106.52 240.021 106.629 240.129 106.763 240.129H108.76C108.894 240.129 109.003 240.021 109.003 239.888V238.886C109.003 238.753 108.894 238.645 108.76 238.645Z" fill="#3F3D56"/>
<path d="M113.726 238.645H111.728C111.594 238.645 111.486 238.753 111.486 238.886V239.888C111.486 240.021 111.594 240.129 111.728 240.129H113.726C113.86 240.129 113.968 240.021 113.968 239.888V238.886C113.968 238.753 113.86 238.645 113.726 238.645Z" fill="#3F3D56"/>
<path d="M118.691 238.645H116.693C116.559 238.645 116.451 238.753 116.451 238.886V239.888C116.451 240.021 116.559 240.129 116.693 240.129H118.691C118.825 240.129 118.934 240.021 118.934 239.888V238.886C118.934 238.753 118.825 238.645 118.691 238.645Z" fill="#3F3D56"/>
<path d="M123.657 238.645H121.659C121.525 238.645 121.416 238.753 121.416 238.886V239.888C121.416 240.021 121.525 240.129 121.659 240.129H123.657C123.79 240.129 123.899 240.021 123.899 239.888V238.886C123.899 238.753 123.79 238.645 123.657 238.645Z" fill="#3F3D56"/>
<path d="M128.622 238.645H126.624C126.49 238.645 126.382 238.753 126.382 238.886V239.888C126.382 240.021 126.49 240.129 126.624 240.129H128.622C128.756 240.129 128.864 240.021 128.864 239.888V238.886C128.864 238.753 128.756 238.645 128.622 238.645Z" fill="#3F3D56"/>
<path d="M133.587 238.645H131.59C131.456 238.645 131.347 238.753 131.347 238.886V239.888C131.347 240.021 131.456 240.129 131.59 240.129H133.587C133.721 240.129 133.83 240.021 133.83 239.888V238.886C133.83 238.753 133.721 238.645 133.587 238.645Z" fill="#3F3D56"/>
<path d="M138.553 238.645H136.555C136.421 238.645 136.312 238.753 136.312 238.886V239.888C136.312 240.021 136.421 240.129 136.555 240.129H138.553C138.687 240.129 138.795 240.021 138.795 239.888V238.886C138.795 238.753 138.687 238.645 138.553 238.645Z" fill="#3F3D56"/>
<path d="M143.518 238.645H141.52C141.386 238.645 141.278 238.753 141.278 238.886V239.888C141.278 240.021 141.386 240.129 141.52 240.129H143.518C143.652 240.129 143.761 240.021 143.761 239.888V238.886C143.761 238.753 143.652 238.645 143.518 238.645Z" fill="#3F3D56"/>
<path d="M148.484 238.645H146.486C146.352 238.645 146.243 238.753 146.243 238.886V239.888C146.243 240.021 146.352 240.129 146.486 240.129H148.484C148.617 240.129 148.726 240.021 148.726 239.888V238.886C148.726 238.753 148.617 238.645 148.484 238.645Z" fill="#3F3D56"/>
<path d="M153.449 238.645H151.451C151.317 238.645 151.209 238.753 151.209 238.886V239.888C151.209 240.021 151.317 240.129 151.451 240.129H153.449C153.583 240.129 153.691 240.021 153.691 239.888V238.886C153.691 238.753 153.583 238.645 153.449 238.645Z" fill="#3F3D56"/>
<path d="M158.414 238.645H156.416C156.283 238.645 156.174 238.753 156.174 238.886V239.888C156.174 240.021 156.283 240.129 156.416 240.129H158.414C158.548 240.129 158.657 240.021 158.657 239.888V238.886C158.657 238.753 158.548 238.645 158.414 238.645Z" fill="#3F3D56"/>
<path d="M163.38 238.645H161.382C161.248 238.645 161.14 238.753 161.14 238.886V239.888C161.14 240.021 161.248 240.129 161.382 240.129H163.38C163.514 240.129 163.622 240.021 163.622 239.888V238.886C163.622 238.753 163.514 238.645 163.38 238.645Z" fill="#3F3D56"/>
<path d="M168.345 238.645H166.347C166.213 238.645 166.105 238.753 166.105 238.886V239.888C166.105 240.021 166.213 240.129 166.347 240.129H168.345C168.479 240.129 168.588 240.021 168.588 239.888V238.886C168.588 238.753 168.479 238.645 168.345 238.645Z" fill="#3F3D56"/>
<path d="M173.311 238.645H171.313C171.179 238.645 171.07 238.753 171.07 238.886V239.888C171.07 240.021 171.179 240.129 171.313 240.129H173.311C173.444 240.129 173.553 240.021 173.553 239.888V238.886C173.553 238.753 173.444 238.645 173.311 238.645Z" fill="#3F3D56"/>
<path d="M178.276 238.645H176.278C176.144 238.645 176.036 238.753 176.036 238.886V239.888C176.036 240.021 176.144 240.129 176.278 240.129H178.276C178.41 240.129 178.518 240.021 178.518 239.888V238.886C178.518 238.753 178.41 238.645 178.276 238.645Z" fill="#3F3D56"/>
<path d="M183.241 238.645H181.244C181.11 238.645 181.001 238.753 181.001 238.886V239.888C181.001 240.021 181.11 240.129 181.244 240.129H183.241C183.375 240.129 183.484 240.021 183.484 239.888V238.886C183.484 238.753 183.375 238.645 183.241 238.645Z" fill="#3F3D56"/>
<path d="M149.973 241.614H130.596C130.463 241.614 130.354 241.722 130.354 241.855V242.856C130.354 242.99 130.463 243.098 130.596 243.098H149.973C150.107 243.098 150.216 242.99 150.216 242.856V241.855C150.216 241.722 150.107 241.614 149.973 241.614Z" fill="#3F3D56"/>
<path d="M204.946 122.058H78.1676C78.0359 122.055 77.9104 122.001 77.8182 121.907C77.7261 121.813 77.6744 121.687 77.6744 121.556C77.6744 121.424 77.7261 121.298 77.8182 121.204C77.9104 121.11 78.0359 121.056 78.1676 121.053H204.946C205.078 121.056 205.203 121.11 205.295 121.204C205.387 121.298 205.439 121.424 205.439 121.556C205.439 121.687 205.387 121.813 205.295 121.907C205.203 122.001 205.078 122.055 204.946 122.058Z" fill="#3F3D56"/>
<path d="M86.7976 118.488C88.4294 118.488 89.7523 117.14 89.7523 115.478C89.7523 113.816 88.4294 112.468 86.7976 112.468C85.1659 112.468 83.843 113.816 83.843 115.478C83.843 117.14 85.1659 118.488 86.7976 118.488Z" fill="#3F3D56"/>
<path d="M97.0045 118.488C98.6363 118.488 99.9591 117.14 99.9591 115.478C99.9591 113.816 98.6363 112.468 97.0045 112.468C95.3727 112.468 94.0499 113.816 94.0499 115.478C94.0499 117.14 95.3727 118.488 97.0045 118.488Z" fill="#3F3D56"/>
<path d="M107.211 118.488C108.843 118.488 110.166 117.14 110.166 115.478C110.166 113.816 108.843 112.468 107.211 112.468C105.58 112.468 104.257 113.816 104.257 115.478C104.257 117.14 105.58 118.488 107.211 118.488Z" fill="#3F3D56"/>
<path d="M198.8 113.212H191.55C191.407 113.216 191.271 113.275 191.17 113.377C191.07 113.479 191.014 113.616 191.014 113.759C191.014 113.902 191.07 114.039 191.17 114.141C191.271 114.244 191.407 114.303 191.55 114.306H198.8C198.944 114.304 199.081 114.245 199.183 114.143C199.284 114.041 199.341 113.903 199.341 113.759C199.341 113.615 199.284 113.478 199.183 113.375C199.081 113.273 198.944 113.214 198.8 113.212Z" fill="#3F3D56"/>
<path d="M198.8 115.266H191.55C191.407 115.269 191.27 115.328 191.17 115.43C191.07 115.532 191.013 115.67 191.013 115.813C191.013 115.956 191.07 116.093 191.17 116.195C191.27 116.297 191.407 116.356 191.55 116.359H198.8C198.944 116.358 199.082 116.299 199.183 116.197C199.285 116.095 199.342 115.957 199.342 115.813C199.342 115.669 199.285 115.531 199.183 115.428C199.082 115.326 198.944 115.268 198.8 115.266Z" fill="#3F3D56"/>
<path d="M198.8 117.319H191.55C191.407 117.323 191.271 117.382 191.17 117.484C191.07 117.586 191.014 117.723 191.014 117.866C191.014 118.009 191.07 118.146 191.17 118.248C191.271 118.35 191.407 118.41 191.55 118.413H198.8C198.944 118.411 199.081 118.352 199.183 118.25C199.284 118.148 199.341 118.01 199.341 117.866C199.341 117.722 199.284 117.584 199.183 117.482C199.081 117.38 198.944 117.321 198.8 117.319Z" fill="#3F3D56"/>
<path d="M89.0992 133.734H86.4943C85.7045 133.734 85.0643 134.372 85.0643 135.159C85.0643 135.946 85.7045 136.584 86.4943 136.584H89.0992C89.889 136.584 90.5292 135.946 90.5292 135.159C90.5292 134.372 89.889 133.734 89.0992 133.734Z" fill="#E6E6E6"/>
<path d="M118.892 133.734H116.287C115.497 133.734 114.857 134.372 114.857 135.159C114.857 135.946 115.497 136.584 116.287 136.584H118.892C119.681 136.584 120.322 135.946 120.322 135.159C120.322 134.372 119.681 133.734 118.892 133.734Z" fill="#E6E6E6"/>
<path d="M127.333 133.734H124.728C123.938 133.734 123.298 134.372 123.298 135.159C123.298 135.946 123.938 136.584 124.728 136.584H127.333C128.123 136.584 128.763 135.946 128.763 135.159C128.763 134.372 128.123 133.734 127.333 133.734Z" fill="#E6E6E6"/>
<path d="M110.788 133.496H94.5979C93.8082 133.496 93.1679 134.134 93.1679 134.921C93.1679 135.708 93.8082 136.346 94.5979 136.346H110.788C111.578 136.346 112.218 135.708 112.218 134.921C112.218 134.134 111.578 133.496 110.788 133.496Z" fill="#E6E6E6"/>
<path d="M150.511 133.496H134.321C133.531 133.496 132.891 134.134 132.891 134.921C132.891 135.708 133.531 136.346 134.321 136.346H150.511C151.301 136.346 151.941 135.708 151.941 134.921C151.941 134.134 151.301 133.496 150.511 133.496Z" fill="#E6E6E6"/>
<path d="M97.0439 140.166H94.4389C93.6492 140.166 93.0089 140.804 93.0089 141.591C93.0089 142.378 93.6492 143.016 94.4389 143.016H97.0439C97.8336 143.016 98.4739 142.378 98.4739 141.591C98.4739 140.804 97.8336 140.166 97.0439 140.166Z" fill="#E6E6E6"/>
<path d="M126.836 140.166H124.231C123.442 140.166 122.801 140.804 122.801 141.591C122.801 142.378 123.442 143.016 124.231 143.016H126.836C127.626 143.016 128.266 142.378 128.266 141.591C128.266 140.804 127.626 140.166 126.836 140.166Z" fill="#E6E6E6"/>
<path d="M135.277 140.166H132.672C131.883 140.166 131.242 140.804 131.242 141.591C131.242 142.378 131.883 143.016 132.672 143.016H135.277C136.067 143.016 136.707 142.378 136.707 141.591C136.707 140.804 136.067 140.166 135.277 140.166Z" fill="#E6E6E6"/>
<path d="M118.733 139.929H102.543C101.753 139.929 101.113 140.567 101.113 141.354C101.113 142.141 101.753 142.779 102.543 142.779H118.733C119.522 142.779 120.163 142.141 120.163 141.354C120.163 140.567 119.522 139.929 118.733 139.929Z" fill="#E6E6E6"/>
<path d="M158.456 139.929H142.266C141.476 139.929 140.836 140.567 140.836 141.354C140.836 142.141 141.476 142.779 142.266 142.779H158.456C159.246 142.779 159.886 142.141 159.886 141.354C159.886 140.567 159.246 139.929 158.456 139.929Z" fill="#E6E6E6"/>
<path d="M104.988 146.599H102.384C101.594 146.599 100.954 147.237 100.954 148.024C100.954 148.811 101.594 149.449 102.384 149.449H104.988C105.778 149.449 106.419 148.811 106.419 148.024C106.419 147.237 105.778 146.599 104.988 146.599Z" fill="#E6E6E6"/>
<path d="M134.781 146.599H132.176C131.386 146.599 130.746 147.237 130.746 148.024C130.746 148.811 131.386 149.449 132.176 149.449H134.781C135.571 149.449 136.211 148.811 136.211 148.024C136.211 147.237 135.571 146.599 134.781 146.599Z" fill="#E6E6E6"/>
<path d="M143.222 146.599H140.617C139.827 146.599 139.187 147.237 139.187 148.024C139.187 148.811 139.827 149.449 140.617 149.449H143.222C144.012 149.449 144.652 148.811 144.652 148.024C144.652 147.237 144.012 146.599 143.222 146.599Z" fill="#E6E6E6"/>
<path d="M126.677 146.361H110.487C109.697 146.361 109.057 146.999 109.057 147.786C109.057 148.573 109.697 149.211 110.487 149.211H126.677C127.467 149.211 128.107 148.573 128.107 147.786C128.107 146.999 127.467 146.361 126.677 146.361Z" fill="#E6E6E6"/>
<path d="M166.4 146.361H150.21C149.421 146.361 148.78 146.999 148.78 147.786C148.78 148.573 149.421 149.211 150.21 149.211H166.4C167.19 149.211 167.83 148.573 167.83 147.786C167.83 146.999 167.19 146.361 166.4 146.361Z" fill="#E6E6E6"/>
<path d="M112.933 153.031H110.328C109.538 153.031 108.898 153.669 108.898 154.456C108.898 155.243 109.538 155.881 110.328 155.881H112.933C113.723 155.881 114.363 155.243 114.363 154.456C114.363 153.669 113.723 153.031 112.933 153.031Z" fill="#E6E6E6"/>
<path d="M142.725 153.031H140.121C139.331 153.031 138.691 153.669 138.691 154.456C138.691 155.243 139.331 155.881 140.121 155.881H142.725C143.515 155.881 144.156 155.243 144.156 154.456C144.156 153.669 143.515 153.031 142.725 153.031Z" fill="#E6E6E6"/>
<path d="M151.167 153.031H148.562C147.772 153.031 147.132 153.669 147.132 154.456C147.132 155.243 147.772 155.881 148.562 155.881H151.167C151.956 155.881 152.597 155.243 152.597 154.456C152.597 153.669 151.956 153.031 151.167 153.031Z" fill="#E6E6E6"/>
<path d="M134.622 152.794H118.432C117.642 152.794 117.002 153.432 117.002 154.219C117.002 155.006 117.642 155.644 118.432 155.644H134.622C135.412 155.644 136.052 155.006 136.052 154.219C136.052 153.432 135.412 152.794 134.622 152.794Z" fill="#E6E6E6"/>
<path d="M118.892 178.61H116.287C115.497 178.61 114.857 179.248 114.857 180.035C114.857 180.822 115.497 181.46 116.287 181.46H118.892C119.681 181.46 120.322 180.822 120.322 180.035C120.322 179.248 119.681 178.61 118.892 178.61Z" fill="#E6E6E6"/>
<path d="M127.333 178.61H124.728C123.938 178.61 123.298 179.248 123.298 180.035C123.298 180.822 123.938 181.46 124.728 181.46H127.333C128.123 181.46 128.763 180.822 128.763 180.035C128.763 179.248 128.123 178.61 127.333 178.61Z" fill="#E6E6E6"/>
<path d="M150.511 178.847H134.321C133.531 178.847 132.891 179.485 132.891 180.272C132.891 181.059 133.531 181.697 134.321 181.697H150.511C151.301 181.697 151.941 181.059 151.941 180.272C151.941 179.485 151.301 178.847 150.511 178.847Z" fill="#E6E6E6"/>
<path d="M89.0992 178.61H86.4943C85.7045 178.61 85.0643 179.248 85.0643 180.035C85.0643 180.822 85.7045 181.46 86.4943 181.46H89.0992C89.889 181.46 90.5292 180.822 90.5292 180.035C90.5292 179.248 89.889 178.61 89.0992 178.61Z" fill="#E6E6E6"/>
<path d="M110.788 178.847H94.5979C93.8082 178.847 93.1679 179.485 93.1679 180.272C93.1679 181.059 93.8082 181.697 94.5979 181.697H110.788C111.578 181.697 112.218 181.059 112.218 180.272C112.218 179.485 111.578 178.847 110.788 178.847Z" fill="#E6E6E6"/>
<path d="M97.0439 172.177H94.4389C93.6492 172.177 93.0089 172.815 93.0089 173.602C93.0089 174.389 93.6492 175.027 94.4389 175.027H97.0439C97.8336 175.027 98.4739 174.389 98.4739 173.602C98.4739 172.815 97.8336 172.177 97.0439 172.177Z" fill="#E6E6E6"/>
<path d="M126.836 172.177H124.231C123.442 172.177 122.801 172.815 122.801 173.602C122.801 174.389 123.442 175.027 124.231 175.027H126.836C127.626 175.027 128.266 174.389 128.266 173.602C128.266 172.815 127.626 172.177 126.836 172.177Z" fill="#E6E6E6"/>
<path d="M135.277 172.177H132.672C131.883 172.177 131.242 172.815 131.242 173.602C131.242 174.389 131.883 175.027 132.672 175.027H135.277C136.067 175.027 136.707 174.389 136.707 173.602C136.707 172.815 136.067 172.177 135.277 172.177Z" fill="#E6E6E6"/>
<path d="M118.733 172.415H102.543C101.753 172.415 101.113 173.053 101.113 173.84C101.113 174.627 101.753 175.265 102.543 175.265H118.733C119.522 175.265 120.163 174.627 120.163 173.84C120.163 173.053 119.522 172.415 118.733 172.415Z" fill="#E6E6E6"/>
<path d="M104.988 165.745H102.384C101.594 165.745 100.954 166.383 100.954 167.17C100.954 167.957 101.594 168.595 102.384 168.595H104.988C105.778 168.595 106.419 167.957 106.419 167.17C106.419 166.383 105.778 165.745 104.988 165.745Z" fill="#E6E6E6"/>
<path d="M134.781 165.745H132.176C131.386 165.745 130.746 166.383 130.746 167.17C130.746 167.957 131.386 168.595 132.176 168.595H134.781C135.571 168.595 136.211 167.957 136.211 167.17C136.211 166.383 135.571 165.745 134.781 165.745Z" fill="#E6E6E6"/>
<path d="M143.222 165.745H140.617C139.827 165.745 139.187 166.383 139.187 167.17C139.187 167.957 139.827 168.595 140.617 168.595H143.222C144.012 168.595 144.652 167.957 144.652 167.17C144.652 166.383 144.012 165.745 143.222 165.745Z" fill="#E6E6E6"/>
<path d="M126.677 165.982H110.487C109.697 165.982 109.057 166.62 109.057 167.407C109.057 168.194 109.697 168.832 110.487 168.832H126.677C127.467 168.832 128.107 168.194 128.107 167.407C128.107 166.62 127.467 165.982 126.677 165.982Z" fill="#E6E6E6"/>
<path d="M112.933 159.312H110.328C109.538 159.312 108.898 159.95 108.898 160.737C108.898 161.524 109.538 162.162 110.328 162.162H112.933C113.723 162.162 114.363 161.524 114.363 160.737C114.363 159.95 113.723 159.312 112.933 159.312Z" fill="#E6E6E6"/>
<path d="M142.725 159.312H140.121C139.331 159.312 138.691 159.95 138.691 160.737C138.691 161.524 139.331 162.162 140.121 162.162H142.725C143.515 162.162 144.156 161.524 144.156 160.737C144.156 159.95 143.515 159.312 142.725 159.312Z" fill="#E6E6E6"/>
<path d="M151.167 159.312H148.562C147.772 159.312 147.132 159.95 147.132 160.737C147.132 161.524 147.772 162.162 148.562 162.162H151.167C151.956 162.162 152.597 161.524 152.597 160.737C152.597 159.95 151.956 159.312 151.167 159.312Z" fill="#E6E6E6"/>
<path d="M134.622 159.55H118.432C117.642 159.55 117.002 160.188 117.002 160.975C117.002 161.762 117.642 162.4 118.432 162.4H134.622C135.412 162.4 136.052 161.762 136.052 160.975C136.052 160.188 135.412 159.55 134.622 159.55Z" fill="#E6E6E6"/>
<path d="M206.466 271.537C206.163 271.69 205.855 271.844 205.553 271.992C197.707 275.901 191.431 278.123 182.846 280.557C182.121 272.492 181.421 258.315 180.74 249.528C180.562 247.247 180.383 245.332 180.209 243.981C180.165 243.263 180.018 242.554 179.772 241.878L179.802 243.981L179.876 249.528L180.308 281.25C169.629 284.066 158.659 285.641 147.616 285.946C147.04 285.96 146.474 285.97 145.928 285.98C145.734 285.985 145.546 285.99 145.357 285.99C144.736 285.995 144.121 286 143.5 286C131.863 286.009 120.268 284.608 108.971 281.829C109.214 273.848 109.457 259.83 109.691 249.528C109.74 247.514 109.785 245.638 109.835 243.981C109.929 240.438 110.028 237.885 110.123 237.029C110.039 237.18 109.974 237.342 109.929 237.509C109.469 239.642 109.156 241.805 108.99 243.981C108.817 245.638 108.643 247.514 108.469 249.528C107.546 260.23 106.582 274.783 105.589 280.953C99.6782 279.345 93.878 277.357 88.2252 275C85.2459 273.763 82.3197 272.429 79.4464 270.997C79.9925 267.435 80.5636 263.442 81.1495 259.3C81.6063 256.089 82.078 252.788 82.5596 249.528C83.3045 244.49 84.0691 239.552 84.8437 235.203C85.9758 228.85 87.1378 223.743 88.2897 221.398C89.3821 219.171 90.4745 216.974 91.5321 214.871C91.8996 214.134 92.267 213.407 92.6245 212.699C92.7089 212.531 92.7933 212.367 92.8777 212.204C93.6375 210.715 94.3723 209.29 95.0725 207.954C95.6733 206.811 96.2443 205.732 96.7855 204.737C98.0964 202.323 99.2086 200.398 100.033 199.181C103.479 193.972 108.609 190.094 114.572 188.191L114.721 188.151L114.825 188.196L124.979 185.089L126.464 184.633L127.462 184.327L130.977 181.66L132.889 180.21L134.681 178.849L138.187 176.192L159.891 177.523L164.116 187.662L173.58 191.11L173.744 191.036L173.888 190.977L174.037 191.016C179.999 192.921 185.128 196.799 188.576 202.006C189.043 202.704 189.609 203.624 190.249 204.737C190.795 205.683 191.391 206.761 192.037 207.954C192.955 209.651 193.958 211.566 195.021 213.639C195.254 214.094 195.493 214.559 195.731 215.03C196.173 215.9 196.621 216.789 197.077 217.697C198.134 219.799 199.227 221.996 200.319 224.228C201.267 226.163 202.226 230.141 203.169 235.203C203.949 239.409 204.723 244.367 205.473 249.528C206.456 256.217 205.409 264.228 206.297 270.384C206.352 270.775 206.412 271.156 206.466 271.537Z" fill="#3F3D56"/>
<path d="M143.805 168.099C157.746 168.099 169.048 156.837 169.048 142.945C169.048 129.052 157.746 117.79 143.805 117.79C129.864 117.79 118.563 129.052 118.563 142.945C118.563 156.837 129.864 168.099 143.805 168.099Z" fill="#A0616A"/>
<path d="M185.433 109.61C184.934 108.45 184.27 107.366 183.462 106.394C179.628 101.728 172.657 99.6745 165.502 105.197C164.124 104.89 162.689 104.972 161.356 105.434C160.726 105.661 160.137 105.985 159.608 106.394C158.524 107.236 157.679 108.345 157.155 109.61C156.875 110.279 156.691 110.983 156.609 111.703C154.84 110.788 152.968 110.085 151.033 109.61C146.283 108.433 141.317 108.433 136.568 109.61C135.046 109.994 133.581 110.573 132.209 111.332C129.885 112.668 128.549 114.356 128.311 116.231C124.959 116.419 121.473 118.175 118.877 121.055C118.584 121.377 118.301 121.713 118.037 122.06C115.854 124.907 114.68 128.397 114.701 131.981V132.609H115.331C117.059 132.607 118.771 132.94 120.371 133.589C121.408 134.004 122.39 134.544 123.296 135.197C123.888 135.616 124.448 136.079 124.969 136.582C126.179 137.749 127.203 139.092 128.008 140.566C130.071 144.289 130.786 148.606 130.034 152.792C129.861 153.761 129.609 154.715 129.279 155.642C128.81 156.966 128.192 158.233 127.437 159.418C127.407 159.462 127.382 159.507 127.353 159.551C127.02 160.081 126.702 160.62 126.404 161.164C126.181 161.57 125.972 161.986 125.779 162.402C125.213 163.558 124.734 164.756 124.348 165.984C123.657 168.156 123.25 170.408 123.137 172.684C123.102 173.287 123.092 173.891 123.112 174.495C123.142 176.051 123.313 177.601 123.624 179.126C123.668 179.334 123.713 179.537 123.758 179.745L124.12 181.323L124.979 185.089L125.575 187.681L126.126 190.086L126.94 188.923C127.218 188.527 127.919 187.31 128.857 185.588C129.478 184.465 130.198 183.124 130.977 181.66C132.065 179.606 133.256 177.315 134.423 175.029C134.895 174.104 135.362 173.183 135.814 172.283C136.668 170.576 137.472 168.928 138.162 167.463C138.798 166.113 139.339 164.915 139.741 163.955C139.865 164.584 139.97 165.222 140.049 165.865C140.138 166.518 140.203 167.181 140.238 167.844C140.248 167.943 140.253 168.047 140.258 168.146L140.277 168.552L140.282 168.671L140.809 168.74C143.844 169.064 146.905 169.087 149.945 168.809H149.95C153.978 168.507 157.929 167.553 161.649 165.984C163.761 165.071 165.734 163.865 167.508 162.402C168.337 161.718 169.11 160.97 169.822 160.165C170 159.962 170.174 159.759 170.343 159.551C171.326 158.348 172.167 157.036 172.85 155.642C173.308 154.722 173.697 153.77 174.012 152.792C175.919 147.038 175.81 139.858 173.685 131.328C174.259 131.217 174.809 131.006 175.308 130.704C176.867 129.769 177.95 127.913 178.288 125.647L178.824 125.791C180.725 124.908 182.418 123.637 183.794 122.06C184.067 121.739 184.322 121.403 184.559 121.055C186.987 117.493 187.007 113.217 185.433 109.61Z" fill="#2F2E41"/>
<path opacity="0.2" d="M102.446 235.181L106.665 218.955L110.391 232.956L102.446 235.181Z" fill="black"/>
<path d="M214.719 224.609C213.209 245.332 214.773 254.456 206.441 271.542C198.86 275.239 190.964 278.256 182.846 280.557C182.002 280.795 181.156 281.026 180.308 281.25C169.629 284.066 158.659 285.641 147.616 285.946C147.04 285.96 146.474 285.97 145.928 285.98C145.734 285.985 145.546 285.99 145.357 285.99C144.736 285.995 144.121 286 143.5 286C131.863 286.009 120.268 284.608 108.971 281.829C107.839 281.552 106.711 281.26 105.589 280.953C99.6782 279.345 93.878 277.356 88.2252 275C85.2459 273.763 82.3197 272.429 79.4464 270.997C78.7959 270.671 78.1454 270.344 77.5049 270.008C74.2128 264.238 72.3409 257.222 72.3011 248.79C74.5803 234.263 209.684 212.08 214.719 224.609Z" fill="#2F2E41"/>
<path opacity="0.2" d="M214.715 228.158C214.792 226.875 214.878 225.55 214.979 224.17C209.944 211.641 74.8402 233.823 72.561 248.351C72.5673 249.683 72.6245 250.976 72.7206 252.237C78.2399 237.899 206.59 216.816 214.715 228.158Z" fill="black"/>
<path d="M80.9834 169.3C81.0163 168.851 80.9524 168.401 80.796 167.979C80.6396 167.557 80.3943 167.173 80.0766 166.854C79.7589 166.534 79.3762 166.286 78.9542 166.127C78.5323 165.967 78.0809 165.899 77.6304 165.928C77.4626 165.934 77.2956 165.955 77.1314 165.99L57.3879 170.434C56.9467 170.541 56.5328 170.739 56.1729 171.014C55.813 171.29 55.515 171.638 55.2981 172.035C55.0086 172.046 54.721 172.088 54.4404 172.159C53.826 172.298 53.2451 172.556 52.7307 172.919C52.2164 173.281 51.7787 173.741 51.4428 174.272C51.1068 174.803 50.8791 175.395 50.7726 176.014C50.6661 176.633 50.683 177.266 50.8223 177.878C50.9616 178.491 51.2205 179.07 51.5843 179.582C51.948 180.095 52.4095 180.531 52.9425 180.866C54.0187 181.542 55.3205 181.764 56.5613 181.484C57.2676 181.321 57.9283 181.002 58.4951 180.552L65.1855 199.325C65.5197 199.913 66.036 200.378 66.6572 200.65C67.2784 200.921 67.9712 200.985 68.632 200.832L81.4669 197.942C82.1226 197.789 82.7127 197.432 83.1526 196.924C83.5925 196.416 83.8595 195.782 83.9152 195.113L80.9834 169.3ZM56.265 180.147C55.3788 180.347 54.4495 180.188 53.6809 179.705C52.9123 179.223 52.367 178.456 52.1647 177.573C51.9624 176.691 52.1195 175.764 52.6017 174.997C53.0838 174.23 53.8516 173.684 54.7367 173.48C54.799 173.465 54.8615 173.48 54.9238 173.465C54.9191 174.031 55.0644 174.589 55.3449 175.081L57.7933 179.339C57.3671 179.742 56.8387 180.022 56.265 180.147Z" fill="#2F2E41"/>
<path d="M77.6304 165.927C77.8176 168.414 73.5445 171.274 67.8211 172.408C62.5654 173.48 57.8557 172.734 56.5301 170.776C56.7965 170.619 57.0859 170.503 57.3879 170.434L77.1314 165.99C77.2956 165.955 77.4626 165.934 77.6304 165.927Z" fill="#3F3D56"/>
<path d="M63.9758 229.05L75.0654 223.524L65.8241 198.66L63.3886 186.12C63.0722 184.491 62.3322 182.974 61.2427 181.719C60.1533 180.464 58.7524 179.516 57.18 178.97C55.6077 178.423 53.9191 178.298 52.2828 178.605C50.6466 178.913 49.12 179.644 47.8557 180.723C45.9822 182.324 44.8059 184.587 44.575 187.035C44.3441 189.483 45.0766 191.925 46.6181 193.845L55.6587 205.106L63.9758 229.05Z" fill="#A0616A"/>
<path d="M75.0654 218.92L60.2794 226.287L71.5004 261.324C72.3062 263.84 73.7507 266.106 75.6938 267.902C77.6369 269.698 80.0128 270.963 82.591 271.575C85.77 272.329 89.1074 272.055 92.1195 270.792C95.1316 269.529 97.6616 267.343 99.343 264.55L129.098 213.726C131.207 210.224 131.858 206.039 130.912 202.065C129.966 198.091 127.498 194.644 124.036 192.458C122.173 191.283 120.084 190.512 117.902 190.194C115.721 189.877 113.498 190.021 111.376 190.617C109.254 191.213 107.282 192.247 105.588 193.653C103.894 195.058 102.517 196.803 101.544 198.775L83.3827 237.338L75.0654 218.92Z" fill="#3F3D56"/>
<path d="M70.4922 187.256C70.4647 187.256 70.4374 187.252 70.4114 187.243L67.1832 186.135C67.1442 186.122 67.1091 186.099 67.0812 186.069C67.0532 186.039 67.0333 186.002 67.0232 185.962C67.013 185.923 67.013 185.881 67.0231 185.841C67.0333 185.801 67.0532 185.765 67.0811 185.734L69.4821 183.129C69.5041 183.105 69.5306 183.086 69.5602 183.072C69.5898 183.058 69.6219 183.05 69.6545 183.049C69.6871 183.047 69.7197 183.052 69.7505 183.063C69.7812 183.074 69.8094 183.092 69.8335 183.114C69.8575 183.136 69.877 183.162 69.8907 183.192C69.9045 183.221 69.9123 183.253 69.9136 183.286C69.9149 183.318 69.9098 183.351 69.8985 183.381C69.8872 183.412 69.8699 183.44 69.8477 183.464L67.7032 185.79L70.5729 186.775C70.6285 186.794 70.6754 186.832 70.7055 186.883C70.7355 186.933 70.7467 186.992 70.737 187.05C70.7273 187.108 70.6974 187.16 70.6526 187.198C70.6078 187.236 70.5509 187.256 70.4922 187.256Z" fill="#24A640"/>
<path d="M74.9171 186.354C74.8677 186.354 74.8193 186.339 74.7783 186.312C74.7373 186.284 74.7055 186.245 74.6869 186.199C74.6684 186.154 74.664 186.103 74.6742 186.055C74.6845 186.007 74.7089 185.963 74.7445 185.929L76.9265 183.826L73.9953 182.622C73.9651 182.61 73.9377 182.592 73.9145 182.569C73.8914 182.546 73.873 182.519 73.8604 182.489C73.8479 182.459 73.8414 182.427 73.8413 182.394C73.8412 182.362 73.8476 182.33 73.86 182.299C73.8725 182.269 73.8907 182.242 73.9138 182.219C73.9368 182.196 73.9642 182.178 73.9943 182.165C74.0244 182.153 74.0567 182.146 74.0894 182.146C74.122 182.146 74.1543 182.153 74.1844 182.165L77.4662 183.513C77.5044 183.529 77.538 183.553 77.5641 183.585C77.5901 183.617 77.6078 183.655 77.6156 183.695C77.6233 183.736 77.6209 183.777 77.6084 183.816C77.596 183.855 77.5739 183.891 77.5443 183.919L75.0897 186.284C75.0434 186.329 74.9815 186.354 74.9171 186.354Z" fill="#24A640"/>
<path d="M71.1698 188.77C71.1451 188.77 71.1204 188.766 71.0968 188.759C71.0657 188.749 71.0367 188.734 71.0115 188.713C70.9864 188.692 70.9656 188.667 70.9503 188.638C70.935 188.609 70.9256 188.578 70.9225 188.546C70.9195 188.513 70.9228 188.481 70.9325 188.45L73.2239 181.027C73.2435 180.965 73.2871 180.913 73.3453 180.882C73.4035 180.852 73.4714 180.845 73.5342 180.865C73.597 180.884 73.6496 180.927 73.6804 180.985C73.7112 181.043 73.7177 181.111 73.6986 181.173L71.4072 188.595C71.3915 188.646 71.36 188.69 71.3173 188.722C71.2746 188.753 71.2229 188.77 71.1698 188.77Z" fill="#24A640"/>
</g>
<defs>
<clipPath id="clip0_29_123">
<rect width="287" height="286" fill="white"/>
</clipPath>
</defs>
</svg>
