<svg width="545" height="436" viewBox="0 0 545 436" fill="none" xmlns="http://www.w3.org/2000/svg">
<path fill-rule="evenodd" clip-rule="evenodd" d="M342.531 14.5826C386.155 17.5481 426.046 39.3225 458.741 68.6021C489.122 95.8095 505.307 133.506 518.576 172.238C532.099 211.711 558.473 258.359 535.698 293.237C511.983 329.554 454.899 313.946 415.108 330.688C388.433 341.912 369.255 363.405 342.531 374.512C297.993 393.022 252.537 435.137 207.931 416.792C164.854 399.076 144.354 340.903 146.883 294.05C149.237 250.454 208.467 231.866 220.182 189.835C232.833 144.45 187.444 90.5352 214.354 51.9884C240.604 14.3876 297.041 11.49 342.531 14.5826Z" fill="#F6CB40"/>
<path d="M424.792 261.191H13.392C10.0736 261.188 6.89224 259.854 4.54579 257.484C2.19933 255.114 0.879448 251.901 0.875702 248.549V14.2521H437.308V248.549C437.305 251.901 435.985 255.114 433.638 257.484C431.292 259.854 428.111 261.188 424.792 261.191V261.191Z" fill="#E6E6E6"/>
<path d="M408.42 236.993H29.7639C28.0544 236.991 26.4155 236.304 25.2067 235.083C23.9979 233.862 23.318 232.207 23.3161 230.48V44.9624C23.318 43.2358 23.9979 41.5804 25.2067 40.3595C26.4155 39.1386 28.0544 38.4518 29.7639 38.4499H408.42C410.13 38.4518 411.768 39.1386 412.977 40.3595C414.186 41.5804 414.866 43.2358 414.868 44.9624V230.48C414.866 232.207 414.186 233.862 412.977 235.083C411.768 236.304 410.13 236.991 408.42 236.993V236.993Z" fill="white"/>
<path d="M438.184 22.7919H0V12.6419C0.00374844 9.29026 1.32363 6.07693 3.67008 3.70692C6.01654 1.33692 9.19793 0.00378607 12.5163 0H425.668C428.986 0.00378607 432.168 1.33692 434.514 3.70692C436.861 6.07693 438.181 9.29026 438.184 12.6419V22.7919Z" fill="#00B0CC"/>
<path d="M119.331 165.961H51.9358C50.2263 165.959 48.5874 165.272 47.3786 164.052C46.1698 162.831 45.4899 161.175 45.488 159.449V114.699C45.4899 112.972 46.1698 111.317 47.3786 110.096C48.5874 108.875 50.2263 108.188 51.9358 108.186H119.331C121.04 108.188 122.679 108.875 123.888 110.096C125.097 111.317 125.777 112.972 125.779 114.699V159.449C125.777 161.175 125.097 162.831 123.888 164.052C122.679 165.272 121.04 165.959 119.331 165.961V165.961Z" fill="#E6E6E6"/>
<path d="M389.11 115.431H176.169C175.218 115.431 174.306 115.049 173.633 114.37C172.961 113.69 172.583 112.769 172.583 111.808C172.583 110.848 172.961 109.926 173.633 109.247C174.306 108.568 175.218 108.186 176.169 108.186H389.11C390.061 108.186 390.973 108.568 391.646 109.247C392.318 109.926 392.696 110.848 392.696 111.808C392.696 112.769 392.318 113.69 391.646 114.37C390.973 115.049 390.061 115.431 389.11 115.431V115.431Z" fill="#E6E6E6"/>
<path d="M389.11 141.343H176.169C175.218 141.343 174.306 140.962 173.634 140.282C172.961 139.603 172.583 138.682 172.583 137.721C172.583 136.761 172.961 135.839 173.634 135.16C174.306 134.481 175.218 134.099 176.169 134.099H389.11C390.061 134.099 390.973 134.481 391.646 135.16C392.318 135.839 392.696 136.761 392.696 137.721C392.696 138.682 392.318 139.603 391.646 140.282C390.973 140.962 390.061 141.343 389.11 141.343V141.343Z" fill="#E6E6E6"/>
<path d="M389.11 167.257H176.169C175.218 167.257 174.306 166.875 173.633 166.196C172.961 165.516 172.583 164.595 172.583 163.634C172.583 162.674 172.961 161.752 173.633 161.073C174.306 160.394 175.218 160.012 176.169 160.012H389.11C390.061 160.012 390.973 160.394 391.646 161.073C392.318 161.752 392.696 162.674 392.696 163.634C392.696 164.595 392.318 165.516 391.646 166.196C390.973 166.875 390.061 167.257 389.11 167.257V167.257Z" fill="#E6E6E6"/>
<path d="M318.254 426.234H308.954L304.53 390.003H318.256L318.254 426.234Z" fill="#A0616A"/>
<path d="M302.312 423.549H320.247V434.955H291.019C291.019 433.457 291.311 431.974 291.879 430.59C292.446 429.207 293.278 427.949 294.326 426.89C295.375 425.831 296.62 424.991 297.99 424.418C299.36 423.844 300.829 423.549 302.312 423.549V423.549Z" fill="#2F2E41"/>
<path d="M356.941 426.234H347.641L343.217 390.003H356.943L356.941 426.234Z" fill="#A0616A"/>
<path d="M340.998 423.549H358.934V434.955H329.706C329.706 433.457 329.998 431.974 330.565 430.59C331.133 429.207 331.965 427.949 333.013 426.89C334.062 425.831 335.307 424.991 336.677 424.418C338.047 423.844 339.515 423.549 340.998 423.549V423.549Z" fill="#2F2E41"/>
<path d="M355.757 417.906H346.29C345.435 417.902 344.612 417.575 343.983 416.99C343.354 416.405 342.964 415.604 342.888 414.744L334.866 317.134C334.842 316.85 334.716 316.585 334.51 316.39C334.304 316.196 334.034 316.085 333.752 316.08C333.47 316.075 333.197 316.176 332.984 316.363C332.772 316.55 332.636 316.811 332.602 317.093L321.08 414.866C320.981 415.704 320.581 416.476 319.957 417.036C319.332 417.596 318.526 417.906 317.691 417.906H306.066C305.165 417.905 304.3 417.544 303.661 416.901C303.022 416.259 302.66 415.388 302.654 414.477C302.629 408.336 302.587 402.15 302.546 395.963C302.177 340.858 301.795 283.877 313.187 261.554L313.291 261.35L354.4 260.64L354.503 260.868C366.941 288.321 363.166 349.649 359.515 408.958L359.163 414.673C359.108 415.548 358.726 416.369 358.093 416.97C357.46 417.57 356.625 417.905 355.757 417.906V417.906Z" fill="#2F2E41"/>
<path d="M336.282 187.273C346.572 187.273 354.913 178.848 354.913 168.455C354.913 158.062 346.572 149.637 336.282 149.637C325.992 149.637 317.651 158.062 317.651 168.455C317.651 178.848 325.992 187.273 336.282 187.273Z" fill="#A0616A"/>
<path d="M310.881 264.809L311.395 243.233L307.699 226.399C306.765 222.231 306.82 217.899 307.858 213.755C308.896 209.612 310.888 205.775 313.673 202.557C316.382 199.355 319.802 196.845 323.653 195.232C327.505 193.619 331.68 192.948 335.838 193.275H335.838C336.106 193.296 336.375 193.318 336.645 193.343C340.197 193.666 343.648 194.708 346.793 196.407C349.938 198.106 352.712 200.427 354.95 203.232C357.235 206.053 358.934 209.309 359.945 212.807C360.957 216.305 361.261 219.973 360.84 223.593L356.369 263.064L310.881 264.809Z" fill="#00B0CC"/>
<path d="M295.055 303.478C295.934 302.785 296.652 301.905 297.158 300.902C297.664 299.898 297.946 298.795 297.984 297.669C298.022 296.543 297.815 295.423 297.378 294.386C296.942 293.35 296.285 292.423 295.455 291.671L305.945 266.425L292.1 269.051L284.262 292.623C283.103 294.115 282.526 295.984 282.641 297.877C282.756 299.77 283.554 301.554 284.885 302.892C286.215 304.231 287.985 305.029 289.86 305.137C291.734 305.245 293.583 304.655 295.055 303.478Z" fill="#A0616A"/>
<path d="M374.206 306.504C373.368 305.762 372.701 304.842 372.252 303.811C371.803 302.78 371.584 301.662 371.609 300.536C371.634 299.41 371.904 298.303 372.399 297.294C372.893 296.284 373.601 295.397 374.472 294.693L365.421 268.885L379.095 272.303L385.593 296.286C386.666 297.843 387.137 299.742 386.915 301.626C386.694 303.509 385.797 305.244 384.393 306.504C382.989 307.763 381.177 308.459 379.3 308.459C377.422 308.459 375.61 307.763 374.206 306.504V306.504Z" fill="#A0616A"/>
<path d="M296.72 291.107C296.239 291.107 295.764 291.004 295.325 290.806L287.344 287.195C286.577 286.849 285.963 286.228 285.62 285.452C285.278 284.677 285.232 283.801 285.49 282.992L298.877 240.991L304.051 209.348C304.235 208.224 304.641 207.148 305.244 206.186C305.848 205.223 306.637 204.393 307.565 203.744C308.493 203.096 309.541 202.643 310.646 202.412C311.75 202.181 312.89 202.177 313.996 202.4C315.103 202.622 316.154 203.068 317.086 203.709C318.019 204.35 318.814 205.175 319.425 206.133C320.036 207.091 320.449 208.163 320.641 209.286C320.834 210.409 320.8 211.56 320.543 212.669L312.68 246.605L299.986 288.665C299.773 289.372 299.34 289.991 298.752 290.43C298.164 290.87 297.452 291.107 296.72 291.107V291.107Z" fill="#00B0CC"/>
<path d="M372.851 291.107C372.12 291.107 371.407 290.87 370.819 290.431C370.231 289.991 369.799 289.372 369.586 288.665L356.898 246.629L349.029 212.669C348.772 211.56 348.738 210.409 348.93 209.286C349.122 208.163 349.536 207.091 350.147 206.133C350.757 205.175 351.553 204.35 352.485 203.709C353.418 203.068 354.469 202.622 355.575 202.399C356.682 202.177 357.821 202.181 358.926 202.412C360.031 202.643 361.078 203.096 362.006 203.744C362.934 204.393 363.724 205.223 364.327 206.186C364.931 207.148 365.337 208.224 365.521 209.348L370.708 241.046L384.081 282.992C384.34 283.801 384.294 284.677 383.951 285.453C383.609 286.228 382.995 286.849 382.227 287.195L374.247 290.806C373.808 291.005 373.332 291.107 372.851 291.107Z" fill="#00B0CC"/>
<path d="M336.665 147.654C331.487 145.388 324.723 148.207 322.633 153.501C321.333 156.796 321.73 160.513 322.447 163.985C323.164 167.458 324.186 170.923 324.076 174.468C323.966 178.014 322.454 181.777 319.34 183.417C317.48 184.397 315.303 184.506 313.286 185.09C311.269 185.675 309.188 187.041 308.897 189.141C308.458 192.316 312.271 194.735 312.246 197.941C312.219 201.338 308.016 203.355 307.471 206.708C307.377 207.689 307.532 208.679 307.92 209.583C308.309 210.488 308.919 211.278 309.693 211.879C311.254 213.063 313.027 213.931 314.915 214.433C329.44 219.122 344.905 220.012 359.864 217.02C362.836 216.421 365.895 215.611 368.205 213.629C370.514 211.646 371.835 208.176 370.507 205.424C368.517 201.299 362.199 201.063 359.997 197.049C358.676 194.641 359.284 191.685 359.562 188.947C360.28 181.874 361.937 173.612 360.198 166.723C358.626 160.499 355.214 152.457 350.336 148.335C346.837 145.378 340.155 146.725 335.682 147.637L336.665 147.654Z" fill="#2F2E41"/>
<path d="M488.108 436H222.611C222.409 436 222.216 435.919 222.074 435.776C221.932 435.632 221.852 435.437 221.852 435.234C221.852 435.031 221.932 434.836 222.074 434.692C222.216 434.548 222.409 434.468 222.611 434.468H488.108C488.309 434.468 488.502 434.548 488.645 434.692C488.787 434.836 488.867 435.031 488.867 435.234C488.867 435.437 488.787 435.632 488.645 435.776C488.502 435.919 488.309 436 488.108 436Z" fill="#CCCCCC"/>
<path d="M460.152 418.553C449.214 433.349 426.508 434.906 426.508 434.906C426.508 434.906 421.537 412.475 432.475 397.679C443.414 382.883 466.119 381.326 466.119 381.326C466.119 381.326 471.09 403.757 460.152 418.553Z" fill="#E6E6E6"/>
<path d="M404.431 424.115C411.648 433.878 426.631 434.906 426.631 434.906C426.631 434.906 429.912 420.104 422.694 410.341C415.476 400.578 400.493 399.55 400.493 399.55C400.493 399.55 397.213 414.352 404.431 424.115Z" fill="#E6E6E6"/>
</svg>
