<svg width="565" height="771" viewBox="0 0 565 771" fill="none" xmlns="http://www.w3.org/2000/svg">
<path fill-rule="evenodd" clip-rule="evenodd" d="M371.873 313.057C404.822 356.486 494.041 378.898 481.23 431.884C468.083 486.258 366.847 454.639 327.926 494.821C295.962 527.82 320.671 589.744 292.884 626.331C262.987 665.698 218.168 708.074 168.885 704.231C117.901 700.256 100.108 625.562 52.2403 607.568C-0.0701304 587.904 -91.9264 649.991 -113.048 598.253C-138.824 535.112 -37.7391 483.119 -25.9895 415.939C-20.158 382.597 -52.5395 355.038 -65.0062 323.569C-88.1816 265.068 -157.571 206.746 -131.561 149.449C-108.68 99.0455 -25.3592 126.558 29.0506 116.376C70.2032 108.674 111.043 85.6017 151.471 96.4818C191.368 107.219 212.575 149.894 245.643 174.665C271.55 194.072 304.087 203.229 325.901 227.145C348.067 251.446 351.993 286.853 371.873 313.057Z" fill="#24A640"/>
<path fill-rule="evenodd" clip-rule="evenodd" d="M371.873 313.057C404.822 356.486 494.041 378.898 481.23 431.884C468.083 486.258 366.847 454.639 327.926 494.821C295.962 527.82 320.671 589.744 292.884 626.331C262.987 665.698 218.168 708.074 168.885 704.231C117.901 700.256 100.108 625.562 52.2403 607.568C-0.0701304 587.904 -91.9264 649.991 -113.048 598.253C-138.824 535.112 -37.7391 483.119 -25.9895 415.939C-20.158 382.597 -52.5395 355.038 -65.0062 323.569C-88.1816 265.068 -157.571 206.746 -131.561 149.449C-108.68 99.0455 -25.3592 126.558 29.0506 116.376C70.2032 108.674 111.043 85.6017 151.471 96.4818C191.368 107.219 212.575 149.894 245.643 174.665C271.55 194.072 304.087 203.229 325.901 227.145C348.067 251.446 351.993 286.853 371.873 313.057Z" fill="#F6CB40"/>
<path d="M328.694 223.907C339.302 223.907 347.901 213.253 347.901 200.111C347.901 186.969 339.302 176.315 328.694 176.315C318.086 176.315 309.487 186.969 309.487 200.111C309.487 213.253 318.086 223.907 328.694 223.907Z" fill="#F2F2F2"/>
<path d="M477.691 577.065C506.24 550.125 519.876 504.855 511.339 461.67C511.127 460.597 510.903 459.526 510.668 458.458C505.008 432.824 491.006 408.461 470.6 400.27C453.465 393.392 434.762 398.681 416.886 395.946C381.795 390.577 354.59 355.402 335.448 318.572C316.305 281.743 301.594 240.517 276.158 210.091C234.23 159.938 165.836 149.14 113.853 181.786C61.8689 214.432 28.7558 286.859 30.168 359.043C31.5803 431.226 66.1689 500.238 116.4 536.853C134.853 550.304 156.196 559.833 177.436 556.499C195.866 553.606 212.612 541.337 230.955 537.695C259.794 531.968 288.45 548.123 313.394 566.948C338.338 585.772 362.433 608.086 390.778 616.813C418.301 625.287 452.4 600.93 477.691 577.065Z" fill="#F2F2F2"/>
<path d="M436.672 183.302C436.046 182.785 435.413 182.294 434.787 181.795C416.696 167.461 397.306 155.816 377.016 147.101L372.312 227.505H342.487V135.363C340.61 134.882 338.718 134.428 336.826 134V227.505H301.384C281.872 227.505 263.16 217.903 249.363 200.81C235.566 183.717 227.816 160.535 227.816 136.362V136.362C225.916 136.87 224.032 137.413 222.147 137.993V227.505H193.28L188.798 150.835C167.947 160.742 148.153 173.77 129.854 189.629C129.538 189.896 129.221 190.173 128.912 190.44C127.322 191.821 125.754 193.23 124.193 194.656V501.4H209.271L207.767 475.599L199.495 333.942H366.089L357.817 475.599L356.313 501.4H440.449V186.403C439.197 185.351 437.938 184.318 436.672 183.302ZM222.147 310.548H198.128L193.69 234.528H222.147V310.548ZM336.826 310.548H296.485V309.042C296.485 308.318 296.37 307.601 296.146 306.932C295.922 306.263 295.594 305.656 295.18 305.144C294.767 304.633 294.276 304.227 293.736 303.951C293.195 303.675 292.616 303.533 292.032 303.534H274.494C273.91 303.534 273.332 303.676 272.793 303.953C272.253 304.23 271.763 304.635 271.35 305.147C270.937 305.658 270.61 306.265 270.387 306.934C270.163 307.602 270.048 308.318 270.049 309.042V310.548H227.816V234.528H336.826V310.548ZM342.487 310.548V234.528H371.902L367.463 310.548H342.487Z" fill="#3F3D56"/>
<path d="M-1.00006 521.043C5.24913 530.217 12.0083 538.838 19.2281 546.843L544.772 547.735C551.992 539.729 558.751 531.108 565 521.934L-1.00006 521.043Z" fill="#3F3D56"/>
<path d="M355.388 438.428V514.808C355.389 515.782 355.701 516.715 356.257 517.403C356.812 518.092 357.566 518.479 358.351 518.479H449.712C450.498 518.479 451.251 518.092 451.807 517.403C452.362 516.715 452.675 515.782 452.675 514.808V438.428C452.673 437.456 452.36 436.524 451.805 435.837C451.25 435.149 450.497 434.763 449.712 434.762H358.351C357.566 434.763 356.814 435.149 356.258 435.837C355.703 436.524 355.39 437.456 355.388 438.428Z" fill="#3F3D56"/>
<path d="M357.531 439.379V513.866C357.532 514.386 357.699 514.885 357.996 515.253C358.293 515.62 358.695 515.827 359.115 515.828H448.952C449.371 515.827 449.774 515.62 450.071 515.253C450.367 514.885 450.534 514.386 450.535 513.866V439.379C450.535 438.858 450.368 438.359 450.072 437.99C449.775 437.622 449.372 437.414 448.952 437.413H359.115C358.695 437.414 358.292 437.622 357.995 437.99C357.698 438.359 357.532 438.858 357.531 439.379Z" fill="#F6CB40"/>
<path d="M353.478 529.705C353.645 529.965 353.858 530.174 354.1 530.318C354.342 530.461 354.607 530.535 354.876 530.533H452.702C452.969 530.533 453.233 530.459 453.475 530.316C453.716 530.173 453.929 529.965 454.097 529.708C454.266 529.451 454.386 529.15 454.449 528.828C454.512 528.506 454.516 528.17 454.461 527.846L452.943 518.909C452.88 518.545 452.744 518.206 452.548 517.923C452.353 517.64 452.103 517.422 451.822 517.289C451.618 517.19 451.402 517.14 451.183 517.14H356.388C356.169 517.14 355.953 517.19 355.749 517.289C355.468 517.422 355.218 517.64 355.023 517.923C354.827 518.206 354.691 518.545 354.628 518.909L353.11 527.846C353.056 528.17 353.061 528.505 353.124 528.827C353.188 529.148 353.309 529.448 353.478 529.705Z" fill="#2F2E41"/>
<path d="M447.826 520.989H450.137C450.331 520.989 450.488 520.794 450.488 520.554V519.184C450.488 518.944 450.331 518.749 450.137 518.749H447.826C447.632 518.749 447.475 518.944 447.475 519.184V520.554C447.475 520.794 447.632 520.989 447.826 520.989Z" fill="#3F3D56"/>
<path d="M441.8 520.989H444.111C444.305 520.989 444.462 520.794 444.462 520.554V519.184C444.462 518.944 444.305 518.749 444.111 518.749H441.8C441.606 518.749 441.449 518.944 441.449 519.184V520.554C441.449 520.794 441.606 520.989 441.8 520.989Z" fill="#3F3D56"/>
<path d="M435.774 520.989H438.085C438.279 520.989 438.436 520.794 438.436 520.554V519.184C438.436 518.944 438.279 518.749 438.085 518.749H435.774C435.58 518.749 435.423 518.944 435.423 519.184V520.554C435.423 520.794 435.58 520.989 435.774 520.989Z" fill="#3F3D56"/>
<path d="M429.748 520.989H432.059C432.253 520.989 432.41 520.794 432.41 520.554V519.184C432.41 518.944 432.253 518.749 432.059 518.749H429.748C429.554 518.749 429.397 518.944 429.397 519.184V520.554C429.397 520.794 429.554 520.989 429.748 520.989Z" fill="#3F3D56"/>
<path d="M423.722 520.989H426.033C426.227 520.989 426.384 520.794 426.384 520.554V519.184C426.384 518.944 426.227 518.749 426.033 518.749H423.722C423.528 518.749 423.371 518.944 423.371 519.184V520.554C423.371 520.794 423.528 520.989 423.722 520.989Z" fill="#3F3D56"/>
<path d="M417.696 520.989H420.007C420.201 520.989 420.358 520.794 420.358 520.554V519.184C420.358 518.944 420.201 518.749 420.007 518.749H417.696C417.502 518.749 417.345 518.944 417.345 519.184V520.554C417.345 520.794 417.502 520.989 417.696 520.989Z" fill="#3F3D56"/>
<path d="M411.67 520.989H413.981C414.175 520.989 414.332 520.794 414.332 520.554V519.184C414.332 518.944 414.175 518.749 413.981 518.749H411.67C411.476 518.749 411.319 518.944 411.319 519.184V520.554C411.319 520.794 411.476 520.989 411.67 520.989Z" fill="#3F3D56"/>
<path d="M405.644 520.989H407.955C408.149 520.989 408.306 520.794 408.306 520.554V519.184C408.306 518.944 408.149 518.749 407.955 518.749H405.644C405.45 518.749 405.293 518.944 405.293 519.184V520.554C405.293 520.794 405.45 520.989 405.644 520.989Z" fill="#3F3D56"/>
<path d="M399.618 520.989H401.929C402.123 520.989 402.28 520.794 402.28 520.554V519.184C402.28 518.944 402.123 518.749 401.929 518.749H399.618C399.424 518.749 399.267 518.944 399.267 519.184V520.554C399.267 520.794 399.424 520.989 399.618 520.989Z" fill="#3F3D56"/>
<path d="M393.592 520.989H395.903C396.097 520.989 396.254 520.794 396.254 520.554V519.184C396.254 518.944 396.097 518.749 395.903 518.749H393.592C393.398 518.749 393.241 518.944 393.241 519.184V520.554C393.241 520.794 393.398 520.989 393.592 520.989Z" fill="#3F3D56"/>
<path d="M387.566 520.989H389.877C390.071 520.989 390.228 520.794 390.228 520.554V519.184C390.228 518.944 390.071 518.749 389.877 518.749H387.566C387.372 518.749 387.215 518.944 387.215 519.184V520.554C387.215 520.794 387.372 520.989 387.566 520.989Z" fill="#3F3D56"/>
<path d="M381.54 520.989H383.851C384.045 520.989 384.202 520.794 384.202 520.554V519.184C384.202 518.944 384.045 518.749 383.851 518.749H381.54C381.346 518.749 381.189 518.944 381.189 519.184V520.554C381.189 520.794 381.346 520.989 381.54 520.989Z" fill="#3F3D56"/>
<path d="M375.514 520.989H377.825C378.019 520.989 378.176 520.794 378.176 520.554V519.184C378.176 518.944 378.019 518.749 377.825 518.749H375.514C375.32 518.749 375.163 518.944 375.163 519.184V520.554C375.163 520.794 375.32 520.989 375.514 520.989Z" fill="#3F3D56"/>
<path d="M369.488 520.989H371.799C371.993 520.989 372.15 520.794 372.15 520.554V519.184C372.15 518.944 371.993 518.749 371.799 518.749H369.488C369.294 518.749 369.137 518.944 369.137 519.184V520.554C369.137 520.794 369.294 520.989 369.488 520.989Z" fill="#3F3D56"/>
<path d="M363.462 520.989H365.773C365.967 520.989 366.124 520.794 366.124 520.554V519.184C366.124 518.944 365.967 518.749 365.773 518.749H363.462C363.268 518.749 363.111 518.944 363.111 519.184V520.554C363.111 520.794 363.268 520.989 363.462 520.989Z" fill="#3F3D56"/>
<path d="M357.436 520.989H359.747C359.941 520.989 360.098 520.794 360.098 520.554V519.184C360.098 518.944 359.941 518.749 359.747 518.749H357.436C357.243 518.749 357.085 518.944 357.085 519.184V520.554C357.085 520.794 357.243 520.989 357.436 520.989Z" fill="#3F3D56"/>
<path d="M447.897 524.722H450.208C450.402 524.722 450.559 524.527 450.559 524.287V522.917C450.559 522.677 450.402 522.482 450.208 522.482H447.897C447.704 522.482 447.546 522.677 447.546 522.917V524.287C447.546 524.527 447.704 524.722 447.897 524.722Z" fill="#3F3D56"/>
<path d="M441.871 524.722H444.182C444.376 524.722 444.533 524.527 444.533 524.287V522.917C444.533 522.677 444.376 522.482 444.182 522.482H441.871C441.678 522.482 441.52 522.677 441.52 522.917V524.287C441.52 524.527 441.678 524.722 441.871 524.722Z" fill="#3F3D56"/>
<path d="M435.845 524.722H438.156C438.35 524.722 438.507 524.527 438.507 524.287V522.917C438.507 522.677 438.35 522.482 438.156 522.482H435.845C435.652 522.482 435.494 522.677 435.494 522.917V524.287C435.494 524.527 435.652 524.722 435.845 524.722Z" fill="#3F3D56"/>
<path d="M429.82 524.722H432.13C432.324 524.722 432.481 524.527 432.481 524.287V522.917C432.481 522.677 432.324 522.482 432.13 522.482H429.82C429.626 522.482 429.468 522.677 429.468 522.917V524.287C429.468 524.527 429.626 524.722 429.82 524.722Z" fill="#3F3D56"/>
<path d="M423.793 524.722H426.104C426.298 524.722 426.455 524.527 426.455 524.287V522.917C426.455 522.677 426.298 522.482 426.104 522.482H423.793C423.599 522.482 423.442 522.677 423.442 522.917V524.287C423.442 524.527 423.599 524.722 423.793 524.722Z" fill="#3F3D56"/>
<path d="M417.767 524.722H420.078C420.272 524.722 420.429 524.527 420.429 524.287V522.917C420.429 522.677 420.272 522.482 420.078 522.482H417.767C417.574 522.482 417.416 522.677 417.416 522.917V524.287C417.416 524.527 417.574 524.722 417.767 524.722Z" fill="#3F3D56"/>
<path d="M411.742 524.722H414.052C414.246 524.722 414.403 524.527 414.403 524.287V522.917C414.403 522.677 414.246 522.482 414.052 522.482H411.742C411.548 522.482 411.39 522.677 411.39 522.917V524.287C411.39 524.527 411.548 524.722 411.742 524.722Z" fill="#3F3D56"/>
<path d="M405.715 524.722H408.026C408.22 524.722 408.377 524.527 408.377 524.287V522.917C408.377 522.677 408.22 522.482 408.026 522.482H405.715C405.522 522.482 405.364 522.677 405.364 522.917V524.287C405.364 524.527 405.522 524.722 405.715 524.722Z" fill="#3F3D56"/>
<path d="M399.69 524.722H402C402.194 524.722 402.351 524.527 402.351 524.287V522.917C402.351 522.677 402.194 522.482 402 522.482H399.69C399.496 522.482 399.338 522.677 399.338 522.917V524.287C399.338 524.527 399.496 524.722 399.69 524.722Z" fill="#3F3D56"/>
<path d="M393.664 524.722H395.974C396.168 524.722 396.325 524.527 396.325 524.287V522.917C396.325 522.677 396.168 522.482 395.974 522.482H393.664C393.47 522.482 393.312 522.677 393.312 522.917V524.287C393.312 524.527 393.47 524.722 393.664 524.722Z" fill="#3F3D56"/>
<path d="M387.638 524.722H389.948C390.142 524.722 390.299 524.527 390.299 524.287V522.917C390.299 522.677 390.142 522.482 389.948 522.482H387.638C387.444 522.482 387.286 522.677 387.286 522.917V524.287C387.286 524.527 387.444 524.722 387.638 524.722Z" fill="#3F3D56"/>
<path d="M381.612 524.722H383.922C384.116 524.722 384.273 524.527 384.273 524.287V522.917C384.273 522.677 384.116 522.482 383.922 522.482H381.612C381.418 522.482 381.26 522.677 381.26 522.917V524.287C381.26 524.527 381.418 524.722 381.612 524.722Z" fill="#3F3D56"/>
<path d="M375.586 524.722H377.896C378.09 524.722 378.247 524.527 378.247 524.287V522.917C378.247 522.677 378.09 522.482 377.896 522.482H375.586C375.392 522.482 375.234 522.677 375.234 522.917V524.287C375.234 524.527 375.392 524.722 375.586 524.722Z" fill="#3F3D56"/>
<path d="M369.56 524.722H371.87C372.064 524.722 372.221 524.527 372.221 524.287V522.917C372.221 522.677 372.064 522.482 371.87 522.482H369.56C369.366 522.482 369.208 522.677 369.208 522.917V524.287C369.208 524.527 369.366 524.722 369.56 524.722Z" fill="#3F3D56"/>
<path d="M363.534 524.722H365.844C366.038 524.722 366.195 524.527 366.195 524.287V522.917C366.195 522.677 366.038 522.482 365.844 522.482H363.534C363.34 522.482 363.182 522.677 363.182 522.917V524.287C363.182 524.527 363.34 524.722 363.534 524.722Z" fill="#3F3D56"/>
<path d="M357.508 524.722H359.818C360.012 524.722 360.169 524.527 360.169 524.287V522.917C360.169 522.677 360.012 522.482 359.818 522.482H357.508C357.314 522.482 357.156 522.677 357.156 522.917V524.287C357.156 524.527 357.314 524.722 357.508 524.722Z" fill="#3F3D56"/>
<path d="M397.882 529.201H421.283C421.477 529.201 421.635 529.006 421.635 528.766V527.397C421.635 527.156 421.477 526.962 421.283 526.962H397.882C397.688 526.962 397.531 527.156 397.531 527.397V528.766C397.531 529.006 397.688 529.201 397.882 529.201Z" fill="#3F3D56"/>
<path d="M373.089 453.709H371.043C370.423 453.709 369.92 454.332 369.92 455.1C369.92 455.868 370.423 456.491 371.043 456.491H373.089C373.709 456.491 374.211 455.868 374.211 455.1C374.211 454.332 373.709 453.709 373.089 453.709Z" fill="white"/>
<path d="M396.484 453.709H394.438C393.818 453.709 393.315 454.332 393.315 455.1C393.315 455.868 393.818 456.491 394.438 456.491H396.484C397.104 456.491 397.607 455.868 397.607 455.1C397.607 454.332 397.104 453.709 396.484 453.709Z" fill="white"/>
<path d="M403.113 453.709H401.067C400.447 453.709 399.944 454.332 399.944 455.1C399.944 455.868 400.447 456.491 401.067 456.491H403.113C403.733 456.491 404.236 455.868 404.236 455.1C404.236 454.332 403.733 453.709 403.113 453.709Z" fill="white"/>
<path d="M390.12 453.477H377.406C376.786 453.477 376.283 454.1 376.283 454.868C376.283 455.637 376.786 456.259 377.406 456.259H390.12C390.74 456.259 391.243 455.637 391.243 454.868C391.243 454.1 390.74 453.477 390.12 453.477Z" fill="white"/>
<path d="M421.314 453.477H408.601C407.98 453.477 407.478 454.1 407.478 454.868C407.478 455.637 407.98 456.259 408.601 456.259H421.314C421.934 456.259 422.437 455.637 422.437 454.868C422.437 454.1 421.934 453.477 421.314 453.477Z" fill="white"/>
<path d="M379.327 459.989H377.282C376.661 459.989 376.159 460.612 376.159 461.38C376.159 462.149 376.661 462.771 377.282 462.771H379.327C379.947 462.771 380.45 462.149 380.45 461.38C380.45 460.612 379.947 459.989 379.327 459.989Z" fill="white"/>
<path d="M402.723 459.989H400.677C400.057 459.989 399.554 460.612 399.554 461.38C399.554 462.149 400.057 462.771 400.677 462.771H402.723C403.343 462.771 403.846 462.149 403.846 461.38C403.846 460.612 403.343 459.989 402.723 459.989Z" fill="white"/>
<path d="M409.351 459.989H407.306C406.686 459.989 406.183 460.612 406.183 461.38C406.183 462.149 406.686 462.771 407.306 462.771H409.351C409.972 462.771 410.474 462.149 410.474 461.38C410.474 460.612 409.972 459.989 409.351 459.989Z" fill="white"/>
<path d="M396.359 459.757H383.645C383.025 459.757 382.522 460.38 382.522 461.148C382.522 461.917 383.025 462.539 383.645 462.539H396.359C396.979 462.539 397.482 461.917 397.482 461.148C397.482 460.38 396.979 459.757 396.359 459.757Z" fill="white"/>
<path d="M427.553 459.757H414.839C414.219 459.757 413.716 460.38 413.716 461.148C413.716 461.917 414.219 462.539 414.839 462.539H427.553C428.173 462.539 428.676 461.917 428.676 461.148C428.676 460.38 428.173 459.757 427.553 459.757Z" fill="white"/>
<path d="M385.566 466.269H383.52C382.9 466.269 382.397 466.892 382.397 467.66C382.397 468.429 382.9 469.051 383.52 469.051H385.566C386.186 469.051 386.689 468.429 386.689 467.66C386.689 466.892 386.186 466.269 385.566 466.269Z" fill="white"/>
<path d="M408.962 466.269H406.916C406.296 466.269 405.793 466.892 405.793 467.66C405.793 468.429 406.296 469.051 406.916 469.051H408.962C409.582 469.051 410.084 468.429 410.084 467.66C410.084 466.892 409.582 466.269 408.962 466.269Z" fill="white"/>
<path d="M415.59 466.269H413.545C412.925 466.269 412.422 466.892 412.422 467.66C412.422 468.429 412.925 469.051 413.545 469.051H415.59C416.211 469.051 416.713 468.429 416.713 467.66C416.713 466.892 416.211 466.269 415.59 466.269Z" fill="white"/>
<path d="M402.598 466.037H389.884C389.264 466.037 388.761 466.66 388.761 467.428C388.761 468.197 389.264 468.819 389.884 468.819H402.598C403.218 468.819 403.721 468.197 403.721 467.428C403.721 466.66 403.218 466.037 402.598 466.037Z" fill="white"/>
<path d="M433.792 466.037H421.078C420.458 466.037 419.955 466.66 419.955 467.428C419.955 468.197 420.458 468.819 421.078 468.819H433.792C434.412 468.819 434.915 468.197 434.915 467.428C434.915 466.66 434.412 466.037 433.792 466.037Z" fill="white"/>
<path d="M391.805 472.549H389.759C389.139 472.549 388.636 473.172 388.636 473.94C388.636 474.709 389.139 475.331 389.759 475.331H391.805C392.425 475.331 392.928 474.709 392.928 473.94C392.928 473.172 392.425 472.549 391.805 472.549Z" fill="white"/>
<path d="M415.2 472.549H413.155C412.535 472.549 412.032 473.172 412.032 473.94C412.032 474.709 412.535 475.331 413.155 475.331H415.2C415.821 475.331 416.323 474.709 416.323 473.94C416.323 473.172 415.821 472.549 415.2 472.549Z" fill="white"/>
<path d="M421.829 472.549H419.783C419.163 472.549 418.66 473.172 418.66 473.94C418.66 474.709 419.163 475.331 419.783 475.331H421.829C422.449 475.331 422.952 474.709 422.952 473.94C422.952 473.172 422.449 472.549 421.829 472.549Z" fill="white"/>
<path d="M408.837 472.317H396.123C395.503 472.317 395 472.94 395 473.708C395 474.477 395.503 475.1 396.123 475.1H408.837C409.457 475.1 409.96 474.477 409.96 473.708C409.96 472.94 409.457 472.317 408.837 472.317Z" fill="white"/>
<path d="M396.484 497.521H394.438C393.818 497.521 393.315 498.144 393.315 498.912C393.315 499.681 393.818 500.303 394.438 500.303H396.484C397.104 500.303 397.607 499.681 397.607 498.912C397.607 498.144 397.104 497.521 396.484 497.521Z" fill="white"/>
<path d="M403.113 497.521H401.067C400.447 497.521 399.944 498.144 399.944 498.912C399.944 499.681 400.447 500.303 401.067 500.303H403.113C403.733 500.303 404.236 499.681 404.236 498.912C404.236 498.144 403.733 497.521 403.113 497.521Z" fill="white"/>
<path d="M421.314 497.753H408.601C407.98 497.753 407.478 498.376 407.478 499.144C407.478 499.913 407.98 500.535 408.601 500.535H421.314C421.934 500.535 422.437 499.913 422.437 499.144C422.437 498.376 421.934 497.753 421.314 497.753Z" fill="white"/>
<path d="M373.089 497.521H371.043C370.423 497.521 369.92 498.144 369.92 498.912C369.92 499.681 370.423 500.303 371.043 500.303H373.089C373.709 500.303 374.211 499.681 374.211 498.912C374.211 498.144 373.709 497.521 373.089 497.521Z" fill="white"/>
<path d="M390.12 497.753H377.406C376.786 497.753 376.283 498.376 376.283 499.144C376.283 499.913 376.786 500.535 377.406 500.535H390.12C390.74 500.535 391.243 499.913 391.243 499.144C391.243 498.376 390.74 497.753 390.12 497.753Z" fill="white"/>
<path d="M379.327 491.241H377.282C376.661 491.241 376.159 491.864 376.159 492.632C376.159 493.401 376.661 494.023 377.282 494.023H379.327C379.947 494.023 380.45 493.401 380.45 492.632C380.45 491.864 379.947 491.241 379.327 491.241Z" fill="white"/>
<path d="M402.723 491.241H400.677C400.057 491.241 399.554 491.864 399.554 492.632C399.554 493.401 400.057 494.023 400.677 494.023H402.723C403.343 494.023 403.846 493.401 403.846 492.632C403.846 491.864 403.343 491.241 402.723 491.241Z" fill="white"/>
<path d="M409.351 491.241H407.306C406.686 491.241 406.183 491.864 406.183 492.632C406.183 493.401 406.686 494.023 407.306 494.023H409.351C409.972 494.023 410.474 493.401 410.474 492.632C410.474 491.864 409.972 491.241 409.351 491.241Z" fill="white"/>
<path d="M396.359 491.473H383.645C383.025 491.473 382.522 492.096 382.522 492.864C382.522 493.633 383.025 494.255 383.645 494.255H396.359C396.979 494.255 397.482 493.633 397.482 492.864C397.482 492.096 396.979 491.473 396.359 491.473Z" fill="white"/>
<path d="M385.566 484.961H383.52C382.9 484.961 382.397 485.584 382.397 486.352C382.397 487.121 382.9 487.743 383.52 487.743H385.566C386.186 487.743 386.689 487.121 386.689 486.352C386.689 485.584 386.186 484.961 385.566 484.961Z" fill="white"/>
<path d="M408.962 484.961H406.916C406.296 484.961 405.793 485.584 405.793 486.352C405.793 487.121 406.296 487.743 406.916 487.743H408.962C409.582 487.743 410.084 487.121 410.084 486.352C410.084 485.584 409.582 484.961 408.962 484.961Z" fill="white"/>
<path d="M415.59 484.961H413.545C412.925 484.961 412.422 485.584 412.422 486.352C412.422 487.121 412.925 487.743 413.545 487.743H415.59C416.211 487.743 416.713 487.121 416.713 486.352C416.713 485.584 416.211 484.961 415.59 484.961Z" fill="white"/>
<path d="M402.598 485.193H389.884C389.264 485.193 388.761 485.816 388.761 486.584C388.761 487.352 389.264 487.975 389.884 487.975H402.598C403.218 487.975 403.721 487.352 403.721 486.584C403.721 485.816 403.218 485.193 402.598 485.193Z" fill="white"/>
<path d="M391.805 478.681H389.759C389.139 478.681 388.636 479.304 388.636 480.072C388.636 480.841 389.139 481.463 389.759 481.463H391.805C392.425 481.463 392.928 480.841 392.928 480.072C392.928 479.304 392.425 478.681 391.805 478.681Z" fill="white"/>
<path d="M415.2 478.681H413.155C412.535 478.681 412.032 479.304 412.032 480.072C412.032 480.841 412.535 481.463 413.155 481.463H415.2C415.821 481.463 416.323 480.841 416.323 480.072C416.323 479.304 415.821 478.681 415.2 478.681Z" fill="white"/>
<path d="M421.829 478.681H419.783C419.163 478.681 418.66 479.304 418.66 480.072C418.66 480.841 419.163 481.463 419.783 481.463H421.829C422.449 481.463 422.952 480.841 422.952 480.072C422.952 479.304 422.449 478.681 421.829 478.681Z" fill="white"/>
<path d="M408.837 478.913H396.123C395.503 478.913 395 479.536 395 480.304C395 481.072 395.503 481.695 396.123 481.695H408.837C409.457 481.695 409.96 481.072 409.96 480.304C409.96 479.536 409.457 478.913 408.837 478.913Z" fill="white"/>
<path d="M362.213 571.12L352.61 552.315L382.752 522.546L395.194 505.469C396.81 503.251 398.868 501.597 401.162 500.672C403.456 499.748 405.906 499.585 408.266 500.201C410.627 500.817 412.816 502.19 414.614 504.182C416.412 506.174 417.757 508.717 418.513 511.554C419.635 515.76 419.394 520.34 417.841 524.329C416.288 528.319 413.545 531.404 410.191 532.935L390.517 541.915L362.213 571.12Z" fill="#FFB6B6"/>
<path d="M136.892 434.765V526.167H188.578V434.765C188.579 434.108 188.409 433.467 188.095 432.938C187.78 432.409 187.337 432.018 186.83 431.824C186.591 431.726 186.34 431.678 186.089 431.682H139.389C139.061 431.681 138.737 431.76 138.434 431.915C138.132 432.069 137.856 432.296 137.625 432.582C137.393 432.869 137.209 433.209 137.083 433.584C136.958 433.958 136.893 434.36 136.892 434.765ZM157.063 466.171C157.077 464.369 157.664 462.647 158.697 461.379C159.73 460.11 161.126 459.399 162.58 459.399C164.035 459.399 165.431 460.11 166.464 461.379C167.497 462.647 168.084 464.369 168.098 466.171V476.777C168.09 478.584 167.506 480.313 166.472 481.588C165.438 482.862 164.039 483.577 162.58 483.577C161.122 483.577 159.723 482.862 158.689 481.588C157.655 480.313 157.07 478.584 157.063 476.777V466.171Z" fill="#2F2E41"/>
<path d="M136.734 523.244V532.058C136.735 532.515 136.882 532.952 137.142 533.276C137.402 533.6 137.754 533.783 138.123 533.787H187.348C187.717 533.785 188.07 533.602 188.33 533.278C188.59 532.954 188.736 532.515 188.736 532.058V523.244H136.734Z" fill="#3F3D56"/>
<path d="M55.5842 297.056V463.943C55.5855 466.07 56.2681 468.109 57.4819 469.613C58.6958 471.117 60.3417 471.962 62.0583 471.964H261.678C263.395 471.962 265.041 471.117 266.255 469.613C267.469 468.109 268.151 466.07 268.152 463.943V297.056C268.148 294.931 267.465 292.895 266.251 291.393C265.038 289.891 263.393 289.047 261.678 289.044H62.0583C60.3432 289.047 58.6988 289.891 57.4854 291.393C56.2719 292.895 55.5883 294.931 55.5842 297.056Z" fill="#3F3D56"/>
<path d="M60.2672 299.132V461.885C60.2687 463.021 60.6338 464.11 61.2823 464.914C61.9309 465.717 62.81 466.169 63.7272 466.171H260.017C260.934 466.169 261.813 465.717 262.462 464.914C263.11 464.11 263.475 463.021 263.477 461.885V299.132C263.477 297.995 263.112 296.904 262.464 296.098C261.815 295.293 260.935 294.839 260.017 294.837H63.7272C62.8089 294.839 61.9289 295.293 61.2803 296.098C60.6316 296.904 60.2672 297.995 60.2672 299.132Z" fill="white"/>
<path d="M96.6951 533.19C96.8949 533.5 97.1488 533.751 97.4379 533.922C97.7269 534.093 98.0435 534.181 98.364 534.179H215.143C215.463 534.179 215.778 534.09 216.066 533.92C216.355 533.749 216.608 533.501 216.81 533.194C217.011 532.887 217.154 532.528 217.229 532.143C217.304 531.759 217.309 531.358 217.244 530.971L215.431 520.303C215.356 519.868 215.194 519.463 214.961 519.126C214.727 518.788 214.429 518.528 214.093 518.369C213.85 518.251 213.592 518.191 213.331 518.191H100.17C99.9086 518.191 99.6499 518.251 99.407 518.369C99.0715 518.528 98.7733 518.788 98.5396 519.126C98.3059 519.463 98.1441 519.868 98.069 520.303L96.2563 530.971C96.1918 531.358 96.1977 531.758 96.2736 532.142C96.3495 532.526 96.4935 532.884 96.6951 533.19Z" fill="#2F2E41"/>
<path d="M253.646 317.257H69.9792C69.7883 317.251 69.6067 317.154 69.4732 316.985C69.3396 316.816 69.2649 316.588 69.2649 316.352C69.2649 316.115 69.3396 315.888 69.4732 315.719C69.6067 315.55 69.7883 315.452 69.9792 315.447H253.646C253.837 315.452 254.019 315.55 254.153 315.719C254.286 315.888 254.361 316.115 254.361 316.352C254.361 316.588 254.286 316.816 254.153 316.985C254.019 317.154 253.837 317.251 253.646 317.257Z" fill="#3F3D56"/>
<path d="M82.4817 310.827C84.8457 310.827 86.7621 308.4 86.7621 305.405C86.7621 302.411 84.8457 299.984 82.4817 299.984C80.1177 299.984 78.2012 302.411 78.2012 305.405C78.2012 308.4 80.1177 310.827 82.4817 310.827Z" fill="#3F3D56"/>
<path d="M97.2687 310.827C99.6327 310.827 101.549 308.4 101.549 305.405C101.549 302.411 99.6327 299.984 97.2687 299.984C94.9046 299.984 92.9882 302.411 92.9882 305.405C92.9882 308.4 94.9046 310.827 97.2687 310.827Z" fill="#3F3D56"/>
<path d="M112.056 310.827C114.42 310.827 116.336 308.4 116.336 305.405C116.336 302.411 114.42 299.984 112.056 299.984C109.692 299.984 107.775 302.411 107.775 305.405C107.775 308.4 109.692 310.827 112.056 310.827Z" fill="#3F3D56"/>
<path d="M244.742 301.325H234.24C234.032 301.331 233.835 301.437 233.69 301.621C233.544 301.805 233.463 302.052 233.463 302.31C233.463 302.567 233.544 302.814 233.69 302.998C233.835 303.182 234.032 303.288 234.24 303.294H244.742C244.951 303.291 245.15 303.185 245.297 303.001C245.444 302.817 245.526 302.568 245.526 302.31C245.526 302.051 245.444 301.802 245.297 301.618C245.15 301.434 244.951 301.328 244.742 301.325Z" fill="#3F3D56"/>
<path d="M244.742 305.023H234.24C234.032 305.029 233.834 305.135 233.689 305.319C233.544 305.503 233.462 305.751 233.462 306.008C233.462 306.266 233.544 306.513 233.689 306.697C233.834 306.881 234.032 306.987 234.24 306.993H244.742C244.951 306.99 245.151 306.885 245.298 306.7C245.445 306.516 245.528 306.267 245.528 306.008C245.528 305.749 245.445 305.5 245.298 305.316C245.151 305.132 244.951 305.026 244.742 305.023Z" fill="#3F3D56"/>
<path d="M244.742 308.722H234.24C234.032 308.728 233.835 308.834 233.69 309.018C233.544 309.202 233.463 309.449 233.463 309.707C233.463 309.964 233.544 310.211 233.69 310.395C233.835 310.579 234.032 310.685 234.24 310.691H244.742C244.951 310.688 245.15 310.582 245.297 310.398C245.444 310.214 245.526 309.965 245.526 309.707C245.526 309.448 245.444 309.199 245.297 309.015C245.15 308.831 244.951 308.725 244.742 308.722Z" fill="#3F3D56"/>
<path d="M497.939 527.112C498.256 528.256 498.857 529.245 499.656 529.938C500.455 530.632 501.411 530.994 502.387 530.972L521.444 530.365C522.426 530.341 523.377 529.924 524.152 529.176C524.928 528.428 525.487 527.389 525.746 526.214L528.443 490.488C529.4 491.025 530.441 491.29 531.491 491.264C532.404 491.236 533.303 490.985 534.137 490.526C534.971 490.068 535.724 489.41 536.353 488.591C536.982 487.771 537.475 486.806 537.803 485.751C538.131 484.696 538.288 483.571 538.265 482.441C538.242 481.31 538.039 480.197 537.669 479.163C537.299 478.13 536.768 477.197 536.107 476.418C535.445 475.638 534.666 475.028 533.815 474.622C532.963 474.215 532.055 474.021 531.143 474.049C530.723 474.048 530.304 474.102 529.894 474.21C529.447 473.612 528.905 473.136 528.301 472.813C527.697 472.49 527.045 472.328 526.388 472.336L497.074 473.274C496.83 473.285 496.589 473.322 496.351 473.385C495.708 473.534 495.098 473.851 494.562 474.316C494.027 474.781 493.578 475.382 493.246 476.08C492.914 476.778 492.706 477.556 492.637 478.362C492.568 479.167 492.639 479.982 492.845 480.751L497.939 527.112ZM528.996 488.063L530.915 479.549C531.133 478.566 531.138 477.528 530.93 476.542C531.023 476.541 531.105 476.487 531.198 476.486C532.514 476.453 533.787 477.067 534.737 478.194C535.688 479.321 536.24 480.87 536.27 482.5C536.301 484.13 535.809 485.708 534.902 486.889C533.995 488.07 532.746 488.758 531.431 488.8C530.58 488.833 529.738 488.578 528.996 488.063Z" fill="#2F2E41"/>
<path d="M496.351 473.385C496.975 477.809 503.997 480.919 512.439 480.379C520.203 479.935 526.551 476.558 527.714 472.555C527.284 472.397 526.836 472.323 526.388 472.336L497.074 473.274C496.83 473.285 496.589 473.322 496.351 473.385Z" fill="#3F3D56"/>
<path d="M513.987 507.481C514.025 507.469 514.062 507.449 514.095 507.421L518.234 504.065C518.284 504.025 518.325 503.97 518.353 503.905C518.382 503.84 518.397 503.767 518.397 503.693C518.397 503.619 518.382 503.546 518.354 503.481C518.325 503.416 518.284 503.361 518.234 503.32L513.933 499.83C513.893 499.797 513.849 499.775 513.802 499.764C513.756 499.753 513.708 499.753 513.662 499.765C513.615 499.777 513.571 499.8 513.532 499.833C513.493 499.866 513.459 499.908 513.433 499.957C513.408 500.006 513.39 500.061 513.381 500.119C513.372 500.176 513.373 500.235 513.382 500.293C513.392 500.35 513.411 500.405 513.438 500.453C513.464 500.501 513.499 500.543 513.538 500.575L517.38 503.692L513.702 506.676C513.63 506.734 513.578 506.821 513.554 506.922C513.529 507.023 513.535 507.131 513.569 507.228C513.603 507.324 513.664 507.403 513.741 507.449C513.817 507.495 513.904 507.507 513.987 507.481H513.987Z" fill="#F6CB40"/>
<path d="M507.45 507.854C507.52 507.832 507.582 507.785 507.63 507.719C507.678 507.653 507.709 507.571 507.718 507.483C507.728 507.395 507.716 507.305 507.685 507.226C507.653 507.146 507.603 507.08 507.541 507.036L503.726 504.326L507.413 500.933C507.451 500.898 507.483 500.854 507.507 500.804C507.532 500.754 507.548 500.698 507.554 500.641C507.561 500.583 507.559 500.524 507.547 500.467C507.536 500.41 507.516 500.357 507.487 500.31C507.459 500.263 507.424 500.224 507.383 500.194C507.343 500.164 507.298 500.144 507.251 500.135C507.205 500.127 507.157 500.13 507.111 500.144C507.065 500.158 507.022 500.183 506.985 500.218L502.856 504.017C502.808 504.061 502.77 504.119 502.745 504.186C502.72 504.253 502.708 504.327 502.712 504.401C502.715 504.475 502.734 504.546 502.765 504.609C502.796 504.672 502.84 504.724 502.892 504.761L507.183 507.809C507.264 507.866 507.36 507.883 507.45 507.854Z" fill="#F6CB40"/>
<path d="M513.575 510.422C513.61 510.411 513.643 510.394 513.674 510.37C513.714 510.34 513.749 510.3 513.777 510.253C513.805 510.205 513.825 510.152 513.836 510.095C513.848 510.038 513.85 509.979 513.842 509.921C513.835 509.863 513.819 509.808 513.794 509.758L507.927 497.808C507.878 497.707 507.798 497.635 507.705 497.607C507.612 497.58 507.515 497.599 507.433 497.66C507.352 497.721 507.293 497.82 507.271 497.935C507.248 498.05 507.263 498.171 507.313 498.272L513.18 510.222C513.22 510.303 513.28 510.366 513.351 510.402C513.422 510.438 513.501 510.445 513.575 510.422Z" fill="#F6CB40"/>
<path d="M183.758 366.451H151.969C150.672 366.451 149.621 367.753 149.621 369.36V373.208C149.621 374.814 150.672 376.117 151.969 376.117H183.758C185.055 376.117 186.106 374.814 186.106 373.208V369.36C186.106 367.753 185.055 366.451 183.758 366.451Z" fill="#F6CB40"/>
<path d="M202.287 385.782H133.44C132.143 385.782 131.092 387.085 131.092 388.691V392.539C131.092 394.146 132.143 395.448 133.44 395.448H202.287C203.584 395.448 204.635 394.146 204.635 392.539V388.691C204.635 387.085 203.584 385.782 202.287 385.782Z" fill="#E6E6E6"/>
<path d="M202.287 405.114H133.44C132.143 405.114 131.092 406.416 131.092 408.023V411.871C131.092 413.477 132.143 414.78 133.44 414.78H202.287C203.584 414.78 204.635 413.477 204.635 411.871V408.023C204.635 406.416 203.584 405.114 202.287 405.114Z" fill="#E6E6E6"/>
<path d="M208.124 469.848L208.279 470.458L208.288 470.478L212.982 488.158L218.381 508.531L228.54 546.819L228.639 552.766V552.787L229.394 600.631L227.301 607.117L229.656 617.751C229.656 617.751 228.573 601.676 222.763 610.908C219.473 616.154 215.624 621.522 212.465 626.554C217.068 628.862 221.746 630.95 226.497 632.817C227.523 633.223 228.557 633.61 229.591 633.996C229.812 634.077 230.034 634.159 230.255 634.24C246.005 640.011 262.288 643.253 278.704 643.888C279.558 643.919 280.395 643.939 281.207 643.959C281.495 643.969 281.773 643.98 282.052 643.98C282.972 643.99 283.882 644 284.802 644C286.656 644 288.502 643.966 290.341 643.898C303.946 643.423 317.472 641.157 330.69 637.137C330.6 630.377 330.354 622.477 330.001 614.039C329.837 609.901 326.152 605.418 325.931 601.087C325.775 597.833 329.082 594.773 328.909 591.469C327.793 571.126 326.398 578.935 325.364 564.529C325.258 563.116 325.159 561.764 325.069 560.473C324.404 551.221 323.945 545.436 323.945 545.436L328.36 510.961L335.294 456.834L334.76 455.747L334.161 455.381L297.587 432.953L295.601 426.65C295.022 424.834 294.018 423.274 292.718 422.17C291.418 421.067 289.881 420.471 288.306 420.458L264.212 420.336C262.962 420.329 261.728 420.692 260.614 421.394C259.499 422.096 258.536 423.117 257.803 424.372L251.28 435.566L208.124 469.848Z" fill="#3F3D56"/>
<path d="M234.096 538.299L228.639 552.766L224.913 562.648L218.504 604.219L215.296 608.439L212.547 593.502L183.774 601.417C182.83 594.921 183.522 601.637 182.939 594.51C183.103 594.307 183.275 594.104 183.448 593.9C183.907 593.372 184.293 592.873 184.285 592.396C183.956 567.813 184.941 525.977 193.164 500.632C194.452 496.494 196.15 492.57 198.219 488.951C198.383 488.676 198.539 488.402 198.695 488.127C202.486 481.549 204.882 475.073 208.279 470.468V470.458C208.301 470.436 208.32 470.413 208.337 470.386C208.349 470.379 208.36 470.368 208.37 470.356L231.708 455.025L232.709 489.876L233.423 514.926L234.096 538.299Z" fill="#3F3D56"/>
<path d="M318.249 542.408L325.066 560.477L327.445 566.77L333.852 608.338L337.05 612.546L339.805 597.614L341.1 597.285L364.449 591.294L371.255 618.071C372.788 614.905 373.393 611.18 372.965 607.525C372.538 603.871 371.105 600.511 368.909 598.014C368.444 597.493 368.057 596.986 368.068 596.506C368.455 567.593 367.027 514.797 354.136 493.068C350.041 486.172 347.585 479.303 344.01 474.505C343.999 474.491 343.999 474.477 343.988 474.477L335.29 456.833L334.759 455.75L334.162 455.38L318.249 542.408Z" fill="#3F3D56"/>
<path d="M276.955 411.842C294.657 411.842 309.008 394.062 309.008 372.131C309.008 350.199 294.657 332.42 276.955 332.42C259.252 332.42 244.902 350.199 244.902 372.131C244.902 394.062 259.252 411.842 276.955 411.842Z" fill="#FFB6B6"/>
<path d="M320.278 344.393C320.03 344.064 319.73 343.801 319.398 343.619C319.065 343.437 318.707 343.339 318.343 343.333L318.825 341.675C318.983 341.153 319.025 340.588 318.948 340.039C318.871 339.49 318.678 338.976 318.388 338.55C318.099 338.124 317.722 337.801 317.299 337.614C316.875 337.427 316.419 337.383 315.977 337.486L314.221 337.905L314.387 336.453C314.45 335.912 314.399 335.359 314.238 334.85C314.077 334.341 313.812 333.893 313.468 333.55C313.125 333.206 312.715 332.979 312.28 332.891C311.844 332.803 311.398 332.857 310.984 333.048C310.608 333.232 310.203 333.308 309.8 333.273C309.397 333.237 309.005 333.091 308.654 332.843C308.301 332.603 307.994 332.271 307.756 331.869C307.517 331.467 307.352 331.006 307.272 330.517L306.661 326.863L306.596 326.667C303.618 320.518 297.892 316.044 290.886 314.404C284.649 312.934 278.254 313.682 272.089 314.386C269.643 314.671 266.881 314.992 264.579 316.739C262.622 318.236 260.968 321.231 261.306 324.252C255.227 321.944 248.71 326.551 245.48 332.362C241.653 339.278 241.027 347.94 240.927 354.713C240.653 370.737 243.322 383.847 248.84 393.686C249.242 394.399 249.343 395.887 250.142 396.386L249.976 396.056C250.868 396.609 251.774 397.5 251.436 398.454C250.465 401.199 256.918 407.268 261.464 409.273C269.758 412.936 280.786 412.624 288.541 411.305L288.814 409.032C291.612 408.56 293.583 407.66 294.137 406.252C295.115 405.218 295.95 404.291 296.676 403.436L296.684 403.427C296.698 403.409 296.727 403.382 296.741 403.364C300.244 399.202 301.057 396.832 301.424 393.222C301.777 389.684 301.151 386.093 300.511 382.858C313.991 385.442 295.202 365.069 307.762 361.13C307.906 361.075 308.052 361.03 308.2 360.996C308.567 360.889 308.934 360.783 309.287 360.658C310.986 360.086 312.613 359.226 314.121 358.1C317.631 355.453 318.789 351.942 320.602 347.985C320.864 347.421 320.973 346.769 320.915 346.123C320.857 345.477 320.634 344.871 320.278 344.393Z" fill="#2F2E41"/>
<path d="M390.322 545.236C390.314 546.795 390.3 548.979 390.242 551.679C390.235 552.053 390.228 552.436 390.221 552.829C390.127 557.793 390.034 561.955 389.883 566.58C389.876 566.901 389.868 567.213 389.854 567.534C389.653 573.986 389.336 581.499 388.789 593.396C387.775 615.373 386.005 596.418 384.229 604.126C384.142 604.51 384.049 604.964 383.962 605.499C383.693 607.439 383.239 609.333 382.61 611.14C381.668 611.835 380.697 612.504 379.74 613.172C377.014 615.053 374.244 616.862 371.453 618.582C369.885 619.544 368.309 620.489 366.727 621.398C366.475 621.541 366.231 621.683 365.986 621.817C357.882 626.461 349.53 630.409 340.988 633.634C339.32 634.258 337.658 634.864 335.975 635.426C334.219 636.032 332.464 636.602 330.687 637.137C317.469 641.157 303.944 643.424 290.339 643.901C288.505 643.972 286.656 643.999 284.8 643.999C283.879 643.999 282.973 643.99 282.052 643.981C281.771 643.981 281.491 643.972 281.21 643.963C280.398 643.937 279.556 643.919 278.707 643.892C262.291 643.258 246.008 640.014 230.259 634.24L229.59 634C228.554 633.608 227.525 633.224 226.497 632.814C221.749 630.952 217.071 628.866 212.462 626.558C208.944 624.802 205.467 622.919 202.031 620.908C202 620.897 201.971 620.879 201.945 620.854C201.226 620.444 200.499 620.017 199.78 619.58C199.686 619.518 199.586 619.455 199.485 619.393C196.802 617.771 194.147 616.072 191.522 614.295C189.313 608.012 186.206 606.809 184.278 601.283C183.717 599.642 183.311 597.925 183.069 596.168C183.069 596.15 183.062 596.132 183.062 596.106C183.263 599.421 182.206 590.224 183.055 596.07C183.048 595.963 183.041 595.847 183.033 595.713C183.012 595.393 182.983 595.001 182.94 594.51C180.472 564.664 180.631 530.531 179.559 502.404C179.487 500.586 179.413 498.845 179.336 497.182C179.314 496.629 179.286 496.086 179.257 495.551C179.307 495.39 179.365 495.221 179.429 495.061C179.443 495.014 179.46 494.97 179.48 494.927C179.501 494.872 179.525 494.818 179.552 494.767C179.566 494.74 179.588 494.704 179.602 494.677C179.613 494.647 179.625 494.617 179.638 494.588C179.703 494.463 179.775 494.33 179.854 494.205C179.89 494.152 179.919 494.107 179.954 494.062C179.979 494.017 180.008 493.975 180.041 493.938C180.063 493.895 180.09 493.856 180.12 493.822C180.149 493.786 180.177 493.742 180.213 493.697C180.229 493.669 180.248 493.645 180.271 493.626C180.328 493.545 180.39 493.47 180.458 493.403C180.715 493.11 180.989 492.842 181.278 492.601C181.379 492.521 181.487 492.44 181.587 492.351C182.312 491.814 183.076 491.361 183.868 490.997C184.141 490.872 184.414 490.756 184.709 490.631C184.817 490.596 184.918 490.551 185.026 490.507C185.184 490.444 185.342 490.382 185.508 490.337C186.328 490.034 187.213 489.776 188.169 489.535C188.285 489.508 188.407 489.482 188.529 489.446C188.702 489.401 188.882 489.366 189.061 489.33C189.306 489.277 189.558 489.223 189.81 489.17C191.946 488.751 194.37 488.439 197.046 488.234C197.298 488.216 197.55 488.198 197.802 488.181C198.097 488.163 198.391 488.145 198.694 488.127C198.945 488.109 199.204 488.1 199.463 488.091C199.715 488.074 199.974 488.065 200.24 488.056C200.967 488.029 201.715 488.002 202.477 487.984C204.65 487.931 206.937 487.949 209.34 488.011C210.455 488.047 211.592 488.082 212.757 488.145C212.836 488.145 212.908 488.154 212.98 488.154C213.994 488.198 215.016 488.252 216.066 488.323C216.8 488.368 217.541 488.412 218.281 488.466C218.979 488.519 219.684 488.573 220.396 488.635C220.95 488.671 221.504 488.724 222.065 488.769C222.54 488.813 223.015 488.858 223.49 488.893L224.137 488.947C224.489 488.983 224.842 489.009 225.202 489.054C225.993 489.134 226.784 489.214 227.59 489.295C228.388 489.384 229.201 489.473 230.014 489.562C230.827 489.651 231.647 489.749 232.467 489.847C232.553 489.856 232.633 489.865 232.712 489.874C233.46 489.972 234.208 490.061 234.963 490.159C235.136 490.177 235.316 490.195 235.488 490.221C236.209 490.311 236.943 490.416 237.669 490.512C237.892 490.541 238.114 490.57 238.338 490.601C238.907 490.677 239.469 490.744 240.042 490.827C240.797 490.934 241.567 491.032 242.315 491.157C242.898 491.237 243.48 491.318 244.063 491.407C244.977 491.54 245.905 491.683 246.832 491.834C247.185 491.888 247.537 491.941 247.89 492.004C250.537 492.414 253.213 492.868 255.932 493.341C260.054 494.062 264.241 494.847 268.456 495.693C272.679 496.54 276.925 497.434 281.196 498.376C282.275 498.617 283.354 498.857 284.44 499.107C284.929 499.222 285.418 499.338 285.908 499.454C286.742 499.641 287.577 499.837 288.411 500.034C289.245 500.23 290.08 500.426 290.914 500.631C291.907 500.871 292.907 501.112 293.9 501.352C300.439 502.957 306.941 504.668 313.286 506.459C314.329 506.753 315.372 507.056 316.408 507.35C318.48 507.947 320.532 508.553 322.566 509.168C323.127 509.329 323.681 509.498 324.235 509.667C325.616 510.095 326.997 510.523 328.357 510.96L328.594 511.04C329.594 511.343 330.572 511.655 331.55 511.976C333.86 512.724 336.13 513.482 338.363 514.248C339.845 514.756 341.31 515.27 342.758 515.79C344.923 516.565 347.045 517.35 349.11 518.143C349.621 518.339 350.131 518.535 350.635 518.722C352.146 519.301 353.635 519.89 355.08 520.478C356.231 520.941 357.354 521.414 358.461 521.886C359.569 522.358 360.655 522.831 361.72 523.303C362.403 523.606 363.08 523.927 363.756 524.23C364.727 524.675 365.684 525.121 366.619 525.567C366.907 525.7 367.187 525.843 367.468 525.977C367.648 526.075 367.82 526.155 367.993 526.244C368.331 526.413 368.676 526.574 369.007 526.743C369.345 526.903 369.676 527.073 370.007 527.251C370.331 527.411 370.662 527.581 370.978 527.75C371.302 527.91 371.618 528.08 371.935 528.258C372.201 528.392 372.46 528.534 372.712 528.677C373.223 528.953 373.733 529.229 374.23 529.515C374.474 529.657 374.719 529.791 374.963 529.933L375.524 530.254C375.604 530.308 375.683 530.352 375.762 530.397C375.942 530.504 376.129 530.62 376.309 530.727C376.726 530.967 377.136 531.226 377.539 531.466C378.078 531.805 378.603 532.144 379.107 532.473C379.618 532.812 380.114 533.151 380.589 533.48C380.668 533.534 380.74 533.587 380.819 533.641C380.927 533.712 381.035 533.792 381.143 533.864C381.509 534.122 381.862 534.39 382.214 534.648C382.905 535.174 383.56 535.691 384.171 536.208C384.308 536.323 384.437 536.439 384.574 536.546C385.027 536.947 385.459 537.339 385.862 537.74C385.862 537.749 385.862 537.749 385.869 537.749C386.005 537.874 386.135 538.008 386.264 538.133C386.372 538.257 386.487 538.364 386.595 538.489C386.969 538.89 387.315 539.273 387.631 539.665C387.737 539.786 387.838 539.914 387.933 540.049C387.975 540.092 388.014 540.139 388.048 540.191C388.192 540.369 388.322 540.548 388.444 540.726C388.463 540.75 388.48 540.777 388.494 540.806C388.667 541.056 388.825 541.305 388.976 541.555C389.048 541.68 389.127 541.804 389.192 541.929C389.278 542.081 389.365 542.241 389.437 542.393C389.501 542.517 389.559 542.651 389.617 542.776C389.769 543.097 389.899 543.434 390.005 543.783C390.086 544.019 390.151 544.264 390.199 544.514C390.254 544.75 390.295 544.992 390.322 545.236Z" fill="#2F2E41"/>
<path opacity="0.2" d="M390.322 545.236C390.314 546.795 390.3 548.979 390.242 551.679C390.235 552.053 390.221 552.436 390.214 552.829C390.142 556.616 390.034 561.295 389.883 566.58C389.876 566.901 389.868 567.213 389.854 567.534C389.653 573.986 389.336 581.499 388.789 593.396C387.775 615.374 386.005 596.418 384.229 604.126C379.294 600.366 373.884 596.426 368.101 592.38C367.058 591.65 366.005 590.916 364.943 590.179C353.376 582.185 340.456 573.808 326.968 565.511C326.436 565.181 325.896 564.851 325.364 564.53C294.468 545.61 260.745 527.206 233.424 514.926C228.151 512.555 223.116 510.416 218.382 508.536C208.412 504.588 199.794 501.825 193.162 500.631C186.256 499.383 181.487 499.829 179.559 502.404C179.487 500.586 179.413 498.845 179.336 497.182C179.307 496.629 179.278 496.085 179.25 495.551C179.294 495.404 179.352 495.264 179.407 495.123C179.415 495.102 179.421 495.081 179.429 495.061C179.443 495.014 179.46 494.97 179.48 494.927C179.501 494.872 179.525 494.818 179.552 494.766C179.575 494.703 179.604 494.644 179.638 494.588C179.703 494.463 179.775 494.33 179.854 494.205C179.912 494.112 179.974 494.022 180.041 493.938C180.063 493.895 180.089 493.856 180.12 493.822C180.149 493.786 180.177 493.742 180.213 493.697C180.229 493.669 180.248 493.645 180.271 493.626C180.328 493.545 180.39 493.47 180.458 493.403C180.715 493.11 180.989 492.842 181.278 492.601C181.379 492.521 181.487 492.44 181.587 492.351C182.312 491.814 183.076 491.361 183.868 490.997C184.141 490.872 184.414 490.756 184.709 490.631C184.817 490.596 184.918 490.551 185.026 490.507C185.184 490.444 185.342 490.382 185.508 490.337C186.328 490.034 187.213 489.776 188.169 489.535C188.457 489.464 188.759 489.393 189.061 489.33C189.306 489.277 189.558 489.223 189.81 489.17C191.946 488.751 194.37 488.439 197.046 488.234C197.298 488.216 197.55 488.198 197.802 488.18C198.097 488.163 198.391 488.145 198.694 488.127C198.945 488.109 199.204 488.1 199.463 488.091C199.715 488.074 199.974 488.065 200.24 488.056C200.967 488.029 201.715 488.002 202.477 487.984C204.65 487.94 206.937 487.958 209.34 488.02C210.455 488.047 211.592 488.091 212.757 488.154C212.829 488.154 212.908 488.163 212.98 488.163C213.994 488.198 215.023 488.261 216.066 488.323C216.8 488.368 217.541 488.412 218.281 488.466C218.979 488.519 219.684 488.573 220.396 488.635C220.95 488.671 221.504 488.724 222.065 488.769C222.54 488.813 223.015 488.858 223.49 488.893C224.058 488.947 224.626 489 225.202 489.054C225.993 489.134 226.784 489.214 227.59 489.294C228.388 489.384 229.201 489.473 230.014 489.562C230.827 489.651 231.647 489.749 232.467 489.847C232.553 489.856 232.633 489.865 232.712 489.874C233.46 489.972 234.208 490.061 234.963 490.159C239.15 490.685 243.459 491.3 247.89 492.004C250.537 492.423 253.218 492.871 255.932 493.349C260.054 494.071 264.241 494.856 268.456 495.693C272.679 496.54 276.925 497.434 281.196 498.376C282.275 498.616 283.354 498.857 284.44 499.107C285.764 499.41 287.087 499.719 288.411 500.033C289.246 500.23 290.08 500.426 290.914 500.631C291.907 500.871 292.907 501.112 293.9 501.353C300.439 502.957 306.942 504.668 313.286 506.459C314.329 506.753 315.372 507.056 316.408 507.35C318.48 507.947 320.532 508.553 322.566 509.168C323.127 509.338 323.681 509.507 324.235 509.676C325.623 510.104 326.997 510.532 328.357 510.96V510.969C328.436 510.986 328.515 511.013 328.594 511.04C329.587 511.352 330.572 511.664 331.551 511.985C333.86 512.733 336.13 513.488 338.363 514.248C339.845 514.765 341.312 515.273 342.758 515.79C344.923 516.574 347.045 517.359 349.11 518.143C349.621 518.339 350.131 518.535 350.635 518.722C352.146 519.31 353.627 519.896 355.081 520.478C356.231 520.941 357.354 521.414 358.462 521.886C359.569 522.358 360.655 522.831 361.72 523.303C362.411 523.606 363.087 523.918 363.756 524.221C364.734 524.666 365.684 525.112 366.619 525.567C366.907 525.7 367.187 525.843 367.468 525.977C367.993 526.226 368.504 526.485 369.007 526.743C369.345 526.903 369.676 527.073 370.007 527.251C370.331 527.411 370.662 527.581 370.978 527.75C371.302 527.91 371.618 528.08 371.935 528.258C372.201 528.392 372.46 528.534 372.712 528.677C373.223 528.953 373.733 529.229 374.23 529.515C374.474 529.657 374.719 529.791 374.963 529.934L375.524 530.254C375.604 530.308 375.683 530.352 375.762 530.397C376.373 530.753 376.963 531.11 377.539 531.466C378.078 531.805 378.603 532.144 379.107 532.473C379.704 532.866 380.272 533.249 380.819 533.641C380.927 533.712 381.035 533.792 381.143 533.864C381.509 534.122 381.862 534.39 382.214 534.648C382.905 535.174 383.56 535.691 384.171 536.208C384.775 536.724 385.336 537.232 385.862 537.74C385.862 537.749 385.862 537.749 385.869 537.749C386.121 537.999 386.365 538.248 386.595 538.489C386.969 538.89 387.315 539.273 387.631 539.665C387.737 539.786 387.838 539.914 387.933 540.049C387.975 540.092 388.014 540.139 388.048 540.191C388.199 540.396 388.351 540.601 388.494 540.806C388.667 541.056 388.825 541.305 388.976 541.555C389.048 541.68 389.127 541.804 389.192 541.929C389.279 542.081 389.365 542.241 389.437 542.393C389.502 542.517 389.559 542.651 389.617 542.776C389.769 543.097 389.899 543.434 390.005 543.783C390.084 544.02 390.149 544.265 390.199 544.514C390.254 544.75 390.295 544.992 390.322 545.236Z" fill="black"/>
</svg>
