<svg width="534" height="771" viewBox="0 0 534 771" fill="none" xmlns="http://www.w3.org/2000/svg">
<path fill-rule="evenodd" clip-rule="evenodd" d="M371.873 313.057C404.822 356.486 494.041 378.898 481.23 431.884C468.083 486.258 366.847 454.639 327.926 494.821C295.962 527.82 320.671 589.744 292.885 626.331C262.987 665.698 218.168 708.074 168.885 704.231C117.902 700.256 100.109 625.562 52.2404 607.568C-0.0700694 587.904 -91.9264 649.991 -113.048 598.253C-138.824 535.112 -37.7391 483.119 -25.9894 415.939C-20.1579 382.597 -52.5395 355.038 -65.0061 323.569C-88.1816 265.068 -157.571 206.746 -131.561 149.449C-108.68 99.0455 -25.3592 126.558 29.0507 116.376C70.2033 108.674 111.043 85.6017 151.471 96.4818C191.369 107.219 212.575 149.894 245.643 174.665C271.55 194.072 304.087 203.229 325.901 227.145C348.067 251.446 351.993 286.853 371.873 313.057Z" fill="#24A640"/>
<path fill-rule="evenodd" clip-rule="evenodd" d="M371.873 313.057C404.822 356.486 494.041 378.898 481.23 431.884C468.083 486.258 366.847 454.639 327.926 494.821C295.962 527.82 320.671 589.744 292.885 626.331C262.987 665.698 218.168 708.074 168.885 704.231C117.902 700.256 100.109 625.562 52.2404 607.568C-0.0700694 587.904 -91.9264 649.991 -113.048 598.253C-138.824 535.112 -37.7391 483.119 -25.9894 415.939C-20.1579 382.597 -52.5395 355.038 -65.0061 323.569C-88.1816 265.068 -157.571 206.746 -131.561 149.449C-108.68 99.0455 -25.3592 126.558 29.0507 116.376C70.2033 108.674 111.043 85.6017 151.471 96.4818C191.369 107.219 212.575 149.894 245.643 174.665C271.55 194.072 304.087 203.229 325.901 227.145C348.067 251.446 351.993 286.853 371.873 313.057Z" fill="#24A640"/>
<g clip-path="url(#clip0_22_203)">
<path d="M511 335.109C511.089 395.328 489.755 453.621 450.803 499.596C449.388 501.273 447.947 502.924 446.48 504.566C429.209 523.959 409.091 540.624 386.813 553.99C381.703 557.053 376.481 559.94 371.147 562.65C370.608 562.923 370.06 563.197 369.52 563.462C368.875 563.788 368.221 564.106 367.566 564.424C354.069 571.02 340.009 576.403 325.555 580.507C324.052 580.931 322.546 581.343 321.037 581.743C302.023 586.766 282.49 589.577 262.829 590.12C261.803 590.147 260.796 590.164 259.823 590.182C259.478 590.191 259.142 590.2 258.806 590.2C257.701 590.208 256.605 590.217 255.5 590.217C234.781 590.232 214.136 587.734 194.021 582.776C192.005 582.281 189.998 581.761 188 581.213C177.476 578.345 167.149 574.797 157.084 570.594C151.779 568.387 146.569 566.007 141.453 563.453C140.295 562.87 139.137 562.288 137.997 561.687C137.51 561.449 137.033 561.193 136.555 560.946C109.289 546.576 84.8368 527.422 64.3701 504.398C62.9555 502.818 61.5675 501.212 60.1972 499.596C37.6466 472.9 20.8254 441.866 10.7753 408.415C0.725141 374.964 -2.33984 339.809 1.77015 305.128C5.88014 270.446 17.0776 236.977 34.669 206.791C52.2604 176.606 75.8711 150.349 104.039 129.645C105.489 128.577 106.948 127.517 108.424 126.485C108.716 126.281 109.007 126.078 109.299 125.875C135.241 107.732 164.358 94.6027 195.144 87.1678C196.894 86.7352 198.645 86.3292 200.413 85.9496C233.758 78.6668 268.219 78.0637 301.799 84.1753C303.559 84.5019 305.318 84.8374 307.069 85.1993C337.579 91.4477 366.678 103.246 392.913 120.005C393.497 120.376 394.08 120.747 394.664 121.135C395.839 121.894 397.015 122.671 398.173 123.457C432.927 146.786 461.398 178.295 481.074 215.206C500.751 252.117 511.028 293.295 511 335.109Z" fill="#F2F2F2"/>
<path d="M190.962 467.085L109.299 474.324L108.424 474.403V126.484C108.716 126.281 109.007 126.078 109.299 125.875C126.319 113.989 144.729 104.224 164.121 96.7983L168.294 154.264L168.674 159.525L172.803 216.514L174.076 234.045L190.812 465.055L190.962 467.085Z" fill="#CCCCCC"/>
<path d="M392.913 120.005C393.497 120.376 394.08 120.747 394.664 121.135V474.403L392.913 474.244L312.134 467.085L312.285 465.055L329.02 234.045L330.293 216.514L334.422 159.525L334.802 154.264L339.179 94.0001C358.051 100.532 376.086 109.26 392.913 120.005Z" fill="#CCCCCC"/>
<path d="M392.913 120.005V479.223C392.913 486.117 388.157 491.722 382.304 491.722H119.908C115.063 491.722 110.952 487.874 109.706 482.621C109.434 481.509 109.297 480.368 109.299 479.223V125.875C109.007 126.078 108.716 126.281 108.424 126.484C106.948 127.517 105.489 128.577 104.039 129.645V479.223C103.961 484.459 105.919 489.522 109.503 493.347C111.382 495.312 113.758 496.734 116.381 497.46C117.53 497.772 118.717 497.93 119.908 497.928H382.304C383.498 497.929 384.688 497.772 385.84 497.46C392.895 495.562 398.173 488.112 398.173 479.223V123.457C397.015 122.671 395.839 121.894 394.664 121.135C394.08 120.747 393.497 120.376 392.913 120.005Z" fill="#CCCCCC"/>
<path d="M395.545 154.267H106.669V159.528H395.545V154.267Z" fill="#CCCCCC"/>
<path d="M195.144 87.1678C196.894 86.7352 198.645 86.3292 200.413 85.9496V228.784H195.144V87.1678Z" fill="#CCCCCC"/>
<path d="M301.799 84.1753C303.559 84.5019 305.318 84.8374 307.069 85.1993V228.784H301.799V84.1753Z" fill="#CCCCCC"/>
<path d="M428.471 465.055H82.5203C76.2317 465.055 70.2007 467.549 65.754 471.989C61.3073 476.429 58.8092 482.451 58.8092 488.73C58.8092 495.009 61.3073 501.031 65.754 505.471C70.2007 509.91 76.2317 512.405 82.5203 512.405H428.471C431.838 512.405 435.167 511.688 438.234 510.302C441.302 508.915 444.038 506.89 446.259 504.363C447.264 503.221 448.158 501.985 448.929 500.673C449.525 499.667 450.042 498.617 450.476 497.531C451.92 493.939 452.46 490.048 452.048 486.2C451.636 482.352 450.284 478.663 448.112 475.457C445.94 472.252 443.014 469.627 439.589 467.813C436.165 466 432.347 465.053 428.471 465.055Z" fill="#CCCCCC"/>
<path d="M395.545 216.513H108.425V234.047H395.545V216.513Z" fill="#CCCCCC"/>
<path d="M249.351 211.253H254.619C255.888 211.253 257.144 211.502 258.316 211.987C259.487 212.472 260.552 213.182 261.449 214.077C262.346 214.973 263.057 216.036 263.543 217.206C264.028 218.376 264.278 219.63 264.278 220.897H239.693C239.693 218.339 240.71 215.886 242.522 214.077C244.333 212.269 246.79 211.253 249.351 211.253H249.351Z" fill="#CCCCCC"/>
<path d="M450.803 499.596C443.123 508.683 434.815 517.222 425.942 525.151H85.0576C76.1845 517.222 67.8775 508.683 60.1972 499.596H450.803Z" fill="#3F3D56"/>
<path d="M284.038 411.085H226.643C226.334 411.082 226.027 411.129 225.733 411.226C225.11 411.418 224.565 411.805 224.178 412.329C223.792 412.854 223.584 413.488 223.585 414.139V504.672H287.106V414.139C287.106 413.738 287.026 413.34 286.871 412.969C286.717 412.598 286.491 412.261 286.206 411.977C285.921 411.694 285.583 411.469 285.211 411.316C284.839 411.163 284.441 411.084 284.038 411.085ZM262.316 455.751C262.318 457.22 261.833 458.647 260.937 459.812C260.082 460.942 258.893 461.775 257.538 462.195C256.183 462.614 254.731 462.599 253.385 462.15C252.04 461.702 250.869 460.843 250.038 459.695C249.207 458.547 248.758 457.167 248.754 455.751V445.247C248.771 443.462 249.493 441.756 250.763 440.5C252.032 439.243 253.748 438.539 255.535 438.539C257.323 438.539 259.038 439.243 260.308 440.5C261.578 441.756 262.3 443.462 262.316 445.247V455.751Z" fill="#2F2E41"/>
<path d="M223.39 501.777V510.507C223.39 510.959 223.569 511.394 223.889 511.715C224.209 512.036 224.643 512.217 225.096 512.219H285.594C286.047 512.216 286.48 512.034 286.8 511.713C287.119 511.392 287.299 510.959 287.3 510.507V501.777H223.39Z" fill="#3F3D56"/>
<path d="M379.077 269.804H133.744C131.636 269.807 129.615 270.644 128.124 272.131C126.633 273.618 125.792 275.635 125.787 277.74V443.04C125.789 445.146 126.628 447.166 128.12 448.656C129.611 450.145 131.634 450.983 133.744 450.984H379.077C381.187 450.983 383.21 450.145 384.702 448.656C386.193 447.166 387.032 445.146 387.034 443.04V277.74C387.029 275.635 386.189 273.618 384.697 272.131C383.206 270.644 381.185 269.807 379.077 269.804Z" fill="#3F3D56"/>
<path d="M377.026 275.542H135.786C134.658 275.544 133.576 275.994 132.779 276.791C131.982 277.589 131.534 278.67 131.534 279.797V441.001C131.536 442.126 131.984 443.205 132.782 444.001C133.579 444.797 134.659 445.245 135.786 445.247H377.026C378.153 445.245 379.234 444.797 380.031 444.001C380.828 443.205 381.277 442.126 381.279 441.001V279.797C381.278 278.67 380.831 277.589 380.033 276.791C379.236 275.994 378.155 275.544 377.026 275.542Z" fill="#24A640"/>
<path d="M332.627 512.078L330.399 501.512C330.307 501.081 330.108 500.68 329.821 500.345C329.534 500.011 329.167 499.753 328.755 499.596C328.457 499.479 328.139 499.419 327.818 499.42H188.743C188.422 499.419 188.104 499.479 187.806 499.596C187.393 499.753 187.027 500.011 186.74 500.345C186.453 500.68 186.254 501.081 186.161 501.512L183.933 512.078C183.853 512.462 183.859 512.858 183.951 513.239C184.044 513.62 184.22 513.976 184.467 514.28C184.714 514.584 185.027 514.83 185.381 514.999C185.735 515.168 186.122 515.255 186.515 515.256H330.037C330.431 515.258 330.82 515.171 331.175 515.001C331.53 514.831 331.843 514.583 332.088 514.276C332.336 513.973 332.513 513.618 332.606 513.238C332.699 512.858 332.707 512.461 332.627 512.078Z" fill="#2F2E41"/>
<path d="M193.751 501.323H190.194C189.955 501.323 189.762 501.516 189.762 501.754V503.54C189.762 503.778 189.955 503.971 190.194 503.971H193.751C193.989 503.971 194.183 503.778 194.183 503.54V501.754C194.183 501.516 193.989 501.323 193.751 501.323Z" fill="#3F3D56"/>
<path d="M202.592 501.323H199.035C198.796 501.323 198.603 501.516 198.603 501.754V503.54C198.603 503.778 198.796 503.971 199.035 503.971H202.592C202.83 503.971 203.024 503.778 203.024 503.54V501.754C203.024 501.516 202.83 501.323 202.592 501.323Z" fill="#3F3D56"/>
<path d="M211.433 501.323H207.876C207.637 501.323 207.444 501.516 207.444 501.754V503.54C207.444 503.778 207.637 503.971 207.876 503.971H211.433C211.671 503.971 211.864 503.778 211.864 503.54V501.754C211.864 501.516 211.671 501.323 211.433 501.323Z" fill="#3F3D56"/>
<path d="M220.274 501.323H216.716C216.478 501.323 216.285 501.516 216.285 501.754V503.54C216.285 503.778 216.478 503.971 216.716 503.971H220.274C220.512 503.971 220.705 503.778 220.705 503.54V501.754C220.705 501.516 220.512 501.323 220.274 501.323Z" fill="#3F3D56"/>
<path d="M229.114 501.323H225.557C225.319 501.323 225.126 501.516 225.126 501.754V503.54C225.126 503.778 225.319 503.971 225.557 503.971H229.114C229.353 503.971 229.546 503.778 229.546 503.54V501.754C229.546 501.516 229.353 501.323 229.114 501.323Z" fill="#3F3D56"/>
<path d="M237.955 501.323H234.398C234.16 501.323 233.966 501.516 233.966 501.754V503.54C233.966 503.778 234.16 503.971 234.398 503.971H237.955C238.194 503.971 238.387 503.778 238.387 503.54V501.754C238.387 501.516 238.194 501.323 237.955 501.323Z" fill="#3F3D56"/>
<path d="M246.796 501.323H243.239C243 501.323 242.807 501.516 242.807 501.754V503.54C242.807 503.778 243 503.971 243.239 503.971H246.796C247.034 503.971 247.228 503.778 247.228 503.54V501.754C247.228 501.516 247.034 501.323 246.796 501.323Z" fill="#3F3D56"/>
<path d="M255.637 501.323H252.08C251.841 501.323 251.648 501.516 251.648 501.754V503.54C251.648 503.778 251.841 503.971 252.08 503.971H255.637C255.875 503.971 256.068 503.778 256.068 503.54V501.754C256.068 501.516 255.875 501.323 255.637 501.323Z" fill="#3F3D56"/>
<path d="M264.478 501.323H260.92C260.682 501.323 260.489 501.516 260.489 501.754V503.54C260.489 503.778 260.682 503.971 260.92 503.971H264.478C264.716 503.971 264.909 503.778 264.909 503.54V501.754C264.909 501.516 264.716 501.323 264.478 501.323Z" fill="#3F3D56"/>
<path d="M273.319 501.323H269.761C269.523 501.323 269.33 501.516 269.33 501.754V503.54C269.33 503.778 269.523 503.971 269.761 503.971H273.319C273.557 503.971 273.75 503.778 273.75 503.54V501.754C273.75 501.516 273.557 501.323 273.319 501.323Z" fill="#3F3D56"/>
<path d="M282.159 501.323H278.602C278.364 501.323 278.171 501.516 278.171 501.754V503.54C278.171 503.778 278.364 503.971 278.602 503.971H282.159C282.398 503.971 282.591 503.778 282.591 503.54V501.754C282.591 501.516 282.398 501.323 282.159 501.323Z" fill="#3F3D56"/>
<path d="M291 501.323H287.443C287.205 501.323 287.011 501.516 287.011 501.754V503.54C287.011 503.778 287.205 503.971 287.443 503.971H291C291.239 503.971 291.432 503.778 291.432 503.54V501.754C291.432 501.516 291.239 501.323 291 501.323Z" fill="#3F3D56"/>
<path d="M299.841 501.323H296.284C296.045 501.323 295.852 501.516 295.852 501.754V503.54C295.852 503.778 296.045 503.971 296.284 503.971H299.841C300.079 503.971 300.273 503.778 300.273 503.54V501.754C300.273 501.516 300.079 501.323 299.841 501.323Z" fill="#3F3D56"/>
<path d="M308.682 501.323H305.125C304.886 501.323 304.693 501.516 304.693 501.754V503.54C304.693 503.778 304.886 503.971 305.125 503.971H308.682C308.92 503.971 309.113 503.778 309.113 503.54V501.754C309.113 501.516 308.92 501.323 308.682 501.323Z" fill="#3F3D56"/>
<path d="M317.523 501.323H313.965C313.727 501.323 313.534 501.516 313.534 501.754V503.54C313.534 503.778 313.727 503.971 313.965 503.971H317.523C317.761 503.971 317.954 503.778 317.954 503.54V501.754C317.954 501.516 317.761 501.323 317.523 501.323Z" fill="#3F3D56"/>
<path d="M326.364 501.323H322.806C322.568 501.323 322.375 501.516 322.375 501.754V503.54C322.375 503.778 322.568 503.971 322.806 503.971H326.364C326.602 503.971 326.795 503.778 326.795 503.54V501.754C326.795 501.516 326.602 501.323 326.364 501.323Z" fill="#3F3D56"/>
<path d="M193.647 505.736H190.089C189.851 505.736 189.658 505.929 189.658 506.167V507.954C189.658 508.192 189.851 508.384 190.089 508.384H193.647C193.885 508.384 194.078 508.192 194.078 507.954V506.167C194.078 505.929 193.885 505.736 193.647 505.736Z" fill="#3F3D56"/>
<path d="M202.487 505.736H198.93C198.692 505.736 198.499 505.929 198.499 506.167V507.954C198.499 508.192 198.692 508.384 198.93 508.384H202.487C202.726 508.384 202.919 508.192 202.919 507.954V506.167C202.919 505.929 202.726 505.736 202.487 505.736Z" fill="#3F3D56"/>
<path d="M211.328 505.736H207.771C207.533 505.736 207.339 505.929 207.339 506.167V507.954C207.339 508.192 207.533 508.384 207.771 508.384H211.328C211.567 508.384 211.76 508.192 211.76 507.954V506.167C211.76 505.929 211.567 505.736 211.328 505.736Z" fill="#3F3D56"/>
<path d="M220.169 505.736H216.612C216.374 505.736 216.18 505.929 216.18 506.167V507.954C216.18 508.192 216.374 508.384 216.612 508.384H220.169C220.407 508.384 220.601 508.192 220.601 507.954V506.167C220.601 505.929 220.407 505.736 220.169 505.736Z" fill="#3F3D56"/>
<path d="M229.01 505.736H225.453C225.214 505.736 225.021 505.929 225.021 506.167V507.954C225.021 508.192 225.214 508.384 225.453 508.384H229.01C229.248 508.384 229.442 508.192 229.442 507.954V506.167C229.442 505.929 229.248 505.736 229.01 505.736Z" fill="#3F3D56"/>
<path d="M237.851 505.736H234.294C234.055 505.736 233.862 505.929 233.862 506.167V507.954C233.862 508.192 234.055 508.384 234.294 508.384H237.851C238.089 508.384 238.282 508.192 238.282 507.954V506.167C238.282 505.929 238.089 505.736 237.851 505.736Z" fill="#3F3D56"/>
<path d="M246.692 505.736H243.134C242.896 505.736 242.703 505.929 242.703 506.167V507.954C242.703 508.192 242.896 508.384 243.134 508.384H246.692C246.93 508.384 247.123 508.192 247.123 507.954V506.167C247.123 505.929 246.93 505.736 246.692 505.736Z" fill="#3F3D56"/>
<path d="M255.532 505.736H251.975C251.737 505.736 251.544 505.929 251.544 506.167V507.954C251.544 508.192 251.737 508.384 251.975 508.384H255.532C255.771 508.384 255.964 508.192 255.964 507.954V506.167C255.964 505.929 255.771 505.736 255.532 505.736Z" fill="#3F3D56"/>
<path d="M264.373 505.736H260.816C260.578 505.736 260.384 505.929 260.384 506.167V507.954C260.384 508.192 260.578 508.384 260.816 508.384H264.373C264.612 508.384 264.805 508.192 264.805 507.954V506.167C264.805 505.929 264.612 505.736 264.373 505.736Z" fill="#3F3D56"/>
<path d="M273.214 505.736H269.657C269.418 505.736 269.225 505.929 269.225 506.167V507.954C269.225 508.192 269.418 508.384 269.657 508.384H273.214C273.452 508.384 273.646 508.192 273.646 507.954V506.167C273.646 505.929 273.452 505.736 273.214 505.736Z" fill="#3F3D56"/>
<path d="M282.055 505.736H278.498C278.259 505.736 278.066 505.929 278.066 506.167V507.954C278.066 508.192 278.259 508.384 278.498 508.384H282.055C282.293 508.384 282.486 508.192 282.486 507.954V506.167C282.486 505.929 282.293 505.736 282.055 505.736Z" fill="#3F3D56"/>
<path d="M290.896 505.736H287.339C287.1 505.736 286.907 505.929 286.907 506.167V507.954C286.907 508.192 287.1 508.384 287.339 508.384H290.896C291.134 508.384 291.327 508.192 291.327 507.954V506.167C291.327 505.929 291.134 505.736 290.896 505.736Z" fill="#3F3D56"/>
<path d="M299.737 505.736H296.179C295.941 505.736 295.748 505.929 295.748 506.167V507.954C295.748 508.192 295.941 508.384 296.179 508.384H299.737C299.975 508.384 300.168 508.192 300.168 507.954V506.167C300.168 505.929 299.975 505.736 299.737 505.736Z" fill="#3F3D56"/>
<path d="M308.577 505.736H305.02C304.782 505.736 304.589 505.929 304.589 506.167V507.954C304.589 508.192 304.782 508.384 305.02 508.384H308.577C308.816 508.384 309.009 508.192 309.009 507.954V506.167C309.009 505.929 308.816 505.736 308.577 505.736Z" fill="#3F3D56"/>
<path d="M317.418 505.736H313.861C313.623 505.736 313.429 505.929 313.429 506.167V507.954C313.429 508.192 313.623 508.384 313.861 508.384H317.418C317.657 508.384 317.85 508.192 317.85 507.954V506.167C317.85 505.929 317.657 505.736 317.418 505.736Z" fill="#3F3D56"/>
<path d="M326.259 505.736H322.702C322.463 505.736 322.27 505.929 322.27 506.167V507.954C322.27 508.192 322.463 508.384 322.702 508.384H326.259C326.497 508.384 326.691 508.192 326.691 507.954V506.167C326.691 505.929 326.497 505.736 326.259 505.736Z" fill="#3F3D56"/>
<path d="M267.025 511.033H232.525C232.287 511.033 232.094 511.226 232.094 511.464V513.25C232.094 513.488 232.287 513.681 232.525 513.681H267.025C267.264 513.681 267.457 513.488 267.457 513.25V511.464C267.457 511.226 267.264 511.033 267.025 511.033Z" fill="#3F3D56"/>
<path d="M364.904 297.749H139.177C138.942 297.743 138.719 297.647 138.555 297.479C138.39 297.312 138.298 297.087 138.298 296.852C138.298 296.618 138.39 296.393 138.555 296.225C138.719 296.058 138.942 295.961 139.177 295.956H364.904C365.138 295.961 365.362 296.058 365.526 296.225C365.69 296.393 365.782 296.618 365.782 296.852C365.782 297.087 365.69 297.312 365.526 297.479C365.362 297.647 365.138 297.743 364.904 297.749Z" fill="#3F3D56"/>
<path d="M154.542 291.38C157.448 291.38 159.803 288.976 159.803 286.01C159.803 283.045 157.448 280.64 154.542 280.64C151.637 280.64 149.281 283.045 149.281 286.01C149.281 288.976 151.637 291.38 154.542 291.38Z" fill="#3F3D56"/>
<path d="M172.715 291.38C175.621 291.38 177.976 288.976 177.976 286.01C177.976 283.045 175.621 280.64 172.715 280.64C169.81 280.64 167.455 283.045 167.455 286.01C167.455 288.976 169.81 291.38 172.715 291.38Z" fill="#3F3D56"/>
<path d="M190.889 291.38C193.794 291.38 196.149 288.976 196.149 286.01C196.149 283.045 193.794 280.64 190.889 280.64C187.983 280.64 185.628 283.045 185.628 286.01C185.628 288.976 187.983 291.38 190.889 291.38Z" fill="#3F3D56"/>
<path d="M353.96 281.968H341.053C340.798 281.974 340.555 282.08 340.376 282.262C340.198 282.444 340.098 282.689 340.098 282.944C340.098 283.199 340.198 283.443 340.376 283.626C340.555 283.808 340.798 283.913 341.053 283.919H353.96C354.217 283.916 354.462 283.811 354.642 283.629C354.823 283.446 354.924 283.2 354.924 282.944C354.924 282.687 354.823 282.441 354.642 282.259C354.462 282.076 354.217 281.972 353.96 281.968Z" fill="#3F3D56"/>
<path d="M353.96 285.632H341.053C340.797 285.637 340.554 285.743 340.376 285.925C340.197 286.107 340.097 286.352 340.097 286.607C340.097 286.862 340.197 287.107 340.376 287.289C340.554 287.472 340.797 287.577 341.053 287.582H353.96C354.217 287.579 354.463 287.475 354.644 287.293C354.824 287.11 354.926 286.864 354.926 286.607C354.926 286.35 354.824 286.104 354.644 285.921C354.463 285.739 354.217 285.635 353.96 285.632Z" fill="#3F3D56"/>
<path d="M353.96 289.295H341.053C340.798 289.301 340.555 289.406 340.376 289.589C340.198 289.771 340.098 290.016 340.098 290.27C340.098 290.525 340.198 290.77 340.376 290.952C340.555 291.134 340.798 291.24 341.053 291.246H353.96C354.217 291.242 354.462 291.138 354.642 290.955C354.823 290.773 354.924 290.527 354.924 290.27C354.924 290.014 354.823 289.768 354.642 289.585C354.462 289.403 354.217 289.299 353.96 289.295Z" fill="#3F3D56"/>
<path d="M158.64 318.578H154.002C152.596 318.578 151.456 319.716 151.456 321.12C151.456 322.524 152.596 323.662 154.002 323.662H158.64C160.046 323.662 161.186 322.524 161.186 321.12C161.186 319.716 160.046 318.578 158.64 318.578Z" fill="#E6E6E6"/>
<path d="M211.685 318.578H207.047C205.641 318.578 204.501 319.716 204.501 321.12C204.501 322.524 205.641 323.662 207.047 323.662H211.685C213.091 323.662 214.231 322.524 214.231 321.12C214.231 319.716 213.091 318.578 211.685 318.578Z" fill="#E6E6E6"/>
<path d="M226.714 318.578H222.076C220.67 318.578 219.53 319.716 219.53 321.12C219.53 322.524 220.67 323.662 222.076 323.662H226.714C228.121 323.662 229.261 322.524 229.261 321.12C229.261 319.716 228.121 318.578 226.714 318.578Z" fill="#E6E6E6"/>
<path d="M197.257 318.154H168.43C167.024 318.154 165.884 319.292 165.884 320.696C165.884 322.1 167.024 323.239 168.43 323.239H197.257C198.663 323.239 199.803 322.1 199.803 320.696C199.803 319.292 198.663 318.154 197.257 318.154Z" fill="#E6E6E6"/>
<path d="M267.983 318.154H239.157C237.751 318.154 236.611 319.292 236.611 320.696C236.611 322.1 237.751 323.239 239.157 323.239H267.983C269.389 323.239 270.529 322.1 270.529 320.696C270.529 319.292 269.389 318.154 267.983 318.154Z" fill="#E6E6E6"/>
<path d="M172.785 330.053H168.147C166.741 330.053 165.601 331.192 165.601 332.596C165.601 334 166.741 335.138 168.147 335.138H172.785C174.192 335.138 175.332 334 175.332 332.596C175.332 331.192 174.192 330.053 172.785 330.053Z" fill="#E6E6E6"/>
<path d="M225.83 330.053H221.192C219.786 330.053 218.646 331.192 218.646 332.596C218.646 334 219.786 335.138 221.192 335.138H225.83C227.237 335.138 228.377 334 228.377 332.596C228.377 331.192 227.237 330.053 225.83 330.053Z" fill="#E6E6E6"/>
<path d="M240.86 330.053H236.222C234.816 330.053 233.676 331.192 233.676 332.596C233.676 334 234.816 335.138 236.222 335.138H240.86C242.266 335.138 243.406 334 243.406 332.596C243.406 331.192 242.266 330.053 240.86 330.053Z" fill="#E6E6E6"/>
<path d="M211.402 329.63H182.576C181.17 329.63 180.03 330.768 180.03 332.172C180.03 333.576 181.17 334.714 182.576 334.714H211.402C212.808 334.714 213.948 333.576 213.948 332.172C213.948 330.768 212.808 329.63 211.402 329.63Z" fill="#E6E6E6"/>
<path d="M282.129 329.63H253.302C251.896 329.63 250.756 330.768 250.756 332.172C250.756 333.576 251.896 334.714 253.302 334.714H282.129C283.535 334.714 284.675 333.576 284.675 332.172C284.675 330.768 283.535 329.63 282.129 329.63Z" fill="#E6E6E6"/>
<path d="M186.931 341.529H182.293C180.887 341.529 179.747 342.667 179.747 344.071C179.747 345.475 180.887 346.613 182.293 346.613H186.931C188.337 346.613 189.477 345.475 189.477 344.071C189.477 342.667 188.337 341.529 186.931 341.529Z" fill="#E6E6E6"/>
<path d="M239.976 341.529H235.338C233.931 341.529 232.792 342.667 232.792 344.071C232.792 345.475 233.931 346.613 235.338 346.613H239.976C241.382 346.613 242.522 345.475 242.522 344.071C242.522 342.667 241.382 341.529 239.976 341.529Z" fill="#E6E6E6"/>
<path d="M255.005 341.529H250.367C248.961 341.529 247.821 342.667 247.821 344.071C247.821 345.475 248.961 346.613 250.367 346.613H255.005C256.411 346.613 257.551 345.475 257.551 344.071C257.551 342.667 256.411 341.529 255.005 341.529Z" fill="#E6E6E6"/>
<path d="M225.547 341.105H196.721C195.315 341.105 194.175 342.243 194.175 343.647C194.175 345.051 195.315 346.19 196.721 346.19H225.547C226.953 346.19 228.093 345.051 228.093 343.647C228.093 342.243 226.953 341.105 225.547 341.105Z" fill="#E6E6E6"/>
<path d="M296.274 341.105H267.448C266.042 341.105 264.902 342.243 264.902 343.647C264.902 345.051 266.042 346.19 267.448 346.19H296.274C297.68 346.19 298.82 345.051 298.82 343.647C298.82 342.243 297.68 341.105 296.274 341.105Z" fill="#E6E6E6"/>
<path d="M201.076 353.004H196.438C195.032 353.004 193.892 354.143 193.892 355.547C193.892 356.951 195.032 358.089 196.438 358.089H201.076C202.482 358.089 203.622 356.951 203.622 355.547C203.622 354.143 202.482 353.004 201.076 353.004Z" fill="#E6E6E6"/>
<path d="M254.121 353.004H249.483C248.077 353.004 246.937 354.143 246.937 355.547C246.937 356.951 248.077 358.089 249.483 358.089H254.121C255.527 358.089 256.667 356.951 256.667 355.547C256.667 354.143 255.527 353.004 254.121 353.004Z" fill="#E6E6E6"/>
<path d="M269.15 353.004H264.512C263.106 353.004 261.966 354.143 261.966 355.547C261.966 356.951 263.106 358.089 264.512 358.089H269.15C270.557 358.089 271.697 356.951 271.697 355.547C271.697 354.143 270.557 353.004 269.15 353.004Z" fill="#E6E6E6"/>
<path d="M239.693 352.581H210.866C209.46 352.581 208.32 353.719 208.32 355.123C208.32 356.527 209.46 357.665 210.866 357.665H239.693C241.099 357.665 242.239 356.527 242.239 355.123C242.239 353.719 241.099 352.581 239.693 352.581Z" fill="#E6E6E6"/>
<path d="M211.685 398.636H207.047C205.641 398.636 204.501 399.774 204.501 401.178C204.501 402.582 205.641 403.72 207.047 403.72H211.685C213.091 403.72 214.231 402.582 214.231 401.178C214.231 399.774 213.091 398.636 211.685 398.636Z" fill="#E6E6E6"/>
<path d="M226.714 398.636H222.076C220.67 398.636 219.53 399.774 219.53 401.178C219.53 402.582 220.67 403.72 222.076 403.72H226.714C228.121 403.72 229.261 402.582 229.261 401.178C229.261 399.774 228.121 398.636 226.714 398.636Z" fill="#E6E6E6"/>
<path d="M267.983 399.06H239.157C237.751 399.06 236.611 400.198 236.611 401.602C236.611 403.006 237.751 404.144 239.157 404.144H267.983C269.389 404.144 270.529 403.006 270.529 401.602C270.529 400.198 269.389 399.06 267.983 399.06Z" fill="#E6E6E6"/>
<path d="M158.64 398.636H154.002C152.596 398.636 151.456 399.774 151.456 401.178C151.456 402.582 152.596 403.72 154.002 403.72H158.64C160.046 403.72 161.186 402.582 161.186 401.178C161.186 399.774 160.046 398.636 158.64 398.636Z" fill="#E6E6E6"/>
<path d="M197.257 399.06H168.43C167.024 399.06 165.884 400.198 165.884 401.602C165.884 403.006 167.024 404.144 168.43 404.144H197.257C198.663 404.144 199.803 403.006 199.803 401.602C199.803 400.198 198.663 399.06 197.257 399.06Z" fill="#E6E6E6"/>
<path d="M172.785 387.16H168.147C166.741 387.16 165.601 388.298 165.601 389.702C165.601 391.107 166.741 392.245 168.147 392.245H172.785C174.192 392.245 175.332 391.107 175.332 389.702C175.332 388.298 174.192 387.16 172.785 387.16Z" fill="#E6E6E6"/>
<path d="M225.83 387.16H221.192C219.786 387.16 218.646 388.298 218.646 389.702C218.646 391.107 219.786 392.245 221.192 392.245H225.83C227.237 392.245 228.377 391.107 228.377 389.702C228.377 388.298 227.237 387.16 225.83 387.16Z" fill="#E6E6E6"/>
<path d="M240.86 387.16H236.222C234.816 387.16 233.676 388.298 233.676 389.702C233.676 391.107 234.816 392.245 236.222 392.245H240.86C242.266 392.245 243.406 391.107 243.406 389.702C243.406 388.298 242.266 387.16 240.86 387.16Z" fill="#E6E6E6"/>
<path d="M211.402 387.584H182.576C181.17 387.584 180.03 388.722 180.03 390.126C180.03 391.53 181.17 392.669 182.576 392.669H211.402C212.808 392.669 213.948 391.53 213.948 390.126C213.948 388.722 212.808 387.584 211.402 387.584Z" fill="#E6E6E6"/>
<path d="M186.931 375.685H182.293C180.887 375.685 179.747 376.823 179.747 378.227C179.747 379.631 180.887 380.769 182.293 380.769H186.931C188.337 380.769 189.477 379.631 189.477 378.227C189.477 376.823 188.337 375.685 186.931 375.685Z" fill="#E6E6E6"/>
<path d="M239.976 375.685H235.338C233.931 375.685 232.792 376.823 232.792 378.227C232.792 379.631 233.931 380.769 235.338 380.769H239.976C241.382 380.769 242.522 379.631 242.522 378.227C242.522 376.823 241.382 375.685 239.976 375.685Z" fill="#E6E6E6"/>
<path d="M255.005 375.685H250.367C248.961 375.685 247.821 376.823 247.821 378.227C247.821 379.631 248.961 380.769 250.367 380.769H255.005C256.411 380.769 257.551 379.631 257.551 378.227C257.551 376.823 256.411 375.685 255.005 375.685Z" fill="#E6E6E6"/>
<path d="M225.547 376.109H196.721C195.315 376.109 194.175 377.247 194.175 378.651C194.175 380.055 195.315 381.193 196.721 381.193H225.547C226.953 381.193 228.093 380.055 228.093 378.651C228.093 377.247 226.953 376.109 225.547 376.109Z" fill="#E6E6E6"/>
<path d="M201.076 364.209H196.438C195.032 364.209 193.892 365.348 193.892 366.752C193.892 368.156 195.032 369.294 196.438 369.294H201.076C202.482 369.294 203.622 368.156 203.622 366.752C203.622 365.348 202.482 364.209 201.076 364.209Z" fill="#E6E6E6"/>
<path d="M254.121 364.209H249.483C248.077 364.209 246.937 365.348 246.937 366.752C246.937 368.156 248.077 369.294 249.483 369.294H254.121C255.527 369.294 256.667 368.156 256.667 366.752C256.667 365.348 255.527 364.209 254.121 364.209Z" fill="#E6E6E6"/>
<path d="M269.15 364.209H264.512C263.106 364.209 261.966 365.348 261.966 366.752C261.966 368.156 263.106 369.294 264.512 369.294H269.15C270.557 369.294 271.697 368.156 271.697 366.752C271.697 365.348 270.557 364.209 269.15 364.209Z" fill="#E6E6E6"/>
<path d="M239.693 364.633H210.866C209.46 364.633 208.32 365.771 208.32 367.175C208.32 368.579 209.46 369.718 210.866 369.718H239.693C241.099 369.718 242.239 368.579 242.239 367.175C242.239 365.771 241.099 364.633 239.693 364.633Z" fill="#E6E6E6"/>
<path d="M367.611 564.415C367.071 564.689 366.523 564.962 365.984 565.227C352.015 572.201 340.841 576.164 325.555 580.507C324.264 566.119 323.017 540.828 321.806 525.151C321.488 521.082 321.17 517.666 320.86 515.256C320.782 513.975 320.52 512.711 320.082 511.504L320.135 515.256L320.268 525.151L321.037 581.743C302.023 586.766 282.49 589.577 262.829 590.12C261.804 590.147 260.796 590.164 259.823 590.182C259.478 590.191 259.142 590.199 258.806 590.199C257.701 590.208 256.605 590.217 255.5 590.217C234.781 590.232 214.136 587.734 194.021 582.776C194.454 568.537 194.887 543.53 195.303 525.151C195.391 521.559 195.471 518.213 195.559 515.256C195.727 508.936 195.904 504.381 196.072 502.854C195.923 503.124 195.807 503.412 195.727 503.71C194.908 507.516 194.35 511.374 194.056 515.256C193.747 518.213 193.437 521.559 193.128 525.151C191.484 544.245 189.768 570.206 188 581.213C177.476 578.344 167.149 574.797 157.084 570.594C151.779 568.387 146.569 566.007 141.453 563.453C142.426 557.097 143.442 549.974 144.486 542.585C145.299 536.856 146.139 530.968 146.996 525.151C148.323 516.165 149.684 507.355 151.063 499.596C153.079 488.262 155.148 479.152 157.199 474.968C159.144 470.996 161.089 467.077 162.972 463.325C163.626 462.01 164.28 460.712 164.917 459.45C165.067 459.15 165.217 458.858 165.368 458.567C166.72 455.91 168.029 453.368 169.275 450.984C170.345 448.945 171.362 447.021 172.326 445.247C174.659 440.939 176.64 437.505 178.107 435.334C184.243 426.041 193.377 419.123 203.993 415.728L204.259 415.658L204.444 415.737L222.524 410.193L225.167 409.381L226.944 408.834L233.203 404.076L236.607 401.49L239.799 399.062L246.04 394.322L284.684 396.697L292.207 414.784L309.058 420.936L309.35 420.804L309.606 420.698L309.871 420.769C320.486 424.166 329.619 431.084 335.757 440.374C336.588 441.619 337.596 443.261 338.736 445.247C339.709 446.933 340.77 448.857 341.919 450.984C343.555 454.012 345.341 457.428 347.232 461.127C347.648 461.939 348.072 462.769 348.497 463.607C349.284 465.161 350.082 466.747 350.893 468.365C352.776 472.117 354.721 476.036 356.666 480.017C358.354 483.469 360.061 490.566 361.74 499.596C363.128 507.099 364.507 515.944 365.842 525.151C367.593 537.086 365.727 551.377 367.31 562.358C367.407 563.056 367.513 563.735 367.611 564.415Z" fill="#3F3D56"/>
<path d="M256.044 379.885C280.865 379.885 300.987 359.794 300.987 335.01C300.987 310.226 280.865 290.135 256.044 290.135C231.222 290.135 211.1 310.226 211.1 335.01C211.1 359.794 231.222 379.885 256.044 379.885Z" fill="#A0616A"/>
<path d="M330.161 275.542C329.273 273.471 328.09 271.539 326.651 269.804C319.826 261.48 307.413 257.817 294.674 267.668C292.221 267.121 289.665 267.268 287.292 268.092C286.171 268.497 285.121 269.075 284.18 269.804C282.251 271.307 280.746 273.284 279.812 275.542C279.313 276.735 278.986 277.992 278.84 279.276C275.691 277.642 272.358 276.389 268.912 275.542C260.456 273.442 251.614 273.442 243.158 275.542C240.449 276.226 237.839 277.259 235.396 278.614C231.258 280.997 228.88 284.007 228.456 287.353C222.488 287.688 216.282 290.822 211.658 295.96C211.137 296.533 210.633 297.134 210.164 297.752C206.276 302.832 204.186 309.057 204.223 315.45V316.571H205.346C208.422 316.568 211.47 317.162 214.319 318.319C216.166 319.06 217.915 320.023 219.527 321.188C220.581 321.935 221.577 322.761 222.506 323.66C224.659 325.741 226.484 328.137 227.917 330.766C231.59 337.408 232.863 345.109 231.524 352.578C231.216 354.307 230.767 356.007 230.18 357.662C229.345 360.024 228.244 362.283 226.9 364.398C226.847 364.477 226.803 364.556 226.75 364.636C226.157 365.58 225.591 366.543 225.061 367.514C224.663 368.237 224.292 368.979 223.947 369.72C222.939 371.784 222.088 373.92 221.401 376.111C220.171 379.986 219.445 384.003 219.244 388.063C219.182 389.14 219.164 390.217 219.2 391.294C219.252 394.07 219.557 396.836 220.11 399.557C220.19 399.927 220.269 400.289 220.349 400.66L220.994 403.476L222.524 410.194L223.585 414.819L224.566 419.109L226.016 417.035C226.511 416.328 227.757 414.157 229.428 411.085C230.534 409.081 231.815 406.689 233.203 404.076C235.14 400.413 237.261 396.326 239.339 392.248C240.179 390.597 241.01 388.955 241.814 387.349C243.335 384.303 244.767 381.364 245.996 378.751C247.128 376.341 248.091 374.205 248.807 372.492C249.029 373.613 249.214 374.752 249.356 375.9C249.515 377.065 249.63 378.248 249.692 379.43C249.709 379.607 249.718 379.792 249.727 379.969L249.762 380.693L249.771 380.905L250.708 381.028C256.113 381.606 261.562 381.647 266.975 381.152H266.984C274.155 380.613 281.191 378.91 287.813 376.111C291.575 374.482 295.087 372.331 298.245 369.72C299.721 368.5 301.099 367.166 302.365 365.731C302.684 365.369 302.993 365.007 303.294 364.636C305.043 362.489 306.541 360.149 307.758 357.662C308.573 356.021 309.265 354.322 309.827 352.578C313.222 342.312 313.027 329.503 309.243 314.285C310.266 314.089 311.244 313.712 312.134 313.173C314.91 311.505 316.838 308.194 317.439 304.151L318.394 304.407C321.779 302.833 324.794 300.565 327.243 297.752C327.728 297.179 328.183 296.581 328.605 295.96C332.928 289.604 332.963 281.977 330.161 275.542Z" fill="#2F2E41"/>
<path opacity="0.2" d="M182.404 499.557L189.916 470.611L196.549 495.589L182.404 499.557Z" fill="black"/>
<path d="M382.304 480.697C379.616 517.666 382.401 533.943 367.566 564.424C354.069 571.02 340.009 576.403 325.555 580.507C324.052 580.931 322.546 581.343 321.037 581.743C302.023 586.766 282.49 589.577 262.829 590.12C261.803 590.147 260.796 590.164 259.823 590.182C259.478 590.191 259.142 590.199 258.806 590.199C257.701 590.208 256.605 590.217 255.5 590.217C234.781 590.232 214.136 587.734 194.021 582.776C192.005 582.281 189.998 581.761 188 581.213C177.476 578.344 167.149 574.797 157.084 570.594C151.779 568.387 146.569 566.007 141.453 563.453C140.295 562.87 139.137 562.288 137.997 561.687C132.135 551.395 128.802 538.878 128.731 523.836C132.789 497.919 373.339 458.346 382.304 480.697Z" fill="#2F2E41"/>
<path opacity="0.2" d="M382.297 487.028C382.434 484.739 382.588 482.375 382.767 479.913C373.802 457.563 133.252 497.135 129.194 523.052C129.205 525.428 129.307 527.734 129.478 529.986C139.305 504.406 367.831 466.794 382.297 487.028Z" fill="black"/>
<path d="M144.19 382.027C144.249 381.227 144.135 380.423 143.856 379.67C143.578 378.918 143.141 378.233 142.575 377.663C142.01 377.093 141.328 376.651 140.577 376.366C139.826 376.081 139.022 375.96 138.22 376.011C137.921 376.022 137.624 376.059 137.331 376.122L102.178 384.051C101.393 384.241 100.656 384.593 100.015 385.085C99.3743 385.577 98.8437 386.198 98.4575 386.907C97.942 386.926 97.4301 387 96.9304 387.128C95.8365 387.376 94.8021 387.836 93.8863 388.483C92.9706 389.13 92.1913 389.95 91.5931 390.897C90.9949 391.845 90.5895 392.901 90.3999 394.004C90.2104 395.108 90.2405 396.239 90.4884 397.331C90.7364 398.423 91.1974 399.456 91.8451 400.37C92.4928 401.285 93.3145 402.063 94.2634 402.66C96.1796 403.866 98.4974 404.263 100.707 403.763C101.964 403.472 103.141 402.903 104.15 402.1L116.062 435.591C116.657 436.64 117.576 437.47 118.682 437.954C119.788 438.439 121.022 438.553 122.198 438.28L145.051 433.123C146.218 432.85 147.269 432.215 148.052 431.308C148.835 430.402 149.311 429.271 149.41 428.077L144.19 382.027ZM100.179 401.379C98.6013 401.734 96.9467 401.45 95.5781 400.589C94.2096 399.729 93.2388 398.361 92.8785 396.787C92.5183 395.212 92.7981 393.559 93.6566 392.191C94.515 390.822 95.8821 389.849 97.458 389.485C97.569 389.457 97.6802 389.485 97.7912 389.457C97.7828 390.467 98.0414 391.462 98.5409 392.34L102.9 399.937C102.141 400.656 101.201 401.154 100.179 401.379Z" fill="#2F2E41"/>
<path d="M138.22 376.011C138.553 380.447 130.945 385.548 120.755 387.572C111.397 389.485 103.011 388.154 100.651 384.661C101.126 384.38 101.641 384.174 102.178 384.051L137.331 376.122C137.624 376.059 137.921 376.022 138.22 376.011Z" fill="#3F3D56"/>
<path d="M113.908 488.62L133.653 478.762L117.199 434.405L112.863 412.034C112.299 409.128 110.982 406.42 109.042 404.182C107.102 401.943 104.608 400.252 101.808 399.277C99.0089 398.303 96.0023 398.079 93.0889 398.628C90.1756 399.177 87.4576 400.48 85.2066 402.406C81.8708 405.261 79.7764 409.298 79.3652 413.666C78.9541 418.033 80.2584 422.389 83.003 425.815L99.0997 445.905L113.908 488.62Z" fill="#A0616A"/>
<path d="M133.653 470.548L107.327 483.691L127.306 546.196C128.74 550.685 131.312 554.727 134.772 557.931C138.232 561.135 142.462 563.392 147.052 564.483C152.712 565.829 158.655 565.34 164.018 563.086C169.381 560.833 173.885 556.933 176.879 551.951L229.857 461.283C233.612 455.035 234.771 447.569 233.087 440.48C231.402 433.39 227.008 427.24 220.844 423.341C217.528 421.244 213.807 419.868 209.924 419.302C206.04 418.736 202.081 418.993 198.303 420.056C194.526 421.119 191.015 422.964 187.999 425.472C184.983 427.979 182.529 431.092 180.798 434.609L148.462 503.406L133.653 470.548Z" fill="#3F3D56"/>
<path d="M125.51 414.061C125.461 414.061 125.413 414.053 125.367 414.037L119.619 412.061C119.549 412.037 119.487 411.997 119.437 411.943C119.387 411.889 119.352 411.824 119.334 411.753C119.316 411.682 119.316 411.607 119.334 411.536C119.352 411.465 119.387 411.4 119.437 411.346L123.712 406.698C123.751 406.655 123.798 406.621 123.851 406.596C123.904 406.571 123.961 406.557 124.019 406.555C124.077 406.552 124.135 406.561 124.19 406.581C124.245 406.601 124.295 406.631 124.338 406.67C124.38 406.71 124.415 406.757 124.44 406.81C124.464 406.862 124.478 406.919 124.48 406.977C124.483 407.035 124.474 407.093 124.453 407.148C124.433 407.202 124.403 407.252 124.363 407.295L120.545 411.446L125.654 413.202C125.753 413.236 125.837 413.304 125.89 413.394C125.944 413.484 125.964 413.59 125.946 413.693C125.929 413.796 125.876 413.889 125.796 413.957C125.716 414.024 125.615 414.061 125.51 414.061Z" fill="#24A640"/>
<path d="M133.389 412.451C133.301 412.451 133.215 412.425 133.142 412.375C133.069 412.326 133.012 412.256 132.979 412.175C132.946 412.093 132.938 412.004 132.957 411.918C132.975 411.832 133.018 411.753 133.082 411.692L136.967 407.941L131.748 405.794C131.694 405.772 131.645 405.74 131.604 405.699C131.563 405.658 131.53 405.609 131.508 405.556C131.485 405.502 131.474 405.445 131.474 405.387C131.474 405.329 131.485 405.272 131.507 405.218C131.529 405.164 131.562 405.116 131.603 405.075C131.644 405.033 131.692 405.001 131.746 404.979C131.8 404.956 131.857 404.945 131.915 404.945C131.973 404.945 132.031 404.956 132.085 404.979L137.928 407.383C137.996 407.411 138.056 407.455 138.102 407.512C138.148 407.568 138.18 407.636 138.194 407.708C138.207 407.78 138.203 407.854 138.181 407.924C138.159 407.994 138.12 408.057 138.067 408.108L133.696 412.327C133.614 412.406 133.504 412.451 133.389 412.451Z" fill="#24A640"/>
<path d="M126.717 416.761C126.673 416.761 126.629 416.754 126.587 416.741C126.532 416.724 126.48 416.696 126.435 416.659C126.39 416.623 126.353 416.577 126.326 416.526C126.299 416.475 126.282 416.419 126.277 416.361C126.271 416.303 126.277 416.245 126.294 416.189L130.374 402.949C130.409 402.837 130.487 402.744 130.59 402.689C130.694 402.635 130.815 402.624 130.927 402.658C131.039 402.693 131.132 402.77 131.187 402.873C131.242 402.976 131.254 403.097 131.219 403.209L127.14 416.45C127.112 416.54 127.056 416.619 126.98 416.675C126.904 416.731 126.812 416.761 126.717 416.761Z" fill="#24A640"/>
</g>
<defs>
<clipPath id="clip0_22_203">
<rect width="511" height="510.217" fill="white" transform="translate(0 80)"/>
</clipPath>
</defs>
</svg>
