<svg width="556" height="771" viewBox="0 0 556 771" fill="none" xmlns="http://www.w3.org/2000/svg">
<path fill-rule="evenodd" clip-rule="evenodd" d="M371.873 313.057C404.822 356.486 494.041 378.898 481.23 431.884C468.083 486.258 366.847 454.639 327.926 494.821C295.962 527.82 320.671 589.744 292.884 626.331C262.987 665.698 218.168 708.074 168.885 704.231C117.901 700.256 100.108 625.562 52.2403 607.568C-0.0701304 587.904 -91.9264 649.991 -113.048 598.253C-138.824 535.112 -37.7391 483.119 -25.9895 415.939C-20.158 382.597 -52.5395 355.038 -65.0062 323.569C-88.1816 265.068 -157.571 206.746 -131.561 149.449C-108.68 99.0455 -25.3592 126.558 29.0506 116.376C70.2032 108.674 111.043 85.6017 151.471 96.4818C191.368 107.219 212.575 149.894 245.643 174.665C271.55 194.072 304.087 203.229 325.901 227.145C348.067 251.446 351.993 286.853 371.873 313.057Z" fill="#00B0CC"/>
<path d="M296.357 212.417C304.969 212.417 311.95 202.848 311.95 191.044C311.95 179.241 304.969 169.672 296.357 169.672C287.746 169.672 280.764 179.241 280.764 191.044C280.764 202.848 287.746 212.417 296.357 212.417Z" fill="#FD6584"/>
<path d="M331.255 180.924C330.815 178.948 329.963 177.191 328.804 175.87C327.645 174.548 326.23 173.721 324.732 173.488C324.697 173.484 324.662 173.484 324.627 173.488C324.585 173.47 324.542 173.457 324.498 173.448C319.278 172.52 313.473 174.777 309.566 179.692C308.116 181.487 306.956 183.679 306.161 186.127C305.437 184.771 304.483 183.678 303.381 182.941C302.278 182.205 301.062 181.848 299.837 181.901C298.256 182.044 296.747 182.852 295.513 184.214C294.28 185.576 293.384 187.427 292.946 189.513C292.898 189.768 292.911 190.037 292.983 190.281C293.056 190.525 293.184 190.73 293.349 190.866C293.818 191.416 294.377 191.806 294.978 192.002C296.269 192.379 297.571 192.723 298.873 193.035C301.419 193.643 303.979 194.137 306.553 194.516C308.252 194.764 309.955 194.961 311.662 195.108C315.19 195.412 318.734 195.484 322.268 195.332C324.019 195.252 325.701 195.172 327.301 194.115C328.467 193.329 329.464 192.14 330.192 190.666C330.878 189.247 331.328 187.64 331.512 185.956C331.696 184.273 331.608 182.556 331.255 180.924Z" fill="#E6E6E6"/>
<path d="M299.177 212.061C299.147 211.166 299.038 210.279 298.85 209.42C298.408 207.444 297.555 205.687 296.395 204.366C295.235 203.045 293.819 202.217 292.321 201.984C292.288 201.98 292.255 201.98 292.222 201.984C292.178 201.967 292.133 201.953 292.087 201.944C289.198 201.459 286.266 201.872 283.509 203.152C279.269 205.098 275.549 209.02 273.756 214.623C273.031 213.266 272.076 212.172 270.973 211.436C269.87 210.699 268.652 210.342 267.426 210.396C265.845 210.54 264.336 211.347 263.102 212.71C261.869 214.072 260.973 215.922 260.535 218.009C260.489 218.264 260.504 218.532 260.576 218.775C260.649 219.018 260.775 219.223 260.938 219.361C261.408 219.91 261.966 220.3 262.567 220.498C263.863 220.874 265.16 221.218 266.468 221.531C269.014 222.139 271.572 222.633 274.142 223.011C279.362 223.78 284.615 224.052 289.862 223.828C291.609 223.748 293.296 223.668 294.896 222.611C296.061 221.825 297.055 220.636 297.781 219.161C298.805 217.07 299.296 214.574 299.177 212.061Z" fill="#E6E6E6"/>
<path d="M502.257 471.395C502.481 485.968 501.014 500.496 497.911 514.437C497.802 514.944 497.672 515.45 497.541 515.956H433.563C434.477 509.783 435.929 503.783 437.887 498.084C443.212 482.595 451.904 469.34 460.488 456.174C472.311 438.034 483.85 420.043 485.676 396.452C490.362 406.243 494.102 416.827 496.802 427.936C493.496 429.615 490.462 432.165 487.871 435.443C487.153 436.366 486.393 437.706 486.762 438.987C487.11 440.06 488.066 440.417 488.914 440.655C490.956 441.191 492.999 441.728 495.042 442.234C496.65 442.681 498.28 443.098 499.91 443.515C501.343 452.684 502.129 462.02 502.257 471.395Z" fill="#F2F2F2"/>
<path d="M556 461.744C545.743 470.293 539.223 483.519 533.899 498.323C529.266 499.77 524.988 502.85 521.49 507.259C520.751 508.182 519.99 509.522 520.382 510.803C520.708 511.876 521.686 512.233 522.533 512.471C524.554 513.008 526.619 513.544 528.64 514.05C528.444 514.676 528.248 515.331 528.053 515.957H460.25C463.328 510.267 466.736 504.927 470.442 499.991C471.246 498.889 472.072 497.846 472.919 496.774C481.563 486.067 491.487 477.482 502.257 471.395C519.224 461.673 537.778 458.341 556 461.744Z" fill="#F2F2F2"/>
<path d="M471.55 515.957H411.179C410.849 509.33 410.878 502.679 411.266 496.059C413.678 455.162 429.912 416.2 454.403 392.609C451.274 407.89 452.882 423.081 456.142 438.332C455.686 438.541 455.229 438.719 454.816 438.957C451.51 440.636 448.476 443.186 445.885 446.464C445.167 447.387 444.407 448.728 444.776 450.008C445.102 451.081 446.08 451.438 446.928 451.677C448.971 452.213 451.013 452.749 453.034 453.255C454.664 453.702 456.294 454.119 457.924 454.566C458.685 454.745 459.445 454.953 460.206 455.161C460.314 455.519 460.38 455.847 460.488 456.174C464.313 470.621 468.486 485.187 470.442 499.991C470.926 503.706 471.259 507.455 471.441 511.22C471.506 512.799 471.55 514.378 471.55 515.957Z" fill="#F2F2F2"/>
<path d="M142.522 471.395C142.746 485.968 141.279 500.496 138.176 514.437C138.067 514.944 137.937 515.45 137.807 515.956H73.8281C74.7427 509.783 76.1947 503.783 78.1529 498.084C83.4771 482.595 92.1698 469.34 100.754 456.174C112.576 438.034 124.116 420.043 125.941 396.452C130.627 406.243 134.367 416.827 137.068 427.936C133.761 429.615 130.727 432.165 128.136 435.443C127.419 436.366 126.658 437.706 127.028 438.987C127.375 440.06 128.332 440.417 129.179 440.655C131.222 441.191 133.265 441.728 135.307 442.234C136.916 442.681 138.545 443.098 140.175 443.515C141.608 452.684 142.394 462.02 142.522 471.395Z" fill="#F2F2F2"/>
<path d="M196.265 461.744C186.008 470.293 179.488 483.519 174.164 498.323C169.531 499.77 165.253 502.85 161.755 507.259C161.016 508.182 160.256 509.522 160.647 510.803C160.973 511.876 161.951 512.233 162.798 512.471C164.819 513.008 166.884 513.544 168.905 514.05C168.709 514.676 168.514 515.331 168.318 515.957H100.515C103.593 510.267 107.001 504.927 110.707 499.991C111.511 498.889 112.337 497.846 113.185 496.774C121.828 486.067 131.752 477.482 142.523 471.395C159.49 461.673 178.044 458.341 196.265 461.744Z" fill="#F2F2F2"/>
<path d="M111.816 515.957H51.4448C51.1151 509.33 51.1442 502.679 51.5318 496.059C53.944 455.162 70.1776 416.2 94.6694 392.609C91.54 407.89 93.1481 423.081 96.4079 438.332C95.9516 438.541 95.4952 438.719 95.0823 438.957C91.776 440.636 88.7417 443.186 86.1505 446.464C85.4333 447.387 84.6728 448.728 85.0422 450.008C85.3681 451.081 86.346 451.438 87.1936 451.677C89.2364 452.213 91.2792 452.749 93.3002 453.255C94.9301 453.702 96.56 454.119 98.1899 454.566C98.9504 454.745 99.7112 454.953 100.472 455.161C100.58 455.519 100.646 455.847 100.754 456.174C104.579 470.621 108.752 485.187 110.707 499.991C111.192 503.706 111.525 507.455 111.707 511.22C111.772 512.799 111.816 514.378 111.816 515.957Z" fill="#F2F2F2"/>
<path d="M336.568 481.216L390.51 487.779L391.088 487.851V172.365C390.896 172.181 390.703 171.997 390.51 171.813C379.268 161.035 367.107 152.18 354.297 145.446L351.541 197.555L351.29 202.326L348.563 254.002L347.722 269.899L336.667 479.375L336.568 481.216Z" fill="#E6E6E6"/>
<path d="M203.168 166.49C202.783 166.826 202.397 167.162 202.012 167.515V487.851L203.168 487.707L256.527 481.216L256.427 479.375L245.373 269.899L244.532 254.002L241.804 202.326L241.553 197.555L238.663 142.909C226.197 148.832 214.283 156.747 203.168 166.49Z" fill="#E6E6E6"/>
<path d="M202.012 167.514C201.235 168.203 200.458 168.907 199.693 169.62V492.222C199.693 500.282 203.18 507.038 207.84 508.759C208.601 509.041 209.387 509.184 210.176 509.183H383.502C384.289 509.185 385.073 509.042 385.833 508.759C387.565 508.1 389.135 506.811 390.376 505.029C392.743 501.561 394.037 496.97 393.985 492.222V175.231C393.027 174.262 392.064 173.302 391.088 172.365C390.896 172.181 390.703 171.997 390.51 171.813V492.222C390.512 493.26 390.421 494.295 390.242 495.303C389.418 500.066 386.703 503.556 383.502 503.556H210.176C206.31 503.556 203.168 498.473 203.168 492.222V166.49C202.783 166.826 202.397 167.162 202.012 167.514Z" fill="#E6E6E6"/>
<path d="M392.247 197.558H201.429V202.328H392.247V197.558Z" fill="#E6E6E6"/>
<path d="M333.805 136.714C332.649 136.321 331.493 135.953 330.325 135.609V265.128H333.805V136.714Z" fill="#E6E6E6"/>
<path d="M263.353 134C262.191 134.296 261.029 134.6 259.873 134.929V265.128H263.353V134Z" fill="#E6E6E6"/>
<path d="M164.018 500.834C164.017 503.571 164.4 506.283 165.145 508.823C165.431 509.807 165.773 510.76 166.167 511.672C166.676 512.862 167.266 513.982 167.931 515.018C169.398 517.31 171.205 519.146 173.231 520.403C175.257 521.661 177.456 522.311 179.68 522.31H408.199C412.353 522.31 416.337 520.048 419.274 516.022C422.212 511.996 423.862 506.536 423.862 500.842C423.862 495.149 422.212 489.688 419.274 485.662C416.337 481.636 412.353 479.375 408.199 479.375H179.68C175.529 479.38 171.548 481.643 168.612 485.666C165.676 489.689 164.023 495.144 164.018 500.834Z" fill="#E6E6E6"/>
<path d="M201.429 269.901L391.088 269.901V254.001L201.429 254.001V269.901Z" fill="#E6E6E6"/>
<path d="M304.378 257.976H288.138C288.138 255.657 288.81 253.433 290.007 251.793C291.203 250.153 292.826 249.232 294.518 249.231H297.998C298.836 249.231 299.666 249.458 300.44 249.897C301.214 250.337 301.917 250.981 302.509 251.793C303.102 252.605 303.572 253.569 303.892 254.63C304.213 255.691 304.378 256.828 304.378 257.976H304.378Z" fill="#E6E6E6"/>
<path d="M42 513.097C47.0732 521.336 52.5605 529.08 58.4216 536.27H529.452C535.313 529.08 540.8 521.336 545.873 513.097H42Z" fill="#3F3D56"/>
<path d="M273.661 435.606V517.7H315.62V435.606C315.621 435.016 315.483 434.441 315.228 433.965C314.972 433.49 314.612 433.139 314.201 432.965C314.007 432.877 313.804 432.834 313.599 432.837H275.687C275.421 432.836 275.158 432.907 274.912 433.046C274.667 433.185 274.443 433.389 274.255 433.646C274.067 433.903 273.918 434.209 273.816 434.545C273.714 434.881 273.661 435.242 273.661 435.606ZM290.036 463.814C290.047 462.196 290.523 460.649 291.362 459.51C292.201 458.371 293.334 457.732 294.515 457.732C295.695 457.732 296.828 458.371 297.667 459.51C298.506 460.649 298.983 462.196 298.994 463.814V473.339C298.988 474.962 298.513 476.516 297.674 477.66C296.835 478.805 295.699 479.447 294.515 479.447C293.331 479.447 292.195 478.805 291.356 477.66C290.516 476.516 290.042 474.962 290.036 473.339V463.814Z" fill="#2F2E41"/>
<path d="M273.532 515.074V522.991C273.533 523.401 273.652 523.794 273.863 524.084C274.074 524.375 274.36 524.54 274.66 524.543H314.622C314.921 524.541 315.208 524.377 315.419 524.086C315.63 523.795 315.749 523.401 315.749 522.991V515.074H273.532Z" fill="#3F3D56"/>
<path d="M207.653 311.922V461.813C207.654 463.723 208.208 465.555 209.193 466.905C210.179 468.256 211.515 469.015 212.909 469.017H374.964C376.358 469.015 377.694 468.256 378.68 466.905C379.665 465.555 380.219 463.723 380.22 461.813V311.922C380.217 310.014 379.662 308.185 378.677 306.836C377.692 305.487 376.357 304.729 374.964 304.726H212.909C211.516 304.729 210.181 305.487 209.196 306.836C208.211 308.185 207.656 310.014 207.653 311.922Z" fill="#3F3D56"/>
<path d="M211.455 313.787V459.964C211.456 460.984 211.752 461.963 212.279 462.684C212.805 463.406 213.519 463.812 214.264 463.814H373.615C374.36 463.812 375.074 463.406 375.6 462.684C376.127 461.963 376.423 460.984 376.424 459.964V313.787C376.424 312.765 376.128 311.785 375.602 311.062C375.075 310.339 374.361 309.931 373.615 309.929H214.264C213.518 309.931 212.804 310.339 212.277 311.062C211.75 311.785 211.455 312.765 211.455 313.787Z" fill="#00B0CC"/>
<path d="M243.948 526.408C244.11 526.687 244.316 526.912 244.551 527.066C244.786 527.22 245.043 527.299 245.303 527.297H340.107C340.366 527.296 340.622 527.217 340.856 527.064C341.09 526.911 341.296 526.688 341.459 526.412C341.623 526.136 341.739 525.814 341.8 525.468C341.861 525.123 341.865 524.763 341.812 524.415L340.34 514.834C340.279 514.443 340.148 514.08 339.958 513.776C339.769 513.473 339.527 513.239 339.254 513.097C339.057 512.991 338.847 512.937 338.635 512.937H246.769C246.557 512.937 246.347 512.991 246.15 513.097C245.877 513.239 245.635 513.473 245.445 513.776C245.256 514.08 245.124 514.443 245.063 514.834L243.592 524.415C243.539 524.763 243.544 525.122 243.606 525.467C243.667 525.812 243.784 526.133 243.948 526.408Z" fill="#2F2E41"/>
<path d="M335.327 517.064H337.677C337.834 517.064 337.962 516.889 337.962 516.673V515.053C337.962 514.838 337.834 514.663 337.677 514.663H335.327C335.169 514.663 335.042 514.838 335.042 515.053V516.673C335.042 516.889 335.169 517.064 335.327 517.064Z" fill="#3F3D56"/>
<path d="M329.487 517.064H331.836C331.994 517.064 332.122 516.889 332.122 516.673V515.053C332.122 514.838 331.994 514.663 331.836 514.663H329.487C329.329 514.663 329.202 514.838 329.202 515.053V516.673C329.202 516.889 329.329 517.064 329.487 517.064Z" fill="#3F3D56"/>
<path d="M323.647 517.064H325.997C326.154 517.064 326.282 516.889 326.282 516.673V515.053C326.282 514.838 326.154 514.663 325.997 514.663H323.647C323.489 514.663 323.362 514.838 323.362 515.053V516.673C323.362 516.889 323.489 517.064 323.647 517.064Z" fill="#3F3D56"/>
<path d="M317.807 517.064H320.157C320.314 517.064 320.442 516.889 320.442 516.673V515.053C320.442 514.838 320.314 514.663 320.157 514.663H317.807C317.65 514.663 317.522 514.838 317.522 515.053V516.673C317.522 516.889 317.65 517.064 317.807 517.064Z" fill="#3F3D56"/>
<path d="M311.967 517.064H314.317C314.474 517.064 314.602 516.889 314.602 516.673V515.053C314.602 514.838 314.474 514.663 314.317 514.663H311.967C311.81 514.663 311.682 514.838 311.682 515.053V516.673C311.682 516.889 311.81 517.064 311.967 517.064Z" fill="#3F3D56"/>
<path d="M306.127 517.064H308.477C308.635 517.064 308.762 516.889 308.762 516.673V515.053C308.762 514.838 308.635 514.663 308.477 514.663H306.127C305.97 514.663 305.842 514.838 305.842 515.053V516.673C305.842 516.889 305.97 517.064 306.127 517.064Z" fill="#3F3D56"/>
<path d="M300.288 517.064H302.637C302.795 517.064 302.923 516.889 302.923 516.673V515.053C302.923 514.838 302.795 514.663 302.637 514.663H300.288C300.13 514.663 300.003 514.838 300.003 515.053V516.673C300.003 516.889 300.13 517.064 300.288 517.064Z" fill="#3F3D56"/>
<path d="M294.448 517.064H296.798C296.955 517.064 297.083 516.889 297.083 516.673V515.053C297.083 514.838 296.955 514.663 296.798 514.663H294.448C294.29 514.663 294.163 514.838 294.163 515.053V516.673C294.163 516.889 294.29 517.064 294.448 517.064Z" fill="#3F3D56"/>
<path d="M288.608 517.064H290.958C291.115 517.064 291.243 516.889 291.243 516.673V515.053C291.243 514.838 291.115 514.663 290.958 514.663H288.608C288.45 514.663 288.323 514.838 288.323 515.053V516.673C288.323 516.889 288.45 517.064 288.608 517.064Z" fill="#3F3D56"/>
<path d="M282.768 517.064H285.118C285.275 517.064 285.403 516.889 285.403 516.673V515.053C285.403 514.838 285.275 514.663 285.118 514.663H282.768C282.611 514.663 282.483 514.838 282.483 515.053V516.673C282.483 516.889 282.611 517.064 282.768 517.064Z" fill="#3F3D56"/>
<path d="M276.928 517.064H279.278C279.435 517.064 279.563 516.889 279.563 516.673V515.053C279.563 514.838 279.435 514.663 279.278 514.663H276.928C276.77 514.663 276.643 514.838 276.643 515.053V516.673C276.643 516.889 276.77 517.064 276.928 517.064Z" fill="#3F3D56"/>
<path d="M271.088 517.064H273.438C273.595 517.064 273.723 516.889 273.723 516.673V515.053C273.723 514.838 273.595 514.663 273.438 514.663H271.088C270.931 514.663 270.803 514.838 270.803 515.053V516.673C270.803 516.889 270.931 517.064 271.088 517.064Z" fill="#3F3D56"/>
<path d="M265.248 517.064H267.598C267.755 517.064 267.883 516.889 267.883 516.673V515.053C267.883 514.838 267.755 514.663 267.598 514.663H265.248C265.091 514.663 264.963 514.838 264.963 515.053V516.673C264.963 516.889 265.091 517.064 265.248 517.064Z" fill="#3F3D56"/>
<path d="M259.409 517.064H261.759C261.916 517.064 262.044 516.889 262.044 516.673V515.053C262.044 514.838 261.916 514.663 261.759 514.663H259.409C259.251 514.663 259.124 514.838 259.124 515.053V516.673C259.124 516.889 259.251 517.064 259.409 517.064Z" fill="#3F3D56"/>
<path d="M253.569 517.064H255.919C256.076 517.064 256.204 516.889 256.204 516.673V515.053C256.204 514.838 256.076 514.663 255.919 514.663H253.569C253.411 514.663 253.284 514.838 253.284 515.053V516.673C253.284 516.889 253.411 517.064 253.569 517.064Z" fill="#3F3D56"/>
<path d="M247.729 517.064H250.079C250.236 517.064 250.364 516.889 250.364 516.673V515.053C250.364 514.838 250.236 514.663 250.079 514.663H247.729C247.571 514.663 247.444 514.838 247.444 515.053V516.673C247.444 516.889 247.571 517.064 247.729 517.064Z" fill="#3F3D56"/>
<path d="M335.396 521.066H337.746C337.903 521.066 338.031 520.891 338.031 520.675V519.056C338.031 518.84 337.903 518.665 337.746 518.665H335.396C335.238 518.665 335.111 518.84 335.111 519.056V520.675C335.111 520.891 335.238 521.066 335.396 521.066Z" fill="#3F3D56"/>
<path d="M329.556 521.066H331.906C332.063 521.066 332.191 520.891 332.191 520.675V519.056C332.191 518.84 332.063 518.665 331.906 518.665H329.556C329.398 518.665 329.271 518.84 329.271 519.056V520.675C329.271 520.891 329.398 521.066 329.556 521.066Z" fill="#3F3D56"/>
<path d="M323.716 521.066H326.066C326.223 521.066 326.351 520.891 326.351 520.675V519.056C326.351 518.84 326.223 518.665 326.066 518.665H323.716C323.559 518.665 323.431 518.84 323.431 519.056V520.675C323.431 520.891 323.559 521.066 323.716 521.066Z" fill="#3F3D56"/>
<path d="M317.876 521.066H320.226C320.383 521.066 320.511 520.891 320.511 520.675V519.056C320.511 518.84 320.383 518.665 320.226 518.665H317.876C317.718 518.665 317.591 518.84 317.591 519.056V520.675C317.591 520.891 317.718 521.066 317.876 521.066Z" fill="#3F3D56"/>
<path d="M312.036 521.066H314.386C314.543 521.066 314.671 520.891 314.671 520.675V519.056C314.671 518.84 314.543 518.665 314.386 518.665H312.036C311.879 518.665 311.751 518.84 311.751 519.056V520.675C311.751 520.891 311.879 521.066 312.036 521.066Z" fill="#3F3D56"/>
<path d="M306.196 521.066H308.546C308.704 521.066 308.831 520.891 308.831 520.675V519.056C308.831 518.84 308.704 518.665 308.546 518.665H306.196C306.039 518.665 305.911 518.84 305.911 519.056V520.675C305.911 520.891 306.039 521.066 306.196 521.066Z" fill="#3F3D56"/>
<path d="M300.357 521.066H302.707C302.864 521.066 302.992 520.891 302.992 520.675V519.056C302.992 518.84 302.864 518.665 302.707 518.665H300.357C300.199 518.665 300.072 518.84 300.072 519.056V520.675C300.072 520.891 300.199 521.066 300.357 521.066Z" fill="#3F3D56"/>
<path d="M294.517 521.066H296.867C297.024 521.066 297.152 520.891 297.152 520.675V519.056C297.152 518.84 297.024 518.665 296.867 518.665H294.517C294.36 518.665 294.232 518.84 294.232 519.056V520.675C294.232 520.891 294.36 521.066 294.517 521.066Z" fill="#3F3D56"/>
<path d="M288.677 521.066H291.027C291.184 521.066 291.312 520.891 291.312 520.675V519.056C291.312 518.84 291.184 518.665 291.027 518.665H288.677C288.519 518.665 288.392 518.84 288.392 519.056V520.675C288.392 520.891 288.519 521.066 288.677 521.066Z" fill="#3F3D56"/>
<path d="M282.837 521.066H285.187C285.345 521.066 285.472 520.891 285.472 520.675V519.056C285.472 518.84 285.345 518.665 285.187 518.665H282.837C282.68 518.665 282.552 518.84 282.552 519.056V520.675C282.552 520.891 282.68 521.066 282.837 521.066Z" fill="#3F3D56"/>
<path d="M276.997 521.066H279.347C279.504 521.066 279.632 520.891 279.632 520.675V519.056C279.632 518.84 279.504 518.665 279.347 518.665H276.997C276.84 518.665 276.712 518.84 276.712 519.056V520.675C276.712 520.891 276.84 521.066 276.997 521.066Z" fill="#3F3D56"/>
<path d="M271.157 521.066H273.507C273.665 521.066 273.792 520.891 273.792 520.675V519.056C273.792 518.84 273.665 518.665 273.507 518.665H271.157C271 518.665 270.872 518.84 270.872 519.056V520.675C270.872 520.891 271 521.066 271.157 521.066Z" fill="#3F3D56"/>
<path d="M265.318 521.066H267.668C267.825 521.066 267.953 520.891 267.953 520.675V519.056C267.953 518.84 267.825 518.665 267.668 518.665H265.318C265.16 518.665 265.033 518.84 265.033 519.056V520.675C265.033 520.891 265.16 521.066 265.318 521.066Z" fill="#3F3D56"/>
<path d="M259.478 521.066H261.828C261.985 521.066 262.113 520.891 262.113 520.675V519.056C262.113 518.84 261.985 518.665 261.828 518.665H259.478C259.32 518.665 259.193 518.84 259.193 519.056V520.675C259.193 520.891 259.32 521.066 259.478 521.066Z" fill="#3F3D56"/>
<path d="M253.638 521.066H255.988C256.145 521.066 256.273 520.891 256.273 520.675V519.056C256.273 518.84 256.145 518.665 255.988 518.665H253.638C253.48 518.665 253.353 518.84 253.353 519.056V520.675C253.353 520.891 253.48 521.066 253.638 521.066Z" fill="#3F3D56"/>
<path d="M247.798 521.066H250.148C250.305 521.066 250.433 520.891 250.433 520.675V519.056C250.433 518.84 250.305 518.665 250.148 518.665H247.798C247.641 518.665 247.513 518.84 247.513 519.056V520.675C247.513 520.891 247.641 521.066 247.798 521.066Z" fill="#3F3D56"/>
<path d="M286.925 525.869H309.714C309.872 525.869 310 525.694 310 525.478V523.858C310 523.642 309.872 523.467 309.714 523.467H286.925C286.768 523.467 286.64 523.642 286.64 523.858V525.478C286.64 525.694 286.768 525.869 286.925 525.869Z" fill="#3F3D56"/>
<path d="M222.271 330.066H371.376C371.531 330.061 371.679 329.973 371.787 329.821C371.895 329.669 371.956 329.465 371.956 329.253C371.956 329.04 371.895 328.836 371.787 328.684C371.679 328.532 371.531 328.445 371.376 328.44H222.271C222.116 328.445 221.969 328.532 221.86 328.684C221.752 328.836 221.691 329.04 221.691 329.253C221.691 329.465 221.752 329.669 221.86 329.821C221.969 329.973 222.116 330.061 222.271 330.066Z" fill="#3F3D56"/>
<path d="M361.226 324.29C363.145 324.29 364.701 322.11 364.701 319.421C364.701 316.732 363.145 314.552 361.226 314.552C359.307 314.552 357.751 316.732 357.751 319.421C357.751 322.11 359.307 324.29 361.226 324.29Z" fill="#3F3D56"/>
<path d="M349.222 324.29C351.141 324.29 352.697 322.11 352.697 319.421C352.697 316.732 351.141 314.552 349.222 314.552C347.303 314.552 345.747 316.732 345.747 319.421C345.747 322.11 347.303 324.29 349.222 324.29Z" fill="#3F3D56"/>
<path d="M337.218 324.29C339.137 324.29 340.693 322.11 340.693 319.421C340.693 316.732 339.137 314.552 337.218 314.552C335.298 314.552 333.743 316.732 333.743 319.421C333.743 322.11 335.298 324.29 337.218 324.29Z" fill="#3F3D56"/>
<path d="M228.863 316.645C228.863 316.76 228.879 316.874 228.911 316.98C228.943 317.087 228.989 317.184 229.048 317.266C229.108 317.348 229.178 317.413 229.255 317.457C229.333 317.502 229.416 317.525 229.5 317.525H238.026C238.195 317.52 238.355 317.424 238.473 317.259C238.59 317.094 238.656 316.872 238.656 316.641C238.656 316.41 238.59 316.188 238.473 316.022C238.355 315.857 238.195 315.762 238.026 315.756H229.5C229.33 315.759 229.167 315.854 229.048 316.021C228.929 316.187 228.862 316.411 228.863 316.645Z" fill="#3F3D56"/>
<path d="M228.863 319.967C228.863 320.082 228.879 320.196 228.911 320.302C228.943 320.409 228.989 320.506 229.048 320.588C229.108 320.669 229.178 320.734 229.255 320.779C229.333 320.823 229.416 320.847 229.5 320.847H238.026C238.195 320.842 238.355 320.747 238.473 320.581C238.591 320.416 238.657 320.194 238.657 319.963C238.657 319.731 238.591 319.509 238.473 319.344C238.355 319.179 238.195 319.083 238.026 319.078H229.5C229.33 319.081 229.167 319.176 229.048 319.342C228.929 319.509 228.862 319.733 228.863 319.967Z" fill="#3F3D56"/>
<path d="M228.863 323.28C228.862 323.514 228.929 323.738 229.048 323.905C229.167 324.071 229.33 324.166 229.5 324.169H238.026C238.195 324.164 238.355 324.068 238.473 323.903C238.59 323.737 238.656 323.516 238.656 323.284C238.656 323.053 238.59 322.831 238.473 322.666C238.355 322.501 238.195 322.405 238.026 322.4H229.5C229.416 322.4 229.333 322.424 229.255 322.468C229.178 322.513 229.108 322.578 229.048 322.659C228.989 322.741 228.943 322.838 228.911 322.945C228.879 323.051 228.863 323.165 228.863 323.28Z" fill="#3F3D56"/>
<path d="M231.498 348.953H228.435C227.506 348.953 226.753 349.985 226.753 351.258C226.753 352.532 227.506 353.564 228.435 353.564H231.498C232.427 353.564 233.18 352.532 233.18 351.258C233.18 349.985 232.427 348.953 231.498 348.953Z" fill="#E6E6E6"/>
<path d="M266.537 348.953H263.474C262.545 348.953 261.792 349.985 261.792 351.258C261.792 352.532 262.545 353.564 263.474 353.564H266.537C267.466 353.564 268.219 352.532 268.219 351.258C268.219 349.985 267.466 348.953 266.537 348.953Z" fill="#E6E6E6"/>
<path d="M276.465 348.953H273.401C272.472 348.953 271.719 349.985 271.719 351.258C271.719 352.532 272.472 353.564 273.401 353.564H276.465C277.394 353.564 278.147 352.532 278.147 351.258C278.147 349.985 277.394 348.953 276.465 348.953Z" fill="#E6E6E6"/>
<path d="M257.007 348.569H237.966C237.037 348.569 236.284 349.601 236.284 350.874C236.284 352.147 237.037 353.179 237.966 353.179H257.007C257.936 353.179 258.689 352.147 258.689 350.874C258.689 349.601 257.936 348.569 257.007 348.569Z" fill="#E6E6E6"/>
<path d="M303.726 348.569H284.684C283.755 348.569 283.002 349.601 283.002 350.874C283.002 352.147 283.755 353.179 284.684 353.179H303.726C304.654 353.179 305.407 352.147 305.407 350.874C305.407 349.601 304.654 348.569 303.726 348.569Z" fill="#E6E6E6"/>
<path d="M240.842 359.359H237.778C236.849 359.359 236.096 360.391 236.096 361.664C236.096 362.937 236.849 363.969 237.778 363.969H240.842C241.771 363.969 242.524 362.937 242.524 361.664C242.524 360.391 241.771 359.359 240.842 359.359Z" fill="#E6E6E6"/>
<path d="M275.881 359.359H272.817C271.888 359.359 271.135 360.391 271.135 361.664C271.135 362.937 271.888 363.969 272.817 363.969H275.881C276.81 363.969 277.563 362.937 277.563 361.664C277.563 360.391 276.81 359.359 275.881 359.359Z" fill="#E6E6E6"/>
<path d="M285.809 359.359H282.745C281.816 359.359 281.063 360.391 281.063 361.664C281.063 362.937 281.816 363.969 282.745 363.969H285.809C286.738 363.969 287.491 362.937 287.491 361.664C287.491 360.391 286.738 359.359 285.809 359.359Z" fill="#E6E6E6"/>
<path d="M266.35 358.975H247.309C246.38 358.975 245.627 360.007 245.627 361.28C245.627 362.553 246.38 363.585 247.309 363.585H266.35C267.279 363.585 268.032 362.553 268.032 361.28C268.032 360.007 267.279 358.975 266.35 358.975Z" fill="#E6E6E6"/>
<path d="M313.069 358.975H294.028C293.099 358.975 292.346 360.007 292.346 361.28C292.346 362.553 293.099 363.585 294.028 363.585H313.069C313.998 363.585 314.751 362.553 314.751 361.28C314.751 360.007 313.998 358.975 313.069 358.975Z" fill="#E6E6E6"/>
<path d="M250.186 369.765H247.122C246.193 369.765 245.44 370.797 245.44 372.07C245.44 373.343 246.193 374.375 247.122 374.375H250.186C251.115 374.375 251.868 373.343 251.868 372.07C251.868 370.797 251.115 369.765 250.186 369.765Z" fill="#E6E6E6"/>
<path d="M285.225 369.765H282.161C281.232 369.765 280.479 370.797 280.479 372.07C280.479 373.343 281.232 374.375 282.161 374.375H285.225C286.154 374.375 286.907 373.343 286.907 372.07C286.907 370.797 286.154 369.765 285.225 369.765Z" fill="#E6E6E6"/>
<path d="M295.153 369.765H292.089C291.16 369.765 290.407 370.797 290.407 372.07C290.407 373.343 291.16 374.375 292.089 374.375H295.153C296.082 374.375 296.835 373.343 296.835 372.07C296.835 370.797 296.082 369.765 295.153 369.765Z" fill="#E6E6E6"/>
<path d="M275.694 369.38H256.653C255.724 369.38 254.971 370.412 254.971 371.686C254.971 372.959 255.724 373.991 256.653 373.991H275.694C276.623 373.991 277.376 372.959 277.376 371.686C277.376 370.412 276.623 369.38 275.694 369.38Z" fill="#E6E6E6"/>
<path d="M322.413 369.38H303.372C302.443 369.38 301.69 370.412 301.69 371.686C301.69 372.959 302.443 373.991 303.372 373.991H322.413C323.342 373.991 324.095 372.959 324.095 371.686C324.095 370.412 323.342 369.38 322.413 369.38Z" fill="#E6E6E6"/>
<path d="M259.529 380.17H256.466C255.537 380.17 254.784 381.203 254.784 382.476C254.784 383.749 255.537 384.781 256.466 384.781H259.529C260.458 384.781 261.211 383.749 261.211 382.476C261.211 381.203 260.458 380.17 259.529 380.17Z" fill="#E6E6E6"/>
<path d="M294.569 380.17H291.505C290.576 380.17 289.823 381.203 289.823 382.476C289.823 383.749 290.576 384.781 291.505 384.781H294.569C295.497 384.781 296.25 383.749 296.25 382.476C296.25 381.203 295.497 380.17 294.569 380.17Z" fill="#E6E6E6"/>
<path d="M304.497 380.17H301.433C300.504 380.17 299.751 381.203 299.751 382.476C299.751 383.749 300.504 384.781 301.433 384.781H304.497C305.425 384.781 306.178 383.749 306.178 382.476C306.178 381.203 305.425 380.17 304.497 380.17Z" fill="#E6E6E6"/>
<path d="M285.038 379.786H265.997C265.068 379.786 264.315 380.818 264.315 382.091C264.315 383.365 265.068 384.397 265.997 384.397H285.038C285.967 384.397 286.72 383.365 286.72 382.091C286.72 380.818 285.967 379.786 285.038 379.786Z" fill="#E6E6E6"/>
<path d="M266.537 421.548H263.474C262.545 421.548 261.792 422.58 261.792 423.853C261.792 425.126 262.545 426.159 263.474 426.159H266.537C267.466 426.159 268.219 425.126 268.219 423.853C268.219 422.58 267.466 421.548 266.537 421.548Z" fill="#E6E6E6"/>
<path d="M276.465 421.548H273.401C272.472 421.548 271.719 422.58 271.719 423.853C271.719 425.126 272.472 426.159 273.401 426.159H276.465C277.394 426.159 278.147 425.126 278.147 423.853C278.147 422.58 277.394 421.548 276.465 421.548Z" fill="#E6E6E6"/>
<path d="M303.726 421.932H284.684C283.755 421.932 283.002 422.965 283.002 424.238C283.002 425.511 283.755 426.543 284.684 426.543H303.726C304.654 426.543 305.407 425.511 305.407 424.238C305.407 422.965 304.654 421.932 303.726 421.932Z" fill="#E6E6E6"/>
<path d="M231.498 421.548H228.435C227.506 421.548 226.753 422.58 226.753 423.853C226.753 425.126 227.506 426.159 228.435 426.159H231.498C232.427 426.159 233.18 425.126 233.18 423.853C233.18 422.58 232.427 421.548 231.498 421.548Z" fill="#E6E6E6"/>
<path d="M257.007 421.932H237.966C237.037 421.932 236.284 422.965 236.284 424.238C236.284 425.511 237.037 426.543 237.966 426.543H257.007C257.936 426.543 258.689 425.511 258.689 424.238C258.689 422.965 257.936 421.932 257.007 421.932Z" fill="#E6E6E6"/>
<path d="M240.842 411.142H237.778C236.849 411.142 236.096 412.174 236.096 413.448C236.096 414.721 236.849 415.753 237.778 415.753H240.842C241.771 415.753 242.524 414.721 242.524 413.448C242.524 412.174 241.771 411.142 240.842 411.142Z" fill="#E6E6E6"/>
<path d="M275.881 411.142H272.817C271.888 411.142 271.135 412.174 271.135 413.448C271.135 414.721 271.888 415.753 272.817 415.753H275.881C276.81 415.753 277.563 414.721 277.563 413.448C277.563 412.174 276.81 411.142 275.881 411.142Z" fill="#E6E6E6"/>
<path d="M285.809 411.142H282.745C281.816 411.142 281.063 412.174 281.063 413.448C281.063 414.721 281.816 415.753 282.745 415.753H285.809C286.738 415.753 287.491 414.721 287.491 413.448C287.491 412.174 286.738 411.142 285.809 411.142Z" fill="#E6E6E6"/>
<path d="M266.35 411.527H247.309C246.38 411.527 245.627 412.559 245.627 413.832C245.627 415.105 246.38 416.137 247.309 416.137H266.35C267.279 416.137 268.032 415.105 268.032 413.832C268.032 412.559 267.279 411.527 266.35 411.527Z" fill="#E6E6E6"/>
<path d="M250.186 400.737H247.122C246.193 400.737 245.44 401.769 245.44 403.042C245.44 404.315 246.193 405.347 247.122 405.347H250.186C251.115 405.347 251.868 404.315 251.868 403.042C251.868 401.769 251.115 400.737 250.186 400.737Z" fill="#E6E6E6"/>
<path d="M285.225 400.737H282.161C281.232 400.737 280.479 401.769 280.479 403.042C280.479 404.315 281.232 405.347 282.161 405.347H285.225C286.154 405.347 286.907 404.315 286.907 403.042C286.907 401.769 286.154 400.737 285.225 400.737Z" fill="#E6E6E6"/>
<path d="M295.153 400.737H292.089C291.16 400.737 290.407 401.769 290.407 403.042C290.407 404.315 291.16 405.347 292.089 405.347H295.153C296.082 405.347 296.835 404.315 296.835 403.042C296.835 401.769 296.082 400.737 295.153 400.737Z" fill="#E6E6E6"/>
<path d="M275.694 401.121H256.653C255.724 401.121 254.971 402.153 254.971 403.426C254.971 404.699 255.724 405.731 256.653 405.731H275.694C276.623 405.731 277.376 404.699 277.376 403.426C277.376 402.153 276.623 401.121 275.694 401.121Z" fill="#E6E6E6"/>
<path d="M259.529 390.331H256.466C255.537 390.331 254.784 391.363 254.784 392.636C254.784 393.909 255.537 394.941 256.466 394.941H259.529C260.458 394.941 261.211 393.909 261.211 392.636C261.211 391.363 260.458 390.331 259.529 390.331Z" fill="#E6E6E6"/>
<path d="M294.569 390.331H291.505C290.576 390.331 289.823 391.363 289.823 392.636C289.823 393.909 290.576 394.941 291.505 394.941H294.569C295.497 394.941 296.25 393.909 296.25 392.636C296.25 391.363 295.497 390.331 294.569 390.331Z" fill="#E6E6E6"/>
<path d="M304.497 390.331H301.433C300.504 390.331 299.751 391.363 299.751 392.636C299.751 393.909 300.504 394.941 301.433 394.941H304.497C305.425 394.941 306.178 393.909 306.178 392.636C306.178 391.363 305.425 390.331 304.497 390.331Z" fill="#E6E6E6"/>
<path d="M285.038 390.715H265.997C265.068 390.715 264.315 391.747 264.315 393.02C264.315 394.294 265.068 395.326 265.997 395.326H285.038C285.967 395.326 286.72 394.294 286.72 393.02C286.72 391.747 285.967 390.715 285.038 390.715Z" fill="#E6E6E6"/>
<path d="M246.343 571.003C246.215 571.091 246.086 571.179 245.958 571.259C245.146 571.811 244.328 572.356 243.505 572.892C241.041 574.501 238.545 576.03 236.018 577.478C229.37 581.29 222.548 584.506 215.596 587.108C214.428 577.126 213.295 553.585 212.209 536.272C212.005 533.014 211.8 529.98 211.596 527.299C211.402 523.779 211.033 520.281 210.492 516.829C210.439 516.559 210.363 516.298 210.265 516.053C210.376 517.437 210.492 521.568 210.603 527.299C210.662 529.98 210.714 533.014 210.773 536.272C211.047 552.937 211.333 575.613 211.619 588.525C210.808 588.797 209.99 589.069 209.173 589.325C208.659 589.493 208.139 589.653 207.619 589.805C206.988 589.997 206.358 590.189 205.727 590.365C205.067 590.558 204.407 590.742 203.747 590.918C192.964 593.821 181.999 595.28 171.009 595.272C170.279 595.272 169.555 595.264 168.825 595.256C168.603 595.256 168.381 595.248 168.153 595.24C167.511 595.224 166.845 595.208 166.168 595.184C153.181 594.692 140.278 592.143 127.718 587.588L128.226 536.272L128.314 527.299L128.349 523.897C128.06 524.991 127.887 526.137 127.835 527.299C127.631 529.484 127.421 532.582 127.21 536.272C126.41 550.487 125.587 573.42 124.734 586.467C114.637 582.529 107.256 578.935 98.0286 572.612C97.6724 572.372 97.3103 572.123 96.9541 571.875C97.0183 571.259 97.0884 570.643 97.1527 570.01C98.198 560.053 96.9658 547.094 98.1221 536.272C99.0039 527.923 99.9149 519.903 100.832 513.099C101.941 504.91 103.068 498.475 104.184 495.345C105.469 491.735 106.753 488.181 107.997 484.779C108.535 483.314 109.062 481.876 109.58 480.465C109.86 479.704 110.14 478.952 110.415 478.216C111.665 474.862 112.844 471.764 113.925 469.019C114.684 467.09 115.385 465.345 116.027 463.816C116.78 462.015 117.446 460.526 117.995 459.397C122.05 450.973 128.083 444.701 135.094 441.619L135.269 441.555L135.439 441.651L135.631 441.771L146.762 436.192L151.732 419.791L177.258 417.638L181.381 421.937L183.489 424.138L185.737 426.483L189.872 430.797L191.046 431.294L192.792 432.03L204.734 437.057L204.857 436.985L205.032 437.049C211.412 439.848 216.997 445.304 221.01 452.658C221.407 453.362 221.775 454.09 222.131 454.827C223.101 456.796 224.409 459.91 225.95 463.816C226.587 465.425 227.258 467.17 227.965 469.019C228.391 470.131 232.071 485.868 235.65 501.941C238.997 516.989 242.255 532.333 242.682 536.272C242.757 537 242.839 537.736 242.915 538.465C243.4 543.019 243.879 547.606 244.34 552.08C245.023 558.716 245.689 565.12 246.326 570.843C246.331 570.899 246.337 570.947 246.343 571.003Z" fill="#3F3D56"/>
<path opacity="0.2" d="M219.292 513.062L214.33 486.814L209.948 509.463L219.292 513.062Z" fill="black"/>
<path d="M51.2442 512.758C51.5015 513.784 51.9895 514.673 52.6383 515.296C53.287 515.919 54.0631 516.244 54.855 516.224L70.3258 515.679C71.1236 515.657 71.8949 515.283 72.5244 514.611C73.154 513.939 73.608 513.006 73.8186 511.951L76.0079 479.863C76.7846 480.346 77.6302 480.584 78.4827 480.56C79.9786 480.509 81.3983 479.645 82.4296 478.159C83.4608 476.673 84.019 474.686 83.9814 472.635C83.9439 470.585 83.3136 468.639 82.2293 467.226C81.145 465.812 79.6955 465.047 78.1996 465.099C77.8588 465.097 77.5189 465.146 77.1857 465.243C76.8233 464.706 76.3828 464.278 75.8925 463.988C75.4023 463.698 74.8732 463.552 74.3393 463.56L50.5416 464.402C50.3442 464.412 50.1478 464.446 49.9546 464.502C49.4327 464.635 48.9377 464.92 48.503 465.338C48.0682 465.755 47.7037 466.296 47.4341 466.923C47.1644 467.549 46.9959 468.248 46.9398 468.972C46.8837 469.695 46.9413 470.427 47.1088 471.117L51.2442 512.758ZM76.4568 477.685L78.0147 470.038C78.1919 469.155 78.196 468.223 78.0266 467.337C78.1022 467.337 78.1688 467.288 78.2444 467.288C79.3126 467.257 80.346 467.809 81.1179 468.821C81.8898 469.834 82.3374 471.224 82.3624 472.688C82.3874 474.152 81.9879 475.57 81.2513 476.631C80.5148 477.692 79.5014 478.309 78.4334 478.347C77.7428 478.377 77.0595 478.148 76.4568 477.685Z" fill="#2F2E41"/>
<path d="M49.9546 464.502C50.4616 468.475 56.1618 471.269 63.0159 470.783C69.3187 470.385 74.4722 467.352 75.4163 463.757C75.0669 463.615 74.7036 463.549 74.3393 463.56L50.5416 464.402C50.3442 464.412 50.1478 464.446 49.9546 464.502Z" fill="#3F3D56"/>
<path d="M64.2721 495.125C64.3034 495.114 64.3332 495.096 64.3602 495.072L67.7199 492.058C67.7606 492.022 67.7939 491.972 67.817 491.914C67.8401 491.855 67.8522 491.79 67.8523 491.723C67.8523 491.657 67.8402 491.591 67.8171 491.533C67.7941 491.475 67.7607 491.425 67.7201 491.389L64.228 488.253C64.196 488.224 64.16 488.204 64.1223 488.194C64.0846 488.184 64.0458 488.185 64.0081 488.195C63.9705 488.206 63.9348 488.227 63.903 488.256C63.8712 488.286 63.844 488.324 63.8229 488.368C63.8018 488.412 63.7873 488.461 63.7802 488.513C63.7731 488.565 63.7735 488.618 63.7814 488.669C63.7893 488.721 63.8046 488.77 63.8263 488.813C63.848 488.857 63.8758 488.894 63.908 488.922L67.0271 491.723L64.0406 494.402C63.9827 494.454 63.9402 494.533 63.9205 494.623C63.9008 494.714 63.9052 494.811 63.933 494.898C63.9608 494.985 64.0101 495.055 64.0722 495.097C64.1342 495.138 64.2051 495.148 64.272 495.125H64.2721Z" fill="#00B0CC"/>
<path d="M58.9653 495.461C59.0217 495.441 59.0725 495.399 59.1113 495.339C59.15 495.28 59.175 495.206 59.1829 495.127C59.1908 495.048 59.1813 494.968 59.1557 494.896C59.13 494.825 59.0893 494.765 59.0389 494.726L55.942 492.292L58.9353 489.244C58.966 489.213 58.992 489.174 59.0116 489.129C59.0313 489.084 59.0443 489.034 59.0499 488.982C59.0555 488.93 59.0535 488.877 59.0442 488.826C59.0349 488.775 59.0183 488.727 58.9954 488.685C58.9726 488.643 58.9439 488.607 58.911 488.58C58.8781 488.553 58.8417 488.535 58.8038 488.528C58.7659 488.52 58.7272 488.523 58.6901 488.536C58.6529 488.548 58.618 488.571 58.5872 488.602L55.2359 492.014C55.197 492.054 55.1659 492.106 55.1453 492.166C55.1248 492.227 55.1156 492.293 55.1184 492.359C55.1213 492.425 55.1361 492.49 55.1617 492.546C55.1872 492.603 55.2226 492.65 55.2647 492.683L58.7483 495.42C58.814 495.472 58.8918 495.486 58.9653 495.461Z" fill="#00B0CC"/>
<path d="M63.9376 497.767C63.9658 497.757 63.9928 497.741 64.0176 497.72C64.0503 497.693 64.0789 497.657 64.1016 497.615C64.1242 497.572 64.1406 497.524 64.1497 497.473C64.1587 497.422 64.1604 497.369 64.1545 497.317C64.1486 497.265 64.1353 497.215 64.1154 497.17L59.3527 486.438C59.3122 486.348 59.2473 486.283 59.1722 486.258C59.0971 486.234 59.0179 486.251 58.9519 486.306C58.8859 486.361 58.8386 486.449 58.8202 486.552C58.8018 486.655 58.8138 486.764 58.8537 486.854L63.6164 497.587C63.6489 497.66 63.6976 497.717 63.7554 497.749C63.8132 497.782 63.877 497.788 63.9376 497.767Z" fill="#00B0CC"/>
<path d="M500.515 571.874C500.159 572.122 499.797 572.37 499.441 572.61C490.214 578.933 482.832 582.527 472.735 586.466C471.882 573.418 471.059 550.486 470.259 536.27C470.049 532.58 469.838 529.482 469.634 527.297C469.582 526.135 469.409 524.989 469.12 523.895L469.155 527.297L469.243 536.27L469.751 587.586C457.191 592.141 444.289 594.69 431.301 595.182C430.624 595.206 429.958 595.222 429.316 595.238C429.088 595.246 428.866 595.254 428.644 595.254C427.914 595.262 427.19 595.27 426.46 595.27C412.774 595.284 399.137 593.018 385.85 588.523C386.136 575.612 386.422 552.935 386.696 536.27C386.755 533.012 386.807 529.978 386.866 527.297C386.977 521.566 387.094 517.436 387.205 516.051C387.106 516.296 387.03 516.557 386.977 516.827C386.436 520.279 386.067 523.777 385.873 527.297C385.669 529.978 385.464 533.012 385.26 536.27C384.174 553.583 383.041 577.124 381.873 587.106C374.921 584.505 368.099 581.288 361.451 577.477C357.947 575.476 354.505 573.317 351.126 571.001C351.768 565.238 352.44 558.778 353.129 552.079C353.666 546.884 354.221 541.545 354.788 536.27C355.664 528.121 385.423 440.129 392.437 437.047L392.612 436.983L392.735 437.055L404.677 432.028L406.423 431.292L407.597 430.796L411.732 426.481L413.98 424.136L416.088 421.935L420.211 417.636L445.737 419.79L450.707 436.191L461.838 441.77L462.03 441.65L462.2 441.554L462.375 441.618C469.387 444.699 475.419 450.971 479.474 459.395C480.023 460.524 480.689 462.013 481.442 463.814C482.084 465.343 482.785 467.088 483.544 469.017C484.625 471.762 485.804 474.86 487.054 478.214C487.329 478.95 487.609 479.703 487.889 480.463C488.409 481.872 488.937 483.31 489.472 484.777C490.716 488.179 492.001 491.733 493.285 495.343C494.401 498.473 495.528 504.909 496.637 513.097C497.554 519.901 498.465 527.921 499.347 536.27C500.503 547.092 499.271 560.051 500.316 570.008C500.381 570.641 500.451 571.257 500.515 571.874Z" fill="#3F3D56"/>
<path d="M425.651 411.749C442.047 411.749 455.339 393.531 455.339 371.057C455.339 348.584 442.047 330.366 425.651 330.366C409.255 330.366 395.963 348.584 395.963 371.057C395.963 393.531 409.255 411.749 425.651 411.749Z" fill="#FFB6B6"/>
<path opacity="0.2" d="M378.176 513.062L383.138 486.814L387.52 509.463L378.176 513.062Z" fill="black"/>
<path d="M510.221 495.96C508.445 529.482 510.285 544.242 500.486 571.882C491.57 577.863 482.283 582.744 472.735 586.466C471.742 586.85 470.747 587.223 469.75 587.586C457.19 592.141 444.288 594.69 431.301 595.182C430.623 595.206 429.958 595.222 429.315 595.238C429.088 595.246 428.866 595.254 428.644 595.254C427.914 595.262 427.19 595.27 426.46 595.27C412.773 595.284 399.137 593.019 385.849 588.523C384.518 588.075 383.192 587.602 381.872 587.106C374.92 584.505 368.099 581.288 361.451 577.477C357.947 575.476 354.505 573.317 351.126 571.001C350.361 570.473 349.596 569.944 348.842 569.4C344.97 560.067 342.769 548.717 342.722 535.077C345.403 511.576 504.299 475.692 510.221 495.96Z" fill="#2F2E41"/>
<path opacity="0.2" d="M510.216 501.701C510.307 499.625 510.408 497.481 510.526 495.249C504.605 474.982 345.709 510.866 343.028 534.367C343.035 536.521 343.103 538.612 343.216 540.654C349.707 517.458 500.661 483.353 510.216 501.701Z" fill="black"/>
<path d="M338.771 497.541L351.813 488.602L340.944 448.38L338.08 428.095C337.708 425.459 336.838 423.004 335.556 420.974C334.275 418.944 332.627 417.411 330.778 416.527C328.929 415.643 326.943 415.44 325.018 415.938C323.094 416.436 321.299 417.617 319.812 419.364C317.608 421.953 316.225 425.614 315.953 429.574C315.682 433.534 316.543 437.484 318.356 440.59L328.989 458.808L338.771 497.541Z" fill="#FFB6B6"/>
<path d="M351.813 481.154L334.423 493.071L347.62 549.75C348.568 553.82 350.267 557.485 352.552 560.391C354.837 563.296 357.631 565.343 360.664 566.332C364.403 567.553 368.328 567.109 371.87 565.066C375.413 563.022 378.388 559.486 380.366 554.968L415.361 472.752C417.841 467.087 418.607 460.317 417.494 453.888C416.382 447.46 413.479 441.882 409.407 438.347C407.217 436.446 404.759 435.198 402.194 434.685C399.629 434.172 397.013 434.405 394.518 435.369C392.023 436.332 389.704 438.006 387.711 440.279C385.719 442.553 384.098 445.376 382.955 448.565L361.595 510.949L351.813 481.154Z" fill="#3F3D56"/>
<path d="M164.349 408.941C182.39 408.941 197.014 388.896 197.014 364.168C197.014 339.441 182.39 319.396 164.349 319.396C146.309 319.396 131.684 339.441 131.684 364.168C131.684 388.896 146.309 408.941 164.349 408.941Z" fill="#A0616A"/>
<path d="M132.076 333.315C134.732 328.408 138.549 324.92 141.469 320.304C143.072 317.771 144.402 314.901 146.203 312.634C149.549 308.421 154.229 306.695 158.77 306.48C163.747 306.305 168.684 307.738 173.182 310.663C177.679 313.589 181.611 317.925 184.659 323.32C187.033 321.412 189.406 319.505 191.78 317.597C192.718 320.98 193.656 324.363 194.593 327.747C195.363 326.83 196.345 326.316 197.364 326.296C198.384 326.277 199.375 326.752 200.164 327.639C200.952 328.526 201.485 329.767 201.67 331.142C201.854 332.516 201.677 333.936 201.171 335.149C201.736 332.757 204.324 332.249 205.751 333.829C207.178 335.41 207.56 338.222 207.327 340.717C207.035 343.453 206.152 346.007 204.793 348.051C203.433 350.094 201.659 351.533 199.698 352.184C196.6 353.13 192.995 352.136 190.516 354.851C188.528 357.028 187.928 360.992 185.9 363.097C183.4 365.69 179.868 364.491 176.761 365.064C171.325 366.067 167.021 373.687 167.674 381.151C167.182 378.796 166.665 376.373 165.549 374.46C164.433 372.546 162.553 371.252 160.841 371.956C158.011 373.118 157.548 378.406 158.234 382.344C160.053 392.79 166.947 409.674 166.947 409.674C157.995 414.514 147.331 409.938 140.425 400.754C133.518 391.571 129.921 378.567 128.355 365.554C127.026 354.519 127.214 342.297 132.076 333.315Z" fill="#2F2E41"/>
<path d="M462.855 393.489C469.07 373.96 465.549 355.988 457.973 346.455V346.447C454.995 337.298 451.035 330.238 446.504 328.581C444.314 326.652 442.188 324.387 439.829 323.234C438.73 322.67 437.559 322.417 436.387 322.49C435.214 322.563 434.065 322.96 433.008 323.658L431.805 323.218C430.783 319.64 429.586 319.568 428.254 321.921C423.127 318.648 418.507 317.183 414.396 317.183C400.988 317.183 393.057 332.743 390.955 351.554L402.162 355.644L406.057 347.135L404.258 356.412L410.443 358.662C419.856 375.463 408.591 414.22 394.313 435.784C397.712 434.496 401.097 433.407 404.468 432.518L416.72 407.897L409.129 430.309C413.071 429.517 418.099 430.277 423.594 431.806C425.445 428.492 426.42 424.074 425.463 420.136C427.029 424.289 428.109 428.754 428.663 433.367C440.261 437.249 456.081 439.242 464.607 440.715C471.496 437.633 471.515 402.822 462.855 393.489Z" fill="#2F2E41"/>
<path d="M466.898 327.059C471.45 341.029 462.266 347.038 453.851 346.869C446.249 346.715 439.787 339.394 439.399 328.986C439.212 323.987 440.482 319.092 442.929 315.377C445.376 311.662 448.799 309.431 452.446 309.176C460.04 308.644 463.798 317.543 466.898 327.059Z" fill="#2F2E41"/>
<path d="M255.728 554.479L248.23 537.337L273.161 511.412L283.526 496.411C284.873 494.463 286.569 493.032 288.446 492.263C290.322 491.495 292.313 491.414 294.219 492.03C296.125 492.646 297.88 493.937 299.308 495.774C300.736 497.611 301.787 499.929 302.357 502.498C303.201 506.303 302.933 510.41 301.61 513.95C300.287 517.491 298.013 520.188 295.266 521.473L279.158 529.011L255.728 554.479Z" fill="#A0616A"/>
<path d="M261.147 553.913L249.473 567.249L246.326 570.843L245.958 571.259C245.146 571.811 244.328 572.356 243.505 572.892C241.041 574.501 238.545 576.03 236.018 577.478C229.37 581.29 222.548 584.506 215.596 587.108C214.277 587.604 212.951 588.076 211.619 588.525C210.808 588.797 209.99 589.069 209.173 589.325C208.659 589.493 208.139 589.653 207.619 589.805C206.988 589.997 206.358 590.189 205.727 590.366C205.067 590.558 204.407 590.742 203.747 590.918C201.972 588.602 200.558 585.816 199.592 582.728C198.626 579.64 198.129 576.315 198.129 572.956C198.129 572.74 198.129 572.516 198.135 572.292L200.01 506.391L200.839 477.183C200.967 470.578 202.974 464.303 206.432 459.699C209.89 455.096 214.525 452.528 219.346 452.545C219.906 452.545 220.461 452.586 221.01 452.658C221.407 453.362 221.775 454.09 222.131 454.827C223.101 456.796 224.409 459.91 225.95 463.816C226.587 465.425 227.259 467.17 227.965 469.019C228.391 470.131 232.071 485.868 235.65 501.941L234.074 518.726L231.224 548.983L242.915 538.465L251.149 531.053L252.125 533.286L254.665 539.097L259.57 550.303L261.147 553.913Z" fill="#3F3D56"/>
<path d="M254.747 535.079C254.741 536.44 254.717 537.777 254.665 539.097C254.543 542.741 254.235 546.367 253.742 549.951C252.936 555.969 251.498 561.796 249.473 567.249C249.205 567.977 248.919 568.698 248.627 569.402C247.873 569.946 247.108 570.475 246.343 571.003C246.215 571.091 246.086 571.179 245.958 571.259C242.705 573.476 239.392 575.549 236.018 577.479C229.37 581.29 222.548 584.506 215.596 587.108C214.277 587.604 212.951 588.076 211.619 588.525C209.021 589.405 206.397 590.203 203.747 590.918C192.963 593.822 181.999 595.28 171.009 595.272C170.279 595.272 169.555 595.264 168.825 595.256C168.603 595.256 168.381 595.248 168.153 595.24C167.511 595.224 166.845 595.208 166.168 595.184C153.181 594.692 140.278 592.143 127.718 587.588C126.72 587.228 125.725 586.854 124.734 586.467C115.186 582.745 105.899 577.865 96.9833 571.883C87.1841 544.244 89.0236 529.484 87.2483 495.962C90.8924 483.483 152.544 492.295 200.01 506.391C212.893 510.217 224.724 514.436 234.074 518.726C243.733 523.153 250.735 527.651 253.479 531.877C254.121 532.752 254.561 533.865 254.747 535.079Z" fill="#2F2E41"/>
<path opacity="0.2" d="M87.2517 501.701C87.161 499.625 87.0596 497.481 86.9414 495.249C92.863 474.982 251.759 510.866 254.44 534.367C254.432 536.521 254.365 538.612 254.252 540.654C247.761 517.458 96.8072 483.353 87.2517 501.701Z" fill="black"/>
</svg>
