<svg width="368" height="287" viewBox="0 0 368 287" fill="none" xmlns="http://www.w3.org/2000/svg">
<g clip-path="url(#clip0_29_346)">
<path d="M184.388 244.201C159.454 244.201 135.291 235.777 116.017 220.365C96.7423 204.954 83.549 183.508 78.6847 159.681C73.8203 135.854 77.5859 111.121 89.3398 89.6965C101.094 68.2716 120.109 51.4803 143.145 42.1837C166.181 32.887 191.813 31.6602 215.673 38.7122C239.534 45.7642 260.146 60.6588 273.999 80.8581C287.852 101.057 294.087 125.312 291.643 149.488C289.199 173.664 278.227 196.267 260.596 213.445C250.611 223.227 238.735 230.981 225.654 236.26C212.572 241.539 198.547 244.238 184.388 244.201ZM184.388 34.9976C125.418 34.9976 77.4421 81.7407 77.4421 139.196C77.4421 196.65 125.418 243.393 184.388 243.393C243.358 243.393 291.333 196.65 291.333 139.196C291.333 81.7407 243.358 34.9976 184.388 34.9976Z" fill="#CCCCCC"/>
<path d="M224.405 259.948V154.161H143.595V259.948H224.405Z" fill="#2F2E41"/>
<path d="M238.288 150.931H129.712V192.923H238.288V150.931Z" fill="#3F3D56"/>
<path d="M238.288 197.768H129.712V239.76H238.288V197.768Z" fill="#3F3D56"/>
<path d="M238.288 244.605H129.712V286.596H238.288V244.605Z" fill="#3F3D56"/>
<path d="M238.288 168.735H129.712V175.196H238.288V168.735Z" fill="#00B0CC"/>
<path d="M238.288 215.572H129.712V222.033H238.288V215.572Z" fill="#00B0CC"/>
<path d="M238.288 262.409H129.712V268.869H238.288V262.409Z" fill="#00B0CC"/>
<path d="M217.153 159.41C218.526 159.41 219.64 158.325 219.64 156.987C219.64 155.649 218.526 154.565 217.153 154.565C215.78 154.565 214.667 155.649 214.667 156.987C214.667 158.325 215.78 159.41 217.153 159.41Z" fill="#00B0CC"/>
<path d="M225.856 159.41C227.229 159.41 228.342 158.325 228.342 156.987C228.342 155.649 227.229 154.565 225.856 154.565C224.483 154.565 223.369 155.649 223.369 156.987C223.369 158.325 224.483 159.41 225.856 159.41Z" fill="#00B0CC"/>
<path d="M234.559 159.41C235.932 159.41 237.045 158.325 237.045 156.987C237.045 155.649 235.932 154.565 234.559 154.565C233.185 154.565 232.072 155.649 232.072 156.987C232.072 158.325 233.185 159.41 234.559 159.41Z" fill="#00B0CC"/>
<path d="M217.153 205.439C218.526 205.439 219.64 204.355 219.64 203.017C219.64 201.679 218.526 200.594 217.153 200.594C215.78 200.594 214.667 201.679 214.667 203.017C214.667 204.355 215.78 205.439 217.153 205.439Z" fill="#00B0CC"/>
<path d="M225.856 205.439C227.229 205.439 228.342 204.355 228.342 203.017C228.342 201.679 227.229 200.594 225.856 200.594C224.483 200.594 223.369 201.679 223.369 203.017C223.369 204.355 224.483 205.439 225.856 205.439Z" fill="#00B0CC"/>
<path d="M234.559 205.439C235.932 205.439 237.045 204.355 237.045 203.017C237.045 201.679 235.932 200.594 234.559 200.594C233.185 200.594 232.072 201.679 232.072 203.017C232.072 204.355 233.185 205.439 234.559 205.439Z" fill="#00B0CC"/>
<path d="M217.153 251.469C218.526 251.469 219.64 250.384 219.64 249.046C219.64 247.708 218.526 246.624 217.153 246.624C215.78 246.624 214.667 247.708 214.667 249.046C214.667 250.384 215.78 251.469 217.153 251.469Z" fill="#00B0CC"/>
<path d="M225.856 251.469C227.229 251.469 228.342 250.384 228.342 249.046C228.342 247.708 227.229 246.624 225.856 246.624C224.483 246.624 223.369 247.708 223.369 249.046C223.369 250.384 224.483 251.469 225.856 251.469Z" fill="#00B0CC"/>
<path d="M234.559 251.469C235.932 251.469 237.045 250.384 237.045 249.046C237.045 247.708 235.932 246.624 234.559 246.624C233.185 246.624 232.072 247.708 232.072 249.046C232.072 250.384 233.185 251.469 234.559 251.469Z" fill="#00B0CC"/>
<path d="M368 286.192H0V287H368V286.192Z" fill="#3F3D56"/>
<path d="M100.238 109.447V184.544C100.238 186.115 99.597 187.622 98.4568 188.733C97.3165 189.844 95.7701 190.468 94.1576 190.468H64.2044C62.5915 190.468 61.0445 189.844 59.9038 188.733C58.763 187.623 58.1219 186.116 58.1215 184.544V109.447C58.1219 107.875 58.763 106.368 59.9038 105.257C61.0445 104.147 62.5915 103.523 64.2044 103.523H67.8379C67.6595 103.95 67.5916 104.414 67.6402 104.873C67.6888 105.332 67.8523 105.772 68.1165 106.155C68.3807 106.538 68.7374 106.852 69.1552 107.07C69.5731 107.287 70.0394 107.401 70.513 107.401H87.5904C88.064 107.401 88.5303 107.287 88.9482 107.07C89.366 106.852 89.7227 106.538 89.9869 106.155C90.2511 105.772 90.4146 105.332 90.4632 104.873C90.5118 104.414 90.4439 103.95 90.2655 103.523H94.1576C95.7702 103.523 97.3165 104.147 98.4568 105.258C99.597 106.369 100.238 107.876 100.238 109.447Z" fill="#E6E6E6"/>
<path d="M98.2428 117.864H60.1167V169.546H98.2428V117.864Z" fill="white"/>
<path d="M86.159 153.402H70.9418V154.249H86.159V153.402Z" fill="#E6E6E6"/>
<path d="M94.4724 156.513H70.9265V157.36H94.4724V156.513Z" fill="#00B0CC"/>
<path d="M89.4045 159.443H70.9265V160.291H89.4045V159.443Z" fill="#E6E6E6"/>
<path d="M81.7959 162.374H70.9265V163.221H81.7959V162.374Z" fill="#E6E6E6"/>
<path d="M87.2306 165.305H70.9265V166.152H87.2306V165.305Z" fill="#E6E6E6"/>
<path d="M65.7799 153.158H64.0408V154.853H65.7799V153.158Z" fill="#E6E6E6"/>
<path d="M65.7799 156.089H64.0408V157.783H65.7799V156.089Z" fill="#00B0CC"/>
<path d="M65.7799 159.02H64.0408V160.714H65.7799V159.02Z" fill="#E6E6E6"/>
<path d="M65.7799 161.95H64.0408V163.645H65.7799V161.95Z" fill="#E6E6E6"/>
<path d="M65.7799 164.881H64.0408V166.576H65.7799V164.881Z" fill="#E6E6E6"/>
<path d="M86.9227 124.324H71.5904V139.262H86.9227V124.324Z" fill="#E6E6E6"/>
<path d="M234.971 0.0563965H133.073V63.6395H234.971V0.0563965Z" fill="#E6E6E6"/>
<path d="M225.238 17.8445H140.754V48.9487H225.238V17.8445Z" fill="white"/>
<path d="M176.423 23.2334H156.147V24.3623H176.423V23.2334Z" fill="#E6E6E6"/>
<path d="M187.5 27.3784H156.127V28.5073H187.5V27.3784Z" fill="#00B0CC"/>
<path d="M180.747 31.2834H156.127V32.4123H180.747V31.2834Z" fill="#E6E6E6"/>
<path d="M170.609 35.1885H156.127V36.3173H170.609V35.1885Z" fill="#E6E6E6"/>
<path d="M177.851 39.0935H156.127V40.2224H177.851V39.0935Z" fill="#E6E6E6"/>
<path d="M149.269 22.9089H146.952V25.1667H149.269V22.9089Z" fill="#E6E6E6"/>
<path d="M149.269 26.814H146.952V29.0717H149.269V26.814Z" fill="#00B0CC"/>
<path d="M149.269 30.719H146.952V32.9767H149.269V30.719Z" fill="#E6E6E6"/>
<path d="M149.269 34.624H146.952V36.8817H149.269V34.624Z" fill="#E6E6E6"/>
<path d="M149.269 38.5291H146.952V40.7868H149.269V38.5291Z" fill="#E6E6E6"/>
<path d="M221.092 21.7417H200.347V41.9537H221.092V21.7417Z" fill="#E6E6E6"/>
<path d="M234.927 0H133.029V4.21776H234.927V0Z" fill="#00B0CC"/>
<path d="M136.246 3.0031C136.726 3.0031 137.115 2.62404 137.115 2.15646C137.115 1.68887 136.726 1.30981 136.246 1.30981C135.766 1.30981 135.377 1.68887 135.377 2.15646C135.377 2.62404 135.766 3.0031 136.246 3.0031Z" fill="white"/>
<path d="M139.292 3.0031C139.772 3.0031 140.161 2.62404 140.161 2.15646C140.161 1.68887 139.772 1.30981 139.292 1.30981C138.812 1.30981 138.423 1.68887 138.423 2.15646C138.423 2.62404 138.812 3.0031 139.292 3.0031Z" fill="white"/>
<path d="M142.337 3.0031C142.817 3.0031 143.206 2.62404 143.206 2.15646C143.206 1.68887 142.817 1.30981 142.337 1.30981C141.857 1.30981 141.468 1.68887 141.468 2.15646C141.468 2.62404 141.857 3.0031 142.337 3.0031Z" fill="white"/>
<path d="M303.205 119.033H278.34V131.55H303.205V119.033Z" fill="#E6E6E6"/>
<path d="M303.205 163.851H278.34V176.368H303.205V163.851Z" fill="#E6E6E6"/>
<path d="M290.773 167.889C302.217 167.889 311.494 158.85 311.494 147.701C311.494 136.551 302.217 127.512 290.773 127.512C279.329 127.512 270.052 136.551 270.052 147.701C270.052 158.85 279.329 167.889 290.773 167.889Z" fill="#E6E6E6"/>
<path d="M290.773 163.448C299.699 163.448 306.935 156.398 306.935 147.701C306.935 139.004 299.699 131.954 290.773 131.954C281.847 131.954 274.611 139.004 274.611 147.701C274.611 156.398 281.847 163.448 290.773 163.448Z" fill="white"/>
<path d="M298.015 143.386H285.48V144.084H298.015V143.386Z" fill="#E2E2E2"/>
<path d="M304.863 145.949H285.468V146.647H304.863V145.949Z" fill="#00B0CC"/>
<path d="M300.689 148.363H285.468V149.061H300.689V148.363Z" fill="#E2E2E2"/>
<path d="M294.421 150.777H285.468V151.475H294.421V150.777Z" fill="#E2E2E2"/>
<path d="M298.898 153.191H285.468V153.889H298.898V153.191Z" fill="#E2E2E2"/>
<path d="M281.228 143.186H279.796V144.581H281.228V143.186Z" fill="#E2E2E2"/>
<path d="M281.228 145.6H279.796V146.995H281.228V145.6Z" fill="#00B0CC"/>
<path d="M281.228 148.014H279.796V149.41H281.228V148.014Z" fill="#E2E2E2"/>
<path d="M281.228 150.428H279.796V151.824H281.228V150.428Z" fill="#E2E2E2"/>
<path d="M281.228 152.842H279.796V154.238H281.228V152.842Z" fill="#E2E2E2"/>
</g>
<defs>
<clipPath id="clip0_29_346">
<rect width="368" height="287" fill="white"/>
</clipPath>
</defs>
</svg>
